<?xml version="1.0" encoding="UTF-8"?>
<svg width="137px" height="39px" viewBox="0 0 137 39" version="1.1" xmlns="http://www.w3.org/2000/svg" xmlns:xlink="http://www.w3.org/1999/xlink">
    <!-- Generator: Sketch 58 (84663) - https://sketch.com -->
    <title>CredrPro-01</title>
    <desc>Created with Sketch.</desc>
    <g id="Page-1" stroke="none" stroke-width="1" fill="none" fill-rule="evenodd">
        <g id="Credr-Pro" transform="translate(-88.000000, -11.000000)" fill-rule="nonzero">
            <g id="navbar">
                <g id="CredrPro-01" transform="translate(88.000000, 11.000000)">
                    <path d="M3.59999957,6.33599924 C3.59999957,7.24799914 2.87999966,8.01599904 1.91999977,8.01599904 C1.00799988,8.01599904 0.239999971,7.29599913 0.239999971,6.33599924 C0.239999971,5.42399935 0.959999886,4.65599944 1.91999977,4.65599944 C2.87999966,4.65599944 3.59999957,5.37599936 3.59999957,6.33599924" id="XMLID_186_" fill="#D92128"></path>
                    <path d="M7.43999911,6.33599924 C7.43999911,7.24799914 6.7199992,8.01599904 5.75999931,8.01599904 C4.84799942,8.01599904 4.07999951,7.29599913 4.07999951,6.33599924 C4.07999951,5.42399935 4.84799942,4.65599944 5.75999931,4.65599944 C6.6719992,4.65599944 7.43999911,5.37599936 7.43999911,6.33599924" id="XMLID_185_" fill="#D92128"></path>
                    <path d="M11.2319987,6.33599924 C11.2319987,7.24799914 10.4639988,8.01599904 9.55199886,8.01599904 C8.63999897,8.01599904 7.87199906,7.29599913 7.87199906,6.33599924 C7.87199906,5.42399935 8.63999897,4.65599944 9.55199886,4.65599944 C10.5119987,4.65599944 11.2319987,5.37599936 11.2319987,6.33599924" id="XMLID_184_" fill="#D92128"></path>
                    <path d="M15.0239982,6.33599924 C15.0239982,7.24799914 14.2559983,8.01599904 13.3439984,8.01599904 C12.4319985,8.01599904 11.6639986,7.24799914 11.6639986,6.33599924 C11.6639986,5.42399935 12.4319985,4.65599944 13.3439984,4.65599944 C14.3039983,4.65599944 15.0239982,5.42399935 15.0239982,6.33599924" id="XMLID_183_" fill="#D92128"></path>
                    <path d="M18.8639978,6.33599924 C18.8639978,7.24799914 18.1439978,8.01599904 17.183998,8.01599904 C16.2719981,8.01599904 15.5039982,7.29599913 15.5039982,6.33599924 C15.5039982,5.42399935 16.2719981,4.65599944 17.183998,4.65599944 C18.1439978,4.65599944 18.8639978,5.42399935 18.8639978,6.33599924" id="XMLID_182_" fill="#D92128"></path>
                    <path d="M22.6559973,6.33599924 C22.6559973,7.24799914 21.9359974,8.01599904 20.9759975,8.01599904 C20.0639976,8.01599904 19.2959977,7.29599913 19.2959977,6.33599924 C19.2959977,5.42399935 20.0159976,4.65599944 20.9759975,4.65599944 C21.9359974,4.65599944 22.6559973,5.42399935 22.6559973,6.33599924" id="XMLID_181_" fill="#D92128"></path>
                    <path d="M26.4479968,6.33599924 C26.4479968,7.24799914 25.7279969,8.01599904 24.767997,8.01599904 C23.8559972,8.01599904 23.0879972,7.29599913 23.0879972,6.33599924 C23.0879972,5.42399935 23.8079972,4.65599944 24.767997,4.65599944 C25.7279969,4.65599944 26.4479968,5.42399935 26.4479968,6.33599924" id="XMLID_180_" fill="#D92128"></path>
                    <path d="M30.2879964,6.33599924 C30.2879964,7.24799914 29.5679965,8.01599904 28.6079966,8.01599904 C27.6959967,8.01599904 26.9279968,7.29599913 26.9279968,6.33599924 C26.9279968,5.42399935 27.6479967,4.65599944 28.6079966,4.65599944 C29.5679965,4.65599944 30.2879964,5.42399935 30.2879964,6.33599924" id="XMLID_179_" fill="#D92128"></path>
                    <polygon id="Path" fill="#D92128" points="129.263985 10.2239988 105.647987 10.2239988 105.647987 0.479999943 129.263985 0.479999943 133.871984 5.37599936"></polygon>
                    <g id="Group" transform="translate(106.559987, 1.440000)" fill="#FFFFFF">
                        <path d="M0.33599996,8.11199903 L0.33599996,0.143999983 L4.03199952,0.143999983 C5.75999931,0.143999983 6.7199992,1.29599985 6.7199992,2.73599967 C6.7199992,4.12799951 5.75999931,5.27999937 4.03199952,5.27999937 L2.01599976,5.27999937 L2.01599976,8.11199903 L0.33599996,8.11199903 L0.33599996,8.11199903 Z M4.94399941,2.68799968 C4.94399941,2.01599976 4.41599947,1.63199981 3.79199955,1.63199981 L2.01599976,1.63199981 L2.01599976,3.74399955 L3.79199955,3.74399955 C4.46399947,3.79199955 4.94399941,3.3599996 4.94399941,2.68799968 Z" id="Shape"></path>
                        <path d="M12.2399985,8.11199903 L10.7039987,5.27999937 L9.45599887,5.27999937 L9.45599887,8.11199903 L7.72799908,8.11199903 L7.72799908,0.143999983 L11.4239986,0.143999983 C13.0559984,0.143999983 14.1119983,1.19999986 14.1119983,2.73599967 C14.1119983,4.12799951 13.1999984,4.89599942 12.3359985,5.08799939 L14.1119983,8.11199903 L12.2399985,8.11199903 L12.2399985,8.11199903 L12.2399985,8.11199903 Z M12.4319985,2.68799968 C12.4319985,2.01599976 11.9039986,1.63199981 11.2799987,1.63199981 L9.50399887,1.63199981 L9.50399887,3.79199955 L11.2799987,3.79199955 C11.9039986,3.79199955 12.4319985,3.3599996 12.4319985,2.68799968 Z" id="Shape"></path>
                        <path d="M15.0719982,4.12799951 C15.0719982,1.72799979 16.847998,0 19.2479977,0 C21.6479974,0 23.4239972,1.72799979 23.4239972,4.12799951 C23.4239972,6.52799922 21.6479974,8.25599902 19.2479977,8.25599902 C16.799998,8.30399901 15.0719982,6.52799922 15.0719982,4.12799951 Z M21.6479974,4.12799951 C21.6479974,2.63999969 20.7359975,1.53599982 19.2479977,1.53599982 C17.7599979,1.53599982 16.799998,2.63999969 16.799998,4.12799951 C16.799998,5.61599933 17.7119979,6.7199992 19.2479977,6.7199992 C20.6879975,6.7199992 21.6479974,5.61599933 21.6479974,4.12799951 Z" id="Shape"></path>
                    </g>
                    <g id="Group" transform="translate(130.559984, 0.000000)" fill="#D92128">
                        <g>
                            <path d="M1.29599985,0.815999903 C1.29599985,1.10399987 1.05599987,1.34399984 0.767999908,1.34399984 C0.479999943,1.34399984 0.239999971,1.10399987 0.239999971,0.815999903 C0.239999971,0.527999937 0.479999943,0.287999966 0.767999908,0.287999966 C1.05599987,0.287999966 1.29599985,0.527999937 1.29599985,0.815999903" id="XMLID_1_"></path>
                            <path d="M2.35199972,1.96799977 C2.35199972,2.25599973 2.11199975,2.4959997 1.82399978,2.4959997 C1.53599982,2.4959997 1.29599985,2.25599973 1.29599985,1.96799977 C1.29599985,1.6799998 1.53599982,1.43999983 1.82399978,1.43999983 C2.11199975,1.43999983 2.35199972,1.6799998 2.35199972,1.96799977" id="XMLID_2_"></path>
                            <path d="M3.40799959,3.11999963 C3.40799959,3.40799959 3.16799962,3.64799957 2.87999966,3.64799957 C2.59199969,3.64799957 2.35199972,3.40799959 2.35199972,3.11999963 C2.35199972,2.83199966 2.59199969,2.59199969 2.87999966,2.59199969 C3.16799962,2.59199969 3.40799959,2.83199966 3.40799959,3.11999963" id="XMLID_3_"></path>
                            <path d="M4.46399947,4.27199949 C4.46399947,4.55999946 4.2239995,4.79999943 3.93599953,4.79999943 C3.64799957,4.79999943 3.40799959,4.55999946 3.40799959,4.27199949 C3.40799959,3.98399953 3.64799957,3.74399955 3.93599953,3.74399955 C4.2239995,3.74399955 4.46399947,3.98399953 4.46399947,4.27199949" id="XMLID_4_"></path>
                        </g>
                        <g transform="translate(0.000000, 4.799999)">
                            <path d="M3.40799959,1.63199981 C3.40799959,1.34399984 3.64799957,1.10399987 3.93599953,1.10399987 C4.2239995,1.10399987 4.46399947,1.34399984 4.46399947,1.63199981 C4.46399947,1.91999977 4.2239995,2.15999974 3.93599953,2.15999974 C3.64799957,2.15999974 3.40799959,1.91999977 3.40799959,1.63199981" id="XMLID_8_"></path>
                            <path d="M4.46399947,0.575999931 C4.46399947,0.287999966 4.70399944,0.0479999943 4.9919994,0.0479999943 C5.27999937,0.0479999943 5.51999934,0.287999966 5.51999934,0.575999931 C5.51999934,0.863999897 5.27999937,1.10399987 4.9919994,1.10399987 C4.65599944,1.10399987 4.46399947,0.863999897 4.46399947,0.575999931" id="XMLID_9_"></path>
                            <path d="M2.35199972,2.78399967 C2.35199972,2.4959997 2.59199969,2.25599973 2.87999966,2.25599973 C3.16799962,2.25599973 3.40799959,2.4959997 3.40799959,2.78399967 C3.40799959,3.07199963 3.16799962,3.31199961 2.87999966,3.31199961 C2.59199969,3.31199961 2.35199972,3.07199963 2.35199972,2.78399967" id="XMLID_7_"></path>
                            <path d="M1.29599985,3.93599953 C1.29599985,3.64799957 1.53599982,3.40799959 1.82399978,3.40799959 C2.11199975,3.40799959 2.35199972,3.64799957 2.35199972,3.93599953 C2.35199972,4.2239995 2.11199975,4.46399947 1.82399978,4.46399947 C1.53599982,4.46399947 1.29599985,4.2239995 1.29599985,3.93599953" id="XMLID_6_"></path>
                            <path d="M0.239999971,5.08799939 C0.239999971,4.79999943 0.479999943,4.55999946 0.767999908,4.55999946 C1.05599987,4.55999946 1.29599985,4.79999943 1.29599985,5.08799939 C1.29599985,5.37599936 1.05599987,5.61599933 0.767999908,5.61599933 C0.479999943,5.61599933 0.239999971,5.37599936 0.239999971,5.08799939" id="XMLID_5_"></path>
                        </g>
                    </g>
                    <path d="M3.59999957,10.1279988 C3.59999957,11.0399987 2.87999966,11.8079986 1.91999977,11.8079986 C1.00799988,11.8079986 0.239999971,11.0879987 0.239999971,10.1279988 C0.239999971,9.2159989 0.959999886,8.44799899 1.91999977,8.44799899 C2.87999966,8.44799899 3.59999957,9.2159989 3.59999957,10.1279988" id="XMLID_178_" fill="#D92128"></path>
                    <path d="M18.8639978,10.1279988 C18.8639978,11.0399987 18.1439978,11.8079986 17.183998,11.8079986 C16.2719981,11.8079986 15.5039982,11.0879987 15.5039982,10.1279988 C15.5039982,9.2159989 16.2719981,8.44799899 17.183998,8.44799899 C18.1439978,8.49599899 18.8639978,9.2639989 18.8639978,10.1279988" id="XMLID_177_" fill="#D92128"></path>
                    <path d="M22.6559973,10.1279988 C22.6559973,11.0399987 21.9359974,11.8079986 20.9759975,11.8079986 C20.0639976,11.8079986 19.2959977,11.0879987 19.2959977,10.1279988 C19.2959977,9.2159989 20.0159976,8.44799899 20.9759975,8.44799899 C21.9359974,8.49599899 22.6559973,9.2639989 22.6559973,10.1279988" id="XMLID_176_" fill="#D92128"></path>
                    <path d="M26.4479968,10.1279988 C26.4479968,11.0399987 25.7279969,11.8079986 24.767997,11.8079986 C23.8559972,11.8079986 23.0879972,11.0879987 23.0879972,10.1279988 C23.0879972,9.2159989 23.8079972,8.44799899 24.767997,8.44799899 C25.6799969,8.49599899 26.4479968,9.2639989 26.4479968,10.1279988" id="XMLID_175_" fill="#D92128"></path>
                    <path d="M30.2879964,10.1279988 C30.2879964,11.0399987 29.5679965,11.8079986 28.6079966,11.8079986 C27.6959967,11.8079986 26.9279968,11.0879987 26.9279968,10.1279988 C26.9279968,9.2159989 27.6479967,8.44799899 28.6079966,8.44799899 C29.5199965,8.49599899 30.2879964,9.2639989 30.2879964,10.1279988" id="XMLID_174_" fill="#D92128"></path>
                    <path d="M3.59999957,13.9679983 C3.59999957,14.8799982 2.87999966,15.6479981 1.91999977,15.6479981 C1.00799988,15.6479981 0.239999971,14.9279982 0.239999971,13.9679983 C0.239999971,13.0559984 0.959999886,12.2879985 1.91999977,12.2879985 C2.83199966,12.2879985 3.59999957,13.0559984 3.59999957,13.9679983" id="XMLID_173_" fill="#D92128"></path>
                    <path d="M7.43999911,13.9679983 C7.43999911,14.8799982 6.7199992,15.6479981 5.75999931,15.6479981 C4.84799942,15.6479981 4.07999951,14.9279982 4.07999951,13.9679983 C4.07999951,13.0559984 4.84799942,12.2879985 5.75999931,12.2879985 C6.6719992,12.2879985 7.43999911,13.0559984 7.43999911,13.9679983" id="XMLID_172_" fill="#D92128"></path>
                    <path d="M22.6559973,13.9679983 C22.6559973,14.8799982 21.9359974,15.6479981 20.9759975,15.6479981 C20.0639976,15.6479981 19.2959977,14.9279982 19.2959977,13.9679983 C19.2959977,13.0559984 20.0159976,12.2879985 20.9759975,12.2879985 C21.9359974,12.2879985 22.6559973,13.0559984 22.6559973,13.9679983" id="XMLID_171_" fill="#D92128"></path>
                    <path d="M26.4479968,13.9679983 C26.4479968,14.8799982 25.7279969,15.6479981 24.767997,15.6479981 C23.8559972,15.6479981 23.0879972,14.9279982 23.0879972,13.9679983 C23.0879972,13.0559984 23.8079972,12.2879985 24.767997,12.2879985 C25.6799969,12.2879985 26.4479968,13.0559984 26.4479968,13.9679983" id="XMLID_170_" fill="#D92128"></path>
                    <path d="M30.2879964,13.9679983 C30.2879964,14.8799982 29.5679965,15.6479981 28.6079966,15.6479981 C27.6959967,15.6479981 26.9279968,14.9279982 26.9279968,13.9679983 C26.9279968,13.0559984 27.6479967,12.2879985 28.6079966,12.2879985 C29.5199965,12.2879985 30.2879964,13.0559984 30.2879964,13.9679983" id="XMLID_169_" fill="#D92128"></path>
                    <path d="M3.59999957,17.7599979 C3.59999957,18.6719978 2.87999966,19.4399977 1.91999977,19.4399977 C1.00799988,19.4399977 0.239999971,18.7199978 0.239999971,17.7599979 C0.239999971,16.847998 0.959999886,16.0799981 1.91999977,16.0799981 C2.83199966,16.0799981 3.59999957,16.799998 3.59999957,17.7599979" id="XMLID_168_" fill="#D92128"></path>
                    <path d="M7.43999911,17.7599979 C7.43999911,18.6719978 6.7199992,19.4399977 5.75999931,19.4399977 C4.84799942,19.4399977 4.07999951,18.7199978 4.07999951,17.7599979 C4.07999951,16.847998 4.84799942,16.0799981 5.75999931,16.0799981 C6.62399921,16.0799981 7.43999911,16.847998 7.43999911,17.7599979" id="XMLID_167_" fill="#D92128"></path>
                    <path d="M11.2319987,17.7599979 C11.2319987,18.6719978 10.4639988,19.4399977 9.55199886,19.4399977 C8.63999897,19.4399977 7.87199906,18.7199978 7.87199906,17.7599979 C7.87199906,16.847998 8.63999897,16.0799981 9.55199886,16.0799981 C10.5119987,16.0799981 11.2319987,16.847998 11.2319987,17.7599979" id="XMLID_166_" fill="#D92128"></path>
                    <path d="M26.4479968,17.7599979 C26.4479968,18.6719978 25.7279969,19.4399977 24.767997,19.4399977 C23.8559972,19.4399977 23.0879972,18.7199978 23.0879972,17.7599979 C23.0879972,16.847998 23.8079972,16.0799981 24.767997,16.0799981 C25.6799969,16.0799981 26.4479968,16.847998 26.4479968,17.7599979" id="XMLID_165_" fill="#D92128"></path>
                    <path d="M30.2879964,17.7599979 C30.2879964,18.6719978 29.5679965,19.4399977 28.6079966,19.4399977 C27.6959967,19.4399977 26.9279968,18.7199978 26.9279968,17.7599979 C26.9279968,16.847998 27.6479967,16.0799981 28.6079966,16.0799981 C29.5199965,16.0799981 30.2879964,16.847998 30.2879964,17.7599979" id="XMLID_164_" fill="#D92128"></path>
                    <path d="M3.59999957,21.5519974 C3.59999957,22.4639973 2.87999966,23.2319972 1.91999977,23.2319972 C1.00799988,23.2319972 0.239999971,22.4639973 0.239999971,21.5519974 C0.239999971,20.6399975 0.959999886,19.8719976 1.91999977,19.8719976 C2.83199966,19.9199976 3.59999957,20.6879975 3.59999957,21.5519974" id="XMLID_163_" fill="#D92128"></path>
                    <path d="M7.43999911,21.5519974 C7.43999911,22.4639973 6.7199992,23.2319972 5.75999931,23.2319972 C4.84799942,23.2319972 4.07999951,22.4639973 4.07999951,21.5519974 C4.07999951,20.6399975 4.84799942,19.8719976 5.75999931,19.8719976 C6.62399921,19.9199976 7.43999911,20.6879975 7.43999911,21.5519974" id="XMLID_162_" fill="#D92128"></path>
                    <path d="M11.2319987,21.5519974 C11.2319987,22.4639973 10.4639988,23.2319972 9.55199886,23.2319972 C8.63999897,23.2319972 7.87199906,22.4639973 7.87199906,21.5519974 C7.87199906,20.6399975 8.63999897,19.8719976 9.55199886,19.8719976 C10.4639988,19.8719976 11.2319987,20.6879975 11.2319987,21.5519974" id="XMLID_161_" fill="#D92128"></path>
                    <path d="M15.0239982,21.5519974 C15.0239982,22.4639973 14.2559983,23.2319972 13.3439984,23.2319972 C12.4319985,23.2319972 11.6639986,22.4639973 11.6639986,21.5519974 C11.6639986,20.6399975 12.4319985,19.8719976 13.3439984,19.8719976 C14.3039983,19.9199976 15.0239982,20.6879975 15.0239982,21.5519974" id="XMLID_160_" fill="#D92128"></path>
                    <path d="M30.2879964,21.5519974 C30.2879964,22.4639973 29.5679965,23.2319972 28.6079966,23.2319972 C27.6959967,23.2319972 26.9279968,22.4639973 26.9279968,21.5519974 C26.9279968,20.6399975 27.6479967,19.8719976 28.6079966,19.8719976 C29.5199965,19.9199976 30.2879964,20.6879975 30.2879964,21.5519974" id="XMLID_159_" fill="#D92128"></path>
                    <path d="M3.59999957,25.391997 C3.59999957,26.3039969 2.87999966,27.0719968 1.91999977,27.0719968 C1.00799988,27.0719968 0.239999971,26.3039969 0.239999971,25.391997 C0.239999971,24.4799971 0.959999886,23.7119972 1.91999977,23.7119972 C2.83199966,23.7119972 3.59999957,24.4799971 3.59999957,25.391997" id="XMLID_158_" fill="#D92128"></path>
                    <path d="M7.43999911,25.391997 C7.43999911,26.3039969 6.7199992,27.0719968 5.75999931,27.0719968 C4.84799942,27.0719968 4.07999951,26.3039969 4.07999951,25.391997 C4.07999951,24.4799971 4.84799942,23.7119972 5.75999931,23.7119972 C6.62399921,23.7119972 7.43999911,24.4799971 7.43999911,25.391997" id="XMLID_157_" fill="#D92128"></path>
                    <path d="M11.2319987,25.391997 C11.2319987,26.3039969 10.4639988,27.0719968 9.55199886,27.0719968 C8.63999897,27.0719968 7.87199906,26.3039969 7.87199906,25.391997 C7.87199906,24.4799971 8.63999897,23.7119972 9.55199886,23.7119972 C10.4639988,23.7119972 11.2319987,24.4799971 11.2319987,25.391997" id="XMLID_156_" fill="#D92128"></path>
                    <path d="M26.4479968,25.391997 C26.4479968,26.3039969 25.7279969,27.0719968 24.767997,27.0719968 C23.8559972,27.0719968 23.0879972,26.3039969 23.0879972,25.391997 C23.0879972,24.4799971 23.8079972,23.7119972 24.767997,23.7119972 C25.6799969,23.7119972 26.4479968,24.4799971 26.4479968,25.391997" id="XMLID_155_" fill="#D92128"></path>
                    <path d="M30.2879964,25.391997 C30.2879964,26.3039969 29.5679965,27.0719968 28.6079966,27.0719968 C27.6959967,27.0719968 26.9279968,26.3039969 26.9279968,25.391997 C26.9279968,24.4799971 27.6479967,23.7119972 28.6079966,23.7119972 C29.5199965,23.7599972 30.2879964,24.4799971 30.2879964,25.391997" id="XMLID_154_" fill="#D92128"></path>
                    <path d="M3.59999957,29.1839965 C3.59999957,30.0959964 2.87999966,30.8639963 1.91999977,30.8639963 C1.00799988,30.8639963 0.239999971,30.0959964 0.239999971,29.1839965 C0.239999971,28.2719966 0.959999886,27.5039967 1.91999977,27.5039967 C2.83199966,27.5519967 3.59999957,28.2719966 3.59999957,29.1839965" id="XMLID_153_" fill="#D92128"></path>
                    <path d="M7.43999911,29.1839965 C7.43999911,30.0959964 6.7199992,30.8639963 5.75999931,30.8639963 C4.84799942,30.8639963 4.07999951,30.0959964 4.07999951,29.1839965 C4.07999951,28.2719966 4.84799942,27.5039967 5.75999931,27.5039967 C6.62399921,27.5039967 7.43999911,28.2719966 7.43999911,29.1839965" id="XMLID_152_" fill="#D92128"></path>
                    <path d="M22.6559973,29.1839965 C22.6559973,30.0959964 21.9359974,30.8639963 20.9759975,30.8639963 C20.0639976,30.8639963 19.2959977,30.0959964 19.2959977,29.1839965 C19.2959977,28.2719966 20.0159976,27.5039967 20.9759975,27.5039967 C21.8879974,27.5519967 22.6559973,28.2719966 22.6559973,29.1839965" id="XMLID_151_" fill="#D92128"></path>
                    <path d="M26.4479968,29.1839965 C26.4479968,30.0959964 25.7279969,30.8639963 24.767997,30.8639963 C23.8559972,30.8639963 23.0879972,30.0959964 23.0879972,29.1839965 C23.0879972,28.2719966 23.8079972,27.5039967 24.767997,27.5039967 C25.6799969,27.5519967 26.4479968,28.2719966 26.4479968,29.1839965" id="XMLID_150_" fill="#D92128"></path>
                    <path d="M30.2879964,29.1839965 C30.2879964,30.0959964 29.5679965,30.8639963 28.6079966,30.8639963 C27.6959967,30.8639963 26.9279968,30.0959964 26.9279968,29.1839965 C26.9279968,28.2719966 27.6479967,27.5039967 28.6079966,27.5039967 C29.5199965,27.5519967 30.2879964,28.2719966 30.2879964,29.1839965" id="XMLID_149_" fill="#D92128"></path>
                    <path d="M3.59999957,33.0239961 C3.59999957,33.935996 2.87999966,34.7039959 1.91999977,34.7039959 C1.00799988,34.7039959 0.239999971,33.9839959 0.239999971,33.0239961 C0.239999971,32.1119962 0.959999886,31.3439963 1.91999977,31.3439963 C2.83199966,31.3439963 3.59999957,32.1119962 3.59999957,33.0239961" id="XMLID_148_" fill="#D92128"></path>
                    <path d="M18.8639978,33.0239961 C18.8639978,33.935996 18.1439978,34.7039959 17.183998,34.7039959 C16.2719981,34.7039959 15.5039982,33.9839959 15.5039982,33.0239961 C15.5039982,32.1119962 16.2719981,31.3439963 17.183998,31.3439963 C18.0959978,31.3439963 18.8639978,32.1119962 18.8639978,33.0239961" id="XMLID_147_" fill="#D92128"></path>
                    <path d="M22.6559973,33.0239961 C22.6559973,33.935996 21.9359974,34.7039959 20.9759975,34.7039959 C20.0639976,34.7039959 19.2959977,33.9839959 19.2959977,33.0239961 C19.2959977,32.1119962 20.0159976,31.3439963 20.9759975,31.3439963 C21.8879974,31.3439963 22.6559973,32.1119962 22.6559973,33.0239961" id="XMLID_146_" fill="#D92128"></path>
                    <path d="M26.4479968,33.0239961 C26.4479968,33.935996 25.7279969,34.7039959 24.767997,34.7039959 C23.8559972,34.7039959 23.0879972,33.9839959 23.0879972,33.0239961 C23.0879972,32.1119962 23.8079972,31.3439963 24.767997,31.3439963 C25.6799969,31.3439963 26.4479968,32.1119962 26.4479968,33.0239961" id="XMLID_145_" fill="#D92128"></path>
                    <path d="M30.2879964,33.0239961 C30.2879964,33.935996 29.5679965,34.7039959 28.6079966,34.7039959 C27.6959967,34.7039959 26.9279968,33.9839959 26.9279968,33.0239961 C26.9279968,32.1119962 27.6479967,31.3439963 28.6079966,31.3439963 C29.5199965,31.3919963 30.2879964,32.1119962 30.2879964,33.0239961" id="XMLID_144_" fill="#D92128"></path>
                    <path d="M3.59999957,36.8159956 C3.59999957,37.7279955 2.87999966,38.4959954 1.91999977,38.4959954 C1.00799988,38.4959954 0.239999971,37.7279955 0.239999971,36.8159956 C0.239999971,35.9039957 0.959999886,35.1359958 1.91999977,35.1359958 C2.83199966,35.1359958 3.59999957,35.9039957 3.59999957,36.8159956" id="XMLID_143_" fill="#D92128"></path>
                    <path d="M7.43999911,36.8159956 C7.43999911,37.7279955 6.7199992,38.4959954 5.75999931,38.4959954 C4.84799942,38.4959954 4.07999951,37.7279955 4.07999951,36.8159956 C4.07999951,35.9039957 4.84799942,35.1359958 5.75999931,35.1359958 C6.62399921,35.1359958 7.43999911,35.9039957 7.43999911,36.8159956" id="XMLID_142_" fill="#D92128"></path>
                    <path d="M11.2319987,36.8159956 C11.2319987,37.7279955 10.5119987,38.4959954 9.55199886,38.4959954 C8.63999897,38.4959954 7.87199906,37.7279955 7.87199906,36.8159956 C7.87199906,35.9039957 8.63999897,35.1359958 9.55199886,35.1359958 C10.4639988,35.1359958 11.2319987,35.9039957 11.2319987,36.8159956" id="XMLID_141_" fill="#D92128"></path>
                    <path d="M15.0239982,36.8159956 C15.0239982,37.7279955 14.2559983,38.4959954 13.3439984,38.4959954 C12.4319985,38.4959954 11.6639986,37.7279955 11.6639986,36.8159956 C11.6639986,35.9039957 12.4319985,35.1359958 13.3439984,35.1359958 C14.2559983,35.1359958 15.0239982,35.9039957 15.0239982,36.8159956" id="XMLID_140_" fill="#D92128"></path>
                    <path d="M18.8639978,36.8159956 C18.8639978,37.7279955 18.1439978,38.4959954 17.183998,38.4959954 C16.2719981,38.4959954 15.5039982,37.7279955 15.5039982,36.8159956 C15.5039982,35.9039957 16.2719981,35.1359958 17.183998,35.1359958 C18.0959978,35.1359958 18.8639978,35.9039957 18.8639978,36.8159956" id="XMLID_139_" fill="#D92128"></path>
                    <path d="M22.6559973,36.8159956 C22.6559973,37.7279955 21.9359974,38.4959954 20.9759975,38.4959954 C20.0639976,38.4959954 19.2959977,37.7279955 19.2959977,36.8159956 C19.2959977,35.9039957 20.0159976,35.1359958 20.9759975,35.1359958 C21.8879974,35.1839958 22.6559973,35.9039957 22.6559973,36.8159956" id="XMLID_138_" fill="#D92128"></path>
                    <path d="M26.4479968,36.8159956 C26.4479968,37.7279955 25.7279969,38.4959954 24.767997,38.4959954 C23.8559972,38.4959954 23.0879972,37.7279955 23.0879972,36.8159956 C23.0879972,35.9039957 23.8079972,35.1359958 24.767997,35.1359958 C25.6799969,35.1839958 26.4479968,35.9039957 26.4479968,36.8159956" id="XMLID_137_" fill="#D92128"></path>
                    <path d="M30.2879964,36.8159956 C30.2879964,37.7279955 29.5679965,38.4959954 28.6079966,38.4959954 C27.6959967,38.4959954 26.9279968,37.7279955 26.9279968,36.8159956 C26.9279968,35.9039957 27.6479967,35.1359958 28.6079966,35.1359958 C29.5199965,35.1839958 30.2879964,35.9039957 30.2879964,36.8159956" id="XMLID_136_" fill="#D92128"></path>
                    <path d="M52.8959937,14.8799982 C53.2799936,15.2639982 53.3759936,15.6479981 53.3759936,16.1279981 C53.3759936,16.559998 53.1839937,16.991998 52.8479937,17.3759979 C52.4639937,17.7599979 52.0799938,17.9039979 51.5999938,17.9039979 C51.1199939,17.9039979 50.735994,17.7119979 50.351994,17.3759979 C49.3919941,16.367998 47.9519943,15.8879981 46.0319945,15.8879981 C42.239995,15.8879981 40.3199952,17.8559979 40.3199952,21.6959974 C40.3199952,23.3759972 40.8479951,24.7199971 41.951995,25.8239969 C43.0559949,26.9279968 44.3999947,27.4559967 46.0319945,27.4559967 C47.8079943,27.4559967 49.1519941,27.0239968 50.063994,26.2079969 C50.447994,25.8719969 50.7839939,25.7279969 51.2639939,25.7279969 C51.7439938,25.7279969 52.1279938,25.9199969 52.5119937,26.2559969 C52.8959937,26.6399968 53.0399937,27.0239968 53.0399937,27.5039967 C53.0399937,27.9839967 52.8479937,28.4159966 52.4639937,28.7519966 C50.8319939,30.1919964 48.7199942,30.9599963 46.0799945,30.9599963 C43.4399948,30.9599963 41.2319951,30.0479964 39.5039953,28.2719966 C37.7279955,26.4959968 36.8639956,24.2879971 36.8639956,21.6479974 C36.8639956,18.7679978 37.6799955,16.511998 39.3119953,14.8319982 C40.9439951,13.1519984 43.1999949,12.3359985 46.0799945,12.3359985 C49.0079942,12.3359985 51.2639939,13.1519984 52.8959937,14.8799982" id="XMLID_135_" fill="#FFFFFF"></path>
                    <path d="M70.5599916,18.3359978 C70.5599916,19.7759976 70.1759916,21.0719975 69.4079917,22.1279974 C68.6399918,23.2799972 67.5359919,23.9999971 66.1439921,24.3359971 L69.4079917,27.7919967 C69.7919917,28.1759966 69.9359917,28.5599966 69.9359917,29.0399965 C69.9359917,29.5199965 69.7439917,29.9519964 69.4079917,30.2879985 C69.0719918,30.6239963 68.6399918,30.8159963 68.1599919,30.8159963 C67.7279919,30.8159963 67.247992,30.6239963 66.911992,30.2879985 L58.703993,21.6479974 L58.703993,29.0879965 C58.703993,29.6639965 58.511993,30.0959964 58.1759931,30.3839964 C57.8399931,30.6719963 57.4079932,30.8159963 56.9279932,30.8159963 C56.4479933,30.8159963 56.0159933,30.6719963 55.6799934,30.3839964 C55.2959934,30.0479964 55.1519934,29.6159965 55.1519934,29.0879965 L55.1519934,12.2879985 L64.7039923,12.2879985 C66.4319921,12.2879985 67.8239919,12.8639985 68.9759918,14.0639983 C69.9839917,15.3119982 70.5599916,16.655998 70.5599916,18.3359978 M66.959992,18.3839978 C66.959992,17.6639979 66.6719921,17.087998 66.1439921,16.607998 C65.6159922,16.1759981 64.8959923,15.8879981 64.1759923,15.8879981 L58.655993,15.8879981 L58.655993,21.2159975 L63.7919924,21.2159975 C64.8959923,21.2159975 65.7119922,21.0239975 66.1439921,20.6879975 C66.6719921,20.3039976 66.959992,19.4879977 66.959992,18.3839978" id="XMLID_132_" fill="#FFFFFF"></path>
                    <path d="M83.3279901,30.9119963 L72.1919914,30.9119963 L72.1919914,12.3359985 L83.3279901,12.3359985 C83.90399,12.3359985 84.3359899,12.5279985 84.6239899,12.8639985 C84.9599899,13.2479984 85.0559899,13.6319984 85.0559899,14.1119983 C85.0559899,14.5919983 84.9119899,15.0239982 84.6239899,15.3599982 C84.28799,15.7439981 83.85599,15.8399981 83.3279901,15.8399981 L75.743991,15.8399981 L75.743991,18.6719978 L80.3039904,18.6719978 C80.8799904,18.6719978 81.3119903,18.8639978 81.5999903,19.1999977 C81.9359902,19.5839977 82.0319902,19.9679976 82.0319902,20.4479976 C82.0319902,20.9279975 81.8879902,21.3599975 81.5999903,21.6959974 C81.2639903,22.0799974 80.8799904,22.1759974 80.3039904,22.1759974 L75.743991,22.1759974 L75.743991,27.2639967 L83.3279901,27.2639967 C83.90399,27.2639967 84.3359899,27.4559967 84.6239899,27.7919967 C84.9599899,28.1759966 85.0559899,28.5599966 85.0559899,29.0399965 C85.0559899,29.5199965 84.9119899,29.9519964 84.6239899,30.2879964 C84.3839899,30.7199963 83.90399,30.9119963 83.3279901,30.9119963" id="XMLID_131_" fill="#FFFFFF"></path>
                    <path d="M104.015988,21.5519974 C104.015988,23.5199972 103.487988,25.247997 102.383988,26.8319968 C101.279988,28.4159966 99.8399881,29.5199965 97.9679883,30.1919964 C96.5759885,30.6719963 95.0399887,30.9599963 93.3119889,30.9599963 L86.7839897,30.9599963 L86.7839897,12.3359985 L93.5039889,12.3359985 C96.4319885,12.3359985 98.8799882,13.1519984 100.847988,14.7359982 C102.959988,16.463998 104.015988,18.7199978 104.015988,21.5519974 M100.415988,21.5039974 C100.415988,19.6799977 99.6959881,18.2879978 98.3039883,17.2799979 C97.0559884,16.367998 95.4239886,15.9359981 93.5519888,15.9359981 L90.4319892,15.9359981 L90.4319892,27.3119967 L93.3599889,27.3119967 C94.6079887,27.3119967 95.7599886,27.1199968 96.7679885,26.7839968 C97.9199883,26.3519969 98.8319882,25.6319969 99.4559881,24.7199971 C100.079988,23.8079972 100.415988,22.7519973 100.415988,21.5039974" id="XMLID_128_" fill="#FFFFFF"></path>
                    <path d="M121.151986,18.3839978 C121.151986,19.8239976 120.767986,21.1199975 119.999986,22.1759974 C119.231986,23.3279972 118.127986,24.0479971 116.735986,24.3839971 L120.047986,27.8399967 C120.431986,28.2239966 120.575986,28.6079966 120.575986,29.0879965 C120.575986,29.5679965 120.383986,29.9999964 120.047986,30.3359985 C119.663986,30.7199963 119.231986,30.8639963 118.751986,30.8639963 C118.271986,30.8639963 117.839986,30.6719963 117.503986,30.3359985 L109.295987,21.6959974 L109.295987,29.1359965 C109.295987,29.7119965 109.103987,30.1439964 108.767987,30.4319964 C108.383987,30.7679963 107.999987,30.8639963 107.519987,30.8639963 C107.039987,30.8639963 106.607987,30.7199963 106.271987,30.4319964 C105.887987,30.0959964 105.743987,29.6639965 105.743987,29.1359965 L105.743987,12.3359985 L115.199986,12.3359985 C116.927986,12.3359985 118.319986,12.9119985 119.471986,14.1119983 C120.623986,15.3119982 121.151986,16.703998 121.151986,18.3839978 M117.503986,18.3839978 C117.503986,17.6639979 117.215986,17.087998 116.687986,16.607998 C116.159986,16.1279981 115.439986,15.8879981 114.719986,15.8879981 L109.199987,15.8879981 L109.199987,21.2159975 L114.335986,21.2159975 C115.439986,21.2159975 116.255986,21.0239975 116.687986,20.6879975 C117.311986,20.3039976 117.503986,19.5359977 117.503986,18.3839978" id="XMLID_125_" fill="#FFFFFF"></path>
                </g>
            </g>
        </g>
    </g>
</svg>