<?xml version="1.0" encoding="UTF-8"?>
<svg width="32px" height="32px" viewBox="0 0 32 32" version="1.1" xmlns="http://www.w3.org/2000/svg" xmlns:xlink="http://www.w3.org/1999/xlink">
    <!-- Generator: Sketch 58 (84663) - https://sketch.com -->
    <title>user (1)</title>
    <desc>Created with Sketch.</desc>
    <g id="Page-1" stroke="none" stroke-width="1" fill="none" fill-rule="evenodd">
        <g id="Credr-Pro" transform="translate(-1247.000000, -14.000000)" fill-rule="nonzero">
            <g id="navbar">
                <g id="user-(1)" transform="translate(1247.000000, 14.000000)">
                    <path d="M11.1677993,24.9311985 L6.42359962,27.5189984 C6.14519963,27.6707984 5.89499965,27.8573983 5.66219966,28.0607983 C8.4281995,30.3929982 11.9987993,31.7999981 15.8999991,31.7999981 C19.7723988,31.7999981 23.3201986,30.4139982 26.0783984,28.1135983 C25.8239985,27.8987983 25.5479985,27.7055983 25.2419985,27.5531984 L20.1617988,25.0133985 C19.5053988,24.6851985 19.0907989,24.0143986 19.0907989,23.2805986 L19.0907989,21.2873987 C19.2335989,21.1247987 19.3967988,20.9159988 19.5713988,20.6693988 C20.2637988,19.6913988 20.7875988,18.6155989 21.1505987,17.486999 C21.8021987,17.285999 22.2821987,16.684199 22.2821987,15.968999 L22.2821987,13.8413992 C22.2821987,13.3733992 22.0739987,12.9551992 21.7505987,12.6623992 L21.7505987,9.58679943 C21.7505987,9.58679943 22.3823987,4.80059971 15.9005991,4.80059971 C9.41879944,4.80059971 10.0505994,9.58679943 10.0505994,9.58679943 L10.0505994,12.6623992 C9.72659942,12.9551992 9.51899943,13.3733992 9.51899943,13.8413992 L9.51899943,15.968999 C9.51899943,16.529399 9.81359942,17.022599 10.2545994,17.307599 C10.7861994,19.6217988 12.1781993,21.2873987 12.1781993,21.2873987 L12.1781993,23.2313986 C12.1775993,23.9393986 11.7899993,24.5915985 11.1677993,24.9311985 Z" id="Path" fill="#E7ECED"></path>
                    <path d="M16.171799,0.00239999986 C7.39199956,-0.147599991 0.152399991,6.84839959 0.00239999986,15.6281991 C-0.0827999951,20.6063988 2.13599987,25.0805985 5.66879966,28.0559983 C5.89979965,27.8543983 6.14759963,27.6695984 6.42299962,27.5195984 L11.1671993,24.9317985 C11.7893993,24.5921985 12.1769993,23.9399986 12.1769993,23.2307986 L12.1769993,21.2867987 C12.1769993,21.2867987 10.7843994,19.6211988 10.2533994,17.306999 C9.81299942,17.021999 9.51779943,16.529399 9.51779943,15.968399 L9.51779943,13.8407992 C9.51779943,13.3727992 9.72599942,12.9545992 10.0493994,12.6617992 L10.0493994,9.58619943 C10.0493994,9.58619943 9.41759944,4.79999971 15.8993991,4.79999971 C22.3811987,4.79999971 21.7493987,9.58619943 21.7493987,9.58619943 L21.7493987,12.6617992 C22.0733987,12.9545992 22.2809987,13.3727992 22.2809987,13.8407992 L22.2809987,15.968399 C22.2809987,16.683599 21.8009987,17.285399 21.1493987,17.486399 C20.7863988,18.6149989 20.2625988,19.6907988 19.5701988,20.6687988 C19.3955988,20.9153988 19.2323989,21.1241987 19.0895989,21.2867987 L19.0895989,23.2799986 C19.0895989,24.0137986 19.5041988,24.6851985 20.1605988,25.0127985 L25.2407985,27.5525984 C25.5455985,27.7049983 25.8209985,27.8975983 26.0747984,28.1117983 C29.5007982,25.2545985 31.7141981,20.9825987 31.7963981,16.171799 C31.9475981,7.39199956 24.9521985,0.152399991 16.171799,0.00239999986 Z" id="Path" fill="#556080"></path>
                </g>
            </g>
        </g>
    </g>
</svg>