<?xml version="1.0" encoding="utf-8"?>
<!-- Generator: Adobe Illustrator 22.1.0, SVG Export Plug-In . SVG Version: 6.00 Build 0)  -->
<svg version="1.1" id="Layer_1" xmlns="http://www.w3.org/2000/svg" xmlns:xlink="http://www.w3.org/1999/xlink" x="0px" y="0px"
	 viewBox="0 0 322 103" style="enable-background:new 0 0 322 103;" xml:space="preserve">
<style type="text/css">
	.st0{fill:#D92128;}
	.st1{fill:#FFFFFF;}
	.st2{fill:#353435;}
</style>
<g>
	<g>
		<path id="XMLID_186_" class="st0" d="M29.5,26.2c0,1.9-1.5,3.5-3.5,3.5c-1.9,0-3.5-1.5-3.5-3.5c0-1.9,1.5-3.5,3.5-3.5
			S29.5,24.2,29.5,26.2"/>
		<path id="XMLID_185_" class="st0" d="M37.5,26.2c0,1.9-1.5,3.5-3.5,3.5c-1.9,0-3.5-1.5-3.5-3.5c0-1.9,1.6-3.5,3.5-3.5
			S37.5,24.2,37.5,26.2"/>
		<path id="XMLID_184_" class="st0" d="M45.4,26.2c0,1.9-1.6,3.5-3.5,3.5s-3.5-1.5-3.5-3.5c0-1.9,1.6-3.5,3.5-3.5
			C43.9,22.7,45.4,24.2,45.4,26.2"/>
		<path id="XMLID_183_" class="st0" d="M53.3,26.2c0,1.9-1.6,3.5-3.5,3.5s-3.5-1.6-3.5-3.5s1.6-3.5,3.5-3.5
			C51.8,22.7,53.3,24.3,53.3,26.2"/>
		<path id="XMLID_182_" class="st0" d="M61.3,26.2c0,1.9-1.5,3.5-3.5,3.5c-1.9,0-3.5-1.5-3.5-3.5c0-1.9,1.6-3.5,3.5-3.5
			C59.8,22.7,61.3,24.3,61.3,26.2"/>
		<path id="XMLID_181_" class="st0" d="M69.2,26.2c0,1.9-1.5,3.5-3.5,3.5c-1.9,0-3.5-1.5-3.5-3.5c0-1.9,1.5-3.5,3.5-3.5
			S69.2,24.3,69.2,26.2"/>
		<path id="XMLID_180_" class="st0" d="M77.1,26.2c0,1.9-1.5,3.5-3.5,3.5c-1.9,0-3.5-1.5-3.5-3.5c0-1.9,1.5-3.5,3.5-3.5
			S77.1,24.3,77.1,26.2"/>
		<path id="XMLID_179_" class="st0" d="M85.1,26.2c0,1.9-1.5,3.5-3.5,3.5c-1.9,0-3.5-1.5-3.5-3.5c0-1.9,1.5-3.5,3.5-3.5
			S85.1,24.3,85.1,26.2"/>
		<polygon class="st0" points="291.3,34.3 242.1,34.3 242.1,14 291.3,14 300.9,24.2 		"/>
		<g>
			<g>
				<path class="st1" d="M244.7,32.9V16.3h7.7c3.6,0,5.6,2.4,5.6,5.4c0,2.9-2,5.3-5.6,5.3h-4.2v5.9H244.7L244.7,32.9z M254.3,21.6
					c0-1.4-1.1-2.2-2.4-2.2h-3.7v4.4h3.7C253.3,23.9,254.3,23,254.3,21.6z"/>
				<path class="st1" d="M269.5,32.9l-3.2-5.9h-2.6v5.9h-3.6V16.3h7.7c3.4,0,5.6,2.2,5.6,5.4c0,2.9-1.9,4.5-3.7,4.9l3.7,6.3H269.5
					L269.5,32.9L269.5,32.9z M269.9,21.6c0-1.4-1.1-2.2-2.4-2.2h-3.7v4.5h3.7C268.8,23.9,269.9,23,269.9,21.6z"/>
				<path class="st1" d="M275.4,24.6c0-5,3.7-8.6,8.7-8.6s8.7,3.6,8.7,8.6s-3.7,8.6-8.7,8.6C279,33.3,275.4,29.6,275.4,24.6z
					 M289.1,24.6c0-3.1-1.9-5.4-5-5.4s-5.1,2.3-5.1,5.4s1.9,5.4,5.1,5.4C287.1,30,289.1,27.7,289.1,24.6z"/>
			</g>
		</g>
		<g>
			<g>
				<path id="XMLID_1_" class="st0" d="M296.7,14.7c0,0.6-0.5,1.1-1.1,1.1s-1.1-0.5-1.1-1.1s0.5-1.1,1.1-1.1S296.7,14.1,296.7,14.7"
					/>
				<path id="XMLID_2_" class="st0" d="M298.9,17.1c0,0.6-0.5,1.1-1.1,1.1c-0.6,0-1.1-0.5-1.1-1.1s0.5-1.1,1.1-1.1
					C298.4,16,298.9,16.5,298.9,17.1"/>
				<path id="XMLID_3_" class="st0" d="M301.1,19.5c0,0.6-0.5,1.1-1.1,1.1s-1.1-0.5-1.1-1.1s0.5-1.1,1.1-1.1S301.1,18.9,301.1,19.5"
					/>
				<path id="XMLID_4_" class="st0" d="M303.3,21.9c0,0.6-0.5,1.1-1.1,1.1c-0.6,0-1.1-0.5-1.1-1.1s0.5-1.1,1.1-1.1
					C302.8,20.8,303.3,21.3,303.3,21.9"/>
			</g>
			<g>
				<path id="XMLID_8_" class="st0" d="M301.1,26.4c0-0.6,0.5-1.1,1.1-1.1c0.6,0,1.1,0.5,1.1,1.1s-0.5,1.1-1.1,1.1
					C301.6,27.5,301.1,27,301.1,26.4"/>
				<path id="XMLID_9_" class="st0" d="M303.3,24.2c0-0.6,0.5-1.1,1.1-1.1s1.1,0.5,1.1,1.1s-0.5,1.1-1.1,1.1
					C303.7,25.3,303.3,24.8,303.3,24.2"/>
				<path id="XMLID_7_" class="st0" d="M298.9,28.8c0-0.6,0.5-1.1,1.1-1.1s1.1,0.5,1.1,1.1s-0.5,1.1-1.1,1.1S298.9,29.4,298.9,28.8"
					/>
				<path id="XMLID_6_" class="st0" d="M296.7,31.2c0-0.6,0.5-1.1,1.1-1.1c0.6,0,1.1,0.5,1.1,1.1s-0.5,1.1-1.1,1.1
					C297.2,32.3,296.7,31.8,296.7,31.2"/>
				<path id="XMLID_5_" class="st0" d="M294.5,33.6c0-0.6,0.5-1.1,1.1-1.1s1.1,0.5,1.1,1.1c0,0.6-0.5,1.1-1.1,1.1
					S294.5,34.2,294.5,33.6"/>
			</g>
		</g>
		<path id="XMLID_178_" class="st0" d="M29.5,34.1c0,1.9-1.5,3.5-3.5,3.5c-1.9,0-3.5-1.5-3.5-3.5c0-1.9,1.5-3.5,3.5-3.5
			S29.5,32.2,29.5,34.1"/>
		<path id="XMLID_177_" class="st0" d="M61.3,34.1c0,1.9-1.5,3.5-3.5,3.5c-1.9,0-3.5-1.5-3.5-3.5c0-1.9,1.6-3.5,3.5-3.5
			C59.8,30.7,61.3,32.3,61.3,34.1"/>
		<path id="XMLID_176_" class="st0" d="M69.2,34.1c0,1.9-1.5,3.5-3.5,3.5c-1.9,0-3.5-1.5-3.5-3.5c0-1.9,1.5-3.5,3.5-3.5
			C67.7,30.7,69.2,32.3,69.2,34.1"/>
		<path id="XMLID_175_" class="st0" d="M77.1,34.1c0,1.9-1.5,3.5-3.5,3.5c-1.9,0-3.5-1.5-3.5-3.5c0-1.9,1.5-3.5,3.5-3.5
			C75.5,30.7,77.1,32.3,77.1,34.1"/>
		<path id="XMLID_174_" class="st0" d="M85.1,34.1c0,1.9-1.5,3.5-3.5,3.5c-1.9,0-3.5-1.5-3.5-3.5c0-1.9,1.5-3.5,3.5-3.5
			C83.5,30.7,85.1,32.3,85.1,34.1"/>
		<path id="XMLID_173_" class="st0" d="M29.5,42.1c0,1.9-1.5,3.5-3.5,3.5c-1.9,0-3.5-1.5-3.5-3.5c0-1.9,1.5-3.5,3.5-3.5
			C27.9,38.6,29.5,40.2,29.5,42.1"/>
		<path id="XMLID_172_" class="st0" d="M37.5,42.1c0,1.9-1.5,3.5-3.5,3.5c-1.9,0-3.5-1.5-3.5-3.5c0-1.9,1.6-3.5,3.5-3.5
			S37.5,40.2,37.5,42.1"/>
		<path id="XMLID_171_" class="st0" d="M69.2,42.1c0,1.9-1.5,3.5-3.5,3.5c-1.9,0-3.5-1.5-3.5-3.5c0-1.9,1.5-3.5,3.5-3.5
			S69.2,40.2,69.2,42.1"/>
		<path id="XMLID_170_" class="st0" d="M77.1,42.1c0,1.9-1.5,3.5-3.5,3.5c-1.9,0-3.5-1.5-3.5-3.5c0-1.9,1.5-3.5,3.5-3.5
			C75.5,38.6,77.1,40.2,77.1,42.1"/>
		<path id="XMLID_169_" class="st0" d="M85.1,42.1c0,1.9-1.5,3.5-3.5,3.5c-1.9,0-3.5-1.5-3.5-3.5c0-1.9,1.5-3.5,3.5-3.5
			C83.5,38.6,85.1,40.2,85.1,42.1"/>
		<path id="XMLID_168_" class="st0" d="M29.5,50c0,1.9-1.5,3.5-3.5,3.5c-1.9,0-3.5-1.5-3.5-3.5c0-1.9,1.5-3.5,3.5-3.5
			C27.9,46.5,29.5,48,29.5,50"/>
		<path id="XMLID_167_" class="st0" d="M37.5,50c0,1.9-1.5,3.5-3.5,3.5c-1.9,0-3.5-1.5-3.5-3.5c0-1.9,1.6-3.5,3.5-3.5
			C35.8,46.5,37.5,48.1,37.5,50"/>
		<path id="XMLID_166_" class="st0" d="M45.4,50c0,1.9-1.6,3.5-3.5,3.5S38.4,52,38.4,50c0-1.9,1.6-3.5,3.5-3.5
			C43.9,46.5,45.4,48.1,45.4,50"/>
		<path id="XMLID_165_" class="st0" d="M77.1,50c0,1.9-1.5,3.5-3.5,3.5c-1.9,0-3.5-1.5-3.5-3.5c0-1.9,1.5-3.5,3.5-3.5
			C75.5,46.5,77.1,48.1,77.1,50"/>
		<path id="XMLID_164_" class="st0" d="M85.1,50c0,1.9-1.5,3.5-3.5,3.5c-1.9,0-3.5-1.5-3.5-3.5c0-1.9,1.5-3.5,3.5-3.5
			C83.5,46.5,85.1,48.1,85.1,50"/>
		<path id="XMLID_163_" class="st0" d="M29.5,57.9c0,1.9-1.5,3.5-3.5,3.5c-1.9,0-3.5-1.6-3.5-3.5s1.5-3.5,3.5-3.5
			C27.9,54.5,29.5,56.1,29.5,57.9"/>
		<path id="XMLID_162_" class="st0" d="M37.5,57.9c0,1.9-1.5,3.5-3.5,3.5c-1.9,0-3.5-1.6-3.5-3.5s1.6-3.5,3.5-3.5
			C35.8,54.5,37.5,56.1,37.5,57.9"/>
		<path id="XMLID_161_" class="st0" d="M45.4,57.9c0,1.9-1.6,3.5-3.5,3.5s-3.5-1.6-3.5-3.5s1.6-3.5,3.5-3.5S45.4,56.1,45.4,57.9"/>
		<path id="XMLID_160_" class="st0" d="M53.3,57.9c0,1.9-1.6,3.5-3.5,3.5s-3.5-1.6-3.5-3.5s1.6-3.5,3.5-3.5
			C51.8,54.5,53.3,56.1,53.3,57.9"/>
		<path id="XMLID_159_" class="st0" d="M85.1,57.9c0,1.9-1.5,3.5-3.5,3.5c-1.9,0-3.5-1.6-3.5-3.5s1.5-3.5,3.5-3.5
			C83.5,54.5,85.1,56.1,85.1,57.9"/>
		<path id="XMLID_158_" class="st0" d="M29.5,65.9c0,1.9-1.5,3.5-3.5,3.5c-1.9,0-3.5-1.6-3.5-3.5c0-1.9,1.5-3.5,3.5-3.5
			C27.9,62.4,29.5,64,29.5,65.9"/>
		<path id="XMLID_157_" class="st0" d="M37.5,65.9c0,1.9-1.5,3.5-3.5,3.5c-1.9,0-3.5-1.6-3.5-3.5c0-1.9,1.6-3.5,3.5-3.5
			C35.8,62.4,37.5,64,37.5,65.9"/>
		<path id="XMLID_156_" class="st0" d="M45.4,65.9c0,1.9-1.6,3.5-3.5,3.5s-3.5-1.6-3.5-3.5c0-1.9,1.6-3.5,3.5-3.5S45.4,64,45.4,65.9
			"/>
		<path id="XMLID_155_" class="st0" d="M77.1,65.9c0,1.9-1.5,3.5-3.5,3.5c-1.9,0-3.5-1.6-3.5-3.5c0-1.9,1.5-3.5,3.5-3.5
			C75.5,62.4,77.1,64,77.1,65.9"/>
		<path id="XMLID_154_" class="st0" d="M85.1,65.9c0,1.9-1.5,3.5-3.5,3.5c-1.9,0-3.5-1.6-3.5-3.5c0-1.9,1.5-3.5,3.5-3.5
			C83.5,62.5,85.1,64,85.1,65.9"/>
		<path id="XMLID_153_" class="st0" d="M29.5,73.8c0,1.9-1.5,3.5-3.5,3.5c-1.9,0-3.5-1.6-3.5-3.5s1.5-3.5,3.5-3.5
			C27.9,70.4,29.5,71.9,29.5,73.8"/>
		<path id="XMLID_152_" class="st0" d="M37.5,73.8c0,1.9-1.5,3.5-3.5,3.5c-1.9,0-3.5-1.6-3.5-3.5s1.6-3.5,3.5-3.5
			C35.8,70.3,37.5,71.9,37.5,73.8"/>
		<path id="XMLID_151_" class="st0" d="M69.2,73.8c0,1.9-1.5,3.5-3.5,3.5c-1.9,0-3.5-1.6-3.5-3.5s1.5-3.5,3.5-3.5
			C67.6,70.4,69.2,71.9,69.2,73.8"/>
		<path id="XMLID_150_" class="st0" d="M77.1,73.8c0,1.9-1.5,3.5-3.5,3.5c-1.9,0-3.5-1.6-3.5-3.5s1.5-3.5,3.5-3.5
			C75.5,70.4,77.1,71.9,77.1,73.8"/>
		<path id="XMLID_149_" class="st0" d="M85.1,73.8c0,1.9-1.5,3.5-3.5,3.5c-1.9,0-3.5-1.6-3.5-3.5s1.5-3.5,3.5-3.5
			C83.5,70.4,85.1,71.9,85.1,73.8"/>
		<path id="XMLID_148_" class="st0" d="M29.5,81.8c0,1.9-1.5,3.5-3.5,3.5c-1.9,0-3.5-1.5-3.5-3.5c0-1.9,1.5-3.5,3.5-3.5
			C27.9,78.3,29.5,79.9,29.5,81.8"/>
		<path id="XMLID_147_" class="st0" d="M61.3,81.8c0,1.9-1.5,3.5-3.5,3.5c-1.9,0-3.5-1.5-3.5-3.5c0-1.9,1.6-3.5,3.5-3.5
			C59.7,78.3,61.3,79.9,61.3,81.8"/>
		<path id="XMLID_146_" class="st0" d="M69.2,81.8c0,1.9-1.5,3.5-3.5,3.5c-1.9,0-3.5-1.5-3.5-3.5c0-1.9,1.5-3.5,3.5-3.5
			C67.6,78.3,69.2,79.9,69.2,81.8"/>
		<path id="XMLID_145_" class="st0" d="M77.1,81.8c0,1.9-1.5,3.5-3.5,3.5c-1.9,0-3.5-1.5-3.5-3.5c0-1.9,1.5-3.5,3.5-3.5
			C75.5,78.3,77.1,79.9,77.1,81.8"/>
		<path id="XMLID_144_" class="st0" d="M85.1,81.8c0,1.9-1.5,3.5-3.5,3.5c-1.9,0-3.5-1.5-3.5-3.5c0-1.9,1.5-3.5,3.5-3.5
			C83.5,78.4,85.1,79.9,85.1,81.8"/>
		<path id="XMLID_143_" class="st0" d="M29.5,89.7c0,1.9-1.5,3.5-3.5,3.5c-1.9,0-3.5-1.6-3.5-3.5s1.5-3.5,3.5-3.5
			C27.9,86.2,29.5,87.8,29.5,89.7"/>
		<path id="XMLID_142_" class="st0" d="M37.5,89.7c0,1.9-1.5,3.5-3.5,3.5c-1.9,0-3.5-1.6-3.5-3.5s1.6-3.5,3.5-3.5
			C35.8,86.2,37.5,87.8,37.5,89.7"/>
		<path id="XMLID_141_" class="st0" d="M45.4,89.7c0,1.9-1.5,3.5-3.5,3.5c-1.9,0-3.5-1.6-3.5-3.5s1.6-3.5,3.5-3.5
			S45.4,87.8,45.4,89.7"/>
		<path id="XMLID_140_" class="st0" d="M53.3,89.7c0,1.9-1.6,3.5-3.5,3.5s-3.5-1.6-3.5-3.5s1.6-3.5,3.5-3.5
			C51.7,86.2,53.3,87.8,53.3,89.7"/>
		<path id="XMLID_139_" class="st0" d="M61.3,89.7c0,1.9-1.5,3.5-3.5,3.5c-1.9,0-3.5-1.6-3.5-3.5s1.6-3.5,3.5-3.5
			S61.3,87.8,61.3,89.7"/>
		<path id="XMLID_138_" class="st0" d="M69.2,89.7c0,1.9-1.5,3.5-3.5,3.5c-1.9,0-3.5-1.6-3.5-3.5s1.5-3.5,3.5-3.5
			C67.6,86.3,69.2,87.8,69.2,89.7"/>
		<path id="XMLID_137_" class="st0" d="M77.1,89.7c0,1.9-1.5,3.5-3.5,3.5c-1.9,0-3.5-1.6-3.5-3.5s1.5-3.5,3.5-3.5
			C75.5,86.3,77.1,87.8,77.1,89.7"/>
		<path id="XMLID_136_" class="st0" d="M85.1,89.7c0,1.9-1.5,3.5-3.5,3.5c-1.9,0-3.5-1.6-3.5-3.5s1.5-3.5,3.5-3.5
			C83.5,86.3,85.1,87.8,85.1,89.7"/>
		<path id="XMLID_135_" class="st2" d="M132.2,44c0.8,0.8,1,1.6,1,2.6c0,0.9-0.4,1.8-1.1,2.6c-0.8,0.8-1.6,1.1-2.6,1.1
			s-1.8-0.4-2.6-1.1c-2-2.1-5-3.1-9-3.1c-7.9,0-11.9,4.1-11.9,12.1c0,3.5,1.1,6.3,3.4,8.6s5.1,3.4,8.5,3.4c3.7,0,6.5-0.9,8.4-2.6
			c0.8-0.7,1.5-1,2.5-1s1.8,0.4,2.6,1.1c0.8,0.8,1.1,1.6,1.1,2.6s-0.4,1.9-1.2,2.6c-3.4,3-7.8,4.6-13.3,4.6s-10.1-1.9-13.7-5.6
			c-3.7-3.7-5.5-8.3-5.5-13.8c0-6,1.7-10.7,5.1-14.2c3.4-3.5,8.1-5.2,14.1-5.2C124.1,38.7,128.8,40.4,132.2,44"/>
		<path id="XMLID_132_" class="st2" d="M169,51.2c0,3-0.8,5.7-2.4,7.9c-1.6,2.4-3.9,3.9-6.8,4.6l6.8,7.2c0.8,0.8,1.1,1.6,1.1,2.6
			s-0.4,1.9-1.1,2.6s-1.6,1.1-2.6,1.1c-0.9,0-1.9-0.4-2.6-1.1l-17.1-18v15.5c0,1.2-0.4,2.1-1.1,2.7s-1.6,0.9-2.6,0.9
			s-1.9-0.3-2.6-0.9c-0.8-0.7-1.1-1.6-1.1-2.7v-35h19.9c3.6,0,6.5,1.2,8.9,3.7C167.8,44.9,169,47.7,169,51.2 M161.5,51.3
			c0-1.5-0.6-2.7-1.7-3.7c-1.1-0.9-2.6-1.5-4.1-1.5h-11.5v11.1h10.7c2.3,0,4-0.4,4.9-1.1C160.9,55.3,161.5,53.6,161.5,51.3"/>
		<path id="XMLID_131_" class="st2" d="M195.6,77.4h-23.2V38.7h23.2c1.2,0,2.1,0.4,2.7,1.1c0.7,0.8,0.9,1.6,0.9,2.6
			s-0.3,1.9-0.9,2.6c-0.7,0.8-1.6,1-2.7,1h-15.8v5.9h9.5c1.2,0,2.1,0.4,2.7,1.1c0.7,0.8,0.9,1.6,0.9,2.6s-0.3,1.9-0.9,2.6
			c-0.7,0.8-1.5,1-2.7,1h-9.5v10.6h15.8c1.2,0,2.1,0.4,2.7,1.1c0.7,0.8,0.9,1.6,0.9,2.6s-0.3,1.9-0.9,2.6
			C197.8,77,196.8,77.4,195.6,77.4"/>
		<path id="XMLID_128_" class="st2" d="M238.7,57.9c0,4.1-1.1,7.7-3.4,11c-2.3,3.3-5.3,5.6-9.2,7c-2.9,1-6.1,1.6-9.7,1.6h-13.6V38.7
			h14c6.1,0,11.2,1.7,15.3,5C236.5,47.3,238.7,52,238.7,57.9 M231.2,57.8c0-3.8-1.5-6.7-4.4-8.8c-2.6-1.9-6-2.8-9.9-2.8h-6.5v23.7
			h6.1c2.6,0,5-0.4,7.1-1.1c2.4-0.9,4.3-2.4,5.6-4.3S231.2,60.4,231.2,57.8"/>
		<path id="XMLID_125_" class="st2" d="M274.4,51.3c0,3-0.8,5.7-2.4,7.9c-1.6,2.4-3.9,3.9-6.8,4.6l6.9,7.2c0.8,0.8,1.1,1.6,1.1,2.6
			s-0.4,1.9-1.1,2.6c-0.8,0.8-1.7,1.1-2.7,1.1s-1.9-0.4-2.6-1.1l-17.1-18v15.5c0,1.2-0.4,2.1-1.1,2.7c-0.8,0.7-1.6,0.9-2.6,0.9
			s-1.9-0.3-2.6-0.9c-0.8-0.7-1.1-1.6-1.1-2.7v-35H262c3.6,0,6.5,1.2,8.9,3.7C273.3,44.9,274.4,47.8,274.4,51.3 M266.8,51.3
			c0-1.5-0.6-2.7-1.7-3.7s-2.6-1.5-4.1-1.5h-11.5v11.1h10.7c2.3,0,4-0.4,4.9-1.1C266.4,55.3,266.8,53.7,266.8,51.3"/>
	</g>
</g>
</svg>
