<svg width="20" height="21" viewBox="0 0 20 21" fill="none" xmlns="http://www.w3.org/2000/svg">
<path d="M11 11.1232H9V5.12317H11M11 15.1232H9V13.1232H11M10 0.123169C8.68678 0.123169 7.38642 0.381827 6.17317 0.884374C4.95991 1.38692 3.85752 2.12352 2.92893 3.0521C1.05357 4.92746 0 7.471 0 10.1232C0 12.7753 1.05357 15.3189 2.92893 17.1942C3.85752 18.1228 4.95991 18.8594 6.17317 19.362C7.38642 19.8645 8.68678 20.1232 10 20.1232C12.6522 20.1232 15.1957 19.0696 17.0711 17.1942C18.9464 15.3189 20 12.7753 20 10.1232C20 8.80995 19.7413 7.50959 19.2388 6.29633C18.7362 5.08308 17.9997 3.98069 17.0711 3.0521C16.1425 2.12352 15.0401 1.38692 13.8268 0.884374C12.6136 0.381827 11.3132 0.123169 10 0.123169Z" fill="white"/>
</svg>
