<svg width="28" height="23" viewBox="0 0 28 23" fill="none" xmlns="http://www.w3.org/2000/svg">
<path d="M15.8788 10.5219C15.682 10.3404 15.3923 10.2866 15.0832 10.374C14.7633 10.4646 11.2658 11.8725 10.507 12.3114C10.0786 12.559 10.1409 12.8731 10.1699 12.9637C10.2784 13.2994 10.7341 13.4998 11.3918 13.4998L11.9472 13.4957C12.6752 13.4957 13.077 13.4957 14.2253 13.3133C15.4423 13.1202 15.764 12.1952 15.9564 11.6423C15.9764 11.5849 15.9957 11.5305 16.0146 11.4792C16.1609 11.0855 16.1112 10.7366 15.8788 10.5219ZM15.3513 11.2777C15.331 11.3325 15.3107 11.3911 15.2894 11.4522C15.1081 11.9728 14.903 12.5631 14.105 12.6898C13.0158 12.8627 12.6585 12.8627 11.9465 12.8627C11.9455 12.8627 11.9445 12.8627 11.9438 12.8627L11.3894 12.8664C11.18 12.8664 11.0362 12.8389 10.9456 12.8104C11.7649 12.3668 15.0003 11.0611 15.2929 10.9782C15.3468 10.9629 15.3773 10.9658 15.3787 10.9649C15.3912 10.9785 15.4262 11.0764 15.3513 11.2777Z" fill="#A7A3A3"/>
<path d="M17.6537 9.39605C17.1724 8.7358 16.3184 8.34155 15.3692 8.34155C15.0556 8.34155 14.7413 8.38746 14.4351 8.47741C14.0571 8.58855 11.9379 9.32228 10.5021 9.97715C9.06713 9.32228 6.94753 8.58855 6.5692 8.47711C6.26294 8.38716 5.949 8.34159 5.6354 8.34159C4.66661 8.34159 3.81119 8.73773 3.34746 9.40114C2.925 10.006 2.799 10.8616 2.97332 11.9449C2.97578 11.9611 2.97996 11.9772 2.98521 11.9927L3.07483 12.2613C3.31949 13.0194 3.89277 14.794 6.23743 15.1797C7.51318 15.3896 8.0438 15.3998 8.87153 15.3998H11.7916C12.6585 15.3998 13.171 15.3899 14.4488 15.1794C16.7504 14.801 17.644 13.1077 17.9712 12.1336L18.0195 11.9927C18.0255 11.9753 18.03 11.9576 18.0325 11.9395C18.1965 10.784 18.0761 9.97589 17.6537 9.39605ZM17.3418 11.8325L17.3019 11.9487C17.0205 12.786 16.2593 14.2385 14.3234 14.5568C13.105 14.7575 12.6172 14.7667 11.7915 14.7667H8.87145C8.06119 14.7667 7.58171 14.7572 6.36265 14.5568C4.44324 14.2411 3.99001 12.8376 3.74675 12.0839L3.66168 11.8296C3.51784 10.9119 3.61095 10.2089 3.93924 9.73994C4.27417 9.26116 4.9084 8.97519 5.63568 8.97519C5.87579 8.97519 6.11692 9.01067 6.35317 9.08003C6.72137 9.18831 8.96837 9.96954 10.3414 10.6143C10.4422 10.6614 10.5626 10.6614 10.6638 10.6143C12.0375 9.96924 14.2835 9.18802 14.6517 9.08003C14.8879 9.01038 15.129 8.97519 15.3691 8.97519C16.0824 8.97519 16.718 9.26305 17.0691 9.74503C17.3915 10.1871 17.4783 10.8508 17.3418 11.8325Z" fill="#A7A3A3"/>
<path d="M10.4891 12.311C9.73028 11.8724 6.23271 10.4645 5.91283 10.374C5.60378 10.2866 5.31396 10.3404 5.11729 10.5219C4.8849 10.7366 4.83556 11.0855 4.98149 11.4791C5.0004 11.5304 5.01931 11.5852 5.03924 11.6422C5.23173 12.1951 5.55337 13.1201 6.77035 13.3133C7.9187 13.496 8.32049 13.496 9.04848 13.496L9.60674 13.4998C10.2616 13.4998 10.7173 13.299 10.8261 12.9634C10.8552 12.8728 10.9175 12.5587 10.4891 12.311ZM9.60921 12.8665L9.05238 12.8627C9.05131 12.8627 9.05029 12.8627 9.04959 12.8627C8.33768 12.8627 7.98035 12.8627 6.89114 12.6898C6.09314 12.5631 5.88802 11.9729 5.70673 11.4523C5.68536 11.3912 5.6651 11.3326 5.6448 11.2778C5.5699 11.0764 5.60489 10.9785 5.61223 10.9684C5.61469 10.9674 5.62097 10.9665 5.63077 10.9665C5.64615 10.9665 5.67031 10.969 5.70287 10.9782C5.99548 11.0612 9.2312 12.3668 10.0502 12.8105C9.96026 12.8389 9.81711 12.8665 9.60921 12.8665Z" fill="#A7A3A3"/>
<path d="M16.27 8.60498L14.6775 4.83504C14.6376 4.74067 14.5504 4.66912 14.4427 4.64251L13.1281 4.31825C11.4088 3.89424 9.59202 3.89424 7.87281 4.31825L6.55822 4.64251C6.45043 4.66912 6.36327 4.74067 6.32336 4.83504L4.73052 8.60561C4.68434 8.71519 4.70882 8.83869 4.79389 8.92701C4.87896 9.01504 5.0109 9.05337 5.13723 9.0271C5.53168 8.94412 5.95135 8.96186 6.35277 9.07998C6.72097 9.18826 8.96797 9.96949 10.341 10.6142C10.3914 10.6376 10.4467 10.6497 10.502 10.6497C10.5573 10.6497 10.6126 10.6377 10.664 10.6142C12.0378 9.96919 14.2838 9.18797 14.652 9.07998C15.0517 8.96219 15.4689 8.94319 15.864 9.02647C15.99 9.05274 16.122 9.01411 16.207 8.92609C16.292 8.83773 16.3162 8.71423 16.27 8.60498ZM14.4349 8.47766C14.0569 8.5888 11.9377 9.32253 10.502 9.97739C9.06698 9.32253 6.94737 8.5888 6.56905 8.47736C6.26278 8.38744 5.94885 8.34184 5.63524 8.34184C5.62056 8.34184 5.60551 8.34184 5.59078 8.34217L6.91341 5.21129L8.05652 4.92915C9.65498 4.53456 11.3448 4.53456 12.9432 4.92915L14.0863 5.21129L15.4089 8.34217C15.0804 8.33738 14.7542 8.38396 14.4349 8.47766Z" fill="#A7A3A3"/>
<path d="M17.85 7.16626C16.7594 7.16626 15.75 7.35815 15.75 8.7496C15.75 8.92439 15.9068 9.06626 16.1 9.06626C16.2932 9.06626 16.45 8.92439 16.45 8.7496C16.45 7.98612 16.7247 7.7996 17.85 7.7996C18.0431 7.7996 18.1999 7.65774 18.1999 7.48295C18.2 7.30813 18.0432 7.16626 17.85 7.16626Z" fill="#A7A3A3"/>
<path d="M19.7165 6.21631H17.85C17.6568 6.21631 17.5 6.35818 17.5 6.53296V7.48296C17.5 8.18155 18.0757 8.74962 18.7835 8.74962H20.65C20.8432 8.74962 21 8.60775 21 8.43296V7.48296C21 6.78442 20.4243 6.21631 19.7165 6.21631ZM20.3 8.11631H18.7834C18.4618 8.11631 18.2 7.83227 18.2 7.48296V6.84965H19.7165C20.0382 6.84965 20.3 7.13369 20.3 7.483V8.11631Z" fill="#A7A3A3"/>
<path d="M3.15004 7.16626C2.95685 7.16626 2.80005 7.30813 2.80005 7.48291C2.80005 7.6577 2.95685 7.79957 3.15004 7.79957C4.2753 7.79957 4.55002 7.98608 4.55002 8.74957C4.55002 8.92435 4.70682 9.06622 4.90001 9.06622C5.09319 9.06622 5.24999 8.92435 5.24999 8.74957C5.25003 7.35815 4.24064 7.16626 3.15004 7.16626Z" fill="#A7A3A3"/>
<path d="M3.15 6.21631H1.28346C0.575736 6.21631 0 6.78442 0 7.48296V8.43296C0 8.60775 0.156803 8.74962 0.349986 8.74962H2.21653C2.92421 8.74962 3.49999 8.18121 3.49999 7.48296V6.53296C3.49999 6.35818 3.34318 6.21631 3.15 6.21631ZM2.80001 7.48296C2.80001 7.83224 2.53821 8.11631 2.21657 8.11631H0.700014V7.48296C0.700014 7.13369 0.961816 6.84962 1.28346 6.84962H2.80001V7.48296Z" fill="#A7A3A3"/>
<path d="M10.3974 5.67588C10.2609 5.55205 10.039 5.55205 9.90253 5.67588L8.85253 6.62588C8.71566 6.74972 8.71566 6.94985 8.85253 7.07365C8.92078 7.1354 9.0104 7.16642 9.09998 7.16642C9.1896 7.16642 9.27917 7.1354 9.34742 7.07365L10.3974 6.12365C10.5343 5.99985 10.5343 5.79972 10.3974 5.67588Z" fill="#A7A3A3"/>
<path d="M12.4975 5.99253C12.361 5.8687 12.1391 5.8687 12.0026 5.99253L9.5526 8.20919C9.41573 8.33302 9.41573 8.53315 9.5526 8.65695C9.62085 8.7187 9.71047 8.74972 9.80005 8.74972C9.88967 8.74972 9.97925 8.7187 10.0475 8.65695L12.4975 6.4403C12.6344 6.31646 12.6344 6.11633 12.4975 5.99253Z" fill="#A7A3A3"/>
<path d="M12.4957 14.8546C12.4289 14.7948 12.3323 14.7584 12.2448 14.7634C12.1009 14.7653 11.9532 14.7663 11.7915 14.7663L8.75001 14.7659C8.55683 14.7659 8.40002 14.9078 8.40002 15.0826V16.9639C8.40002 17.7974 8.89213 18.0343 9.18543 18.1014C9.61909 18.2008 10.0573 18.2505 10.4965 18.2505C10.9354 18.2505 11.3754 18.2008 11.814 18.1017C12.1076 18.0352 12.6001 17.7993 12.6001 16.9639V15.0801C12.6 14.9949 12.5626 14.9138 12.4957 14.8546ZM11.9 16.9639C11.9 17.4291 11.7072 17.4731 11.6438 17.4874C10.8805 17.6603 10.1112 17.6603 9.35692 17.4877C9.29359 17.4728 9.10004 17.4288 9.10004 16.964V15.3996H11.7915C11.8283 15.3996 11.8643 15.3996 11.9 15.3996V16.9639Z" fill="#A7A3A3"/>
<path d="M12.0722 17.4524C11.9627 17.3963 11.8276 17.3979 11.7194 17.4568C11.6907 17.4726 11.6673 17.4818 11.6438 17.4872C10.8801 17.6601 10.1108 17.6604 9.35691 17.4875C9.33312 17.4821 9.30966 17.4726 9.28025 17.4565C9.17209 17.3976 9.03699 17.396 8.92744 17.4521C8.81756 17.5084 8.74963 17.6139 8.74963 17.7279V21.8084C8.74963 22.4652 9.32537 22.9997 10.0331 22.9997H10.9665C11.6742 22.9997 12.25 22.4652 12.25 21.8084V17.7282C12.25 17.6142 12.1821 17.5087 12.0722 17.4524ZM11.5504 21.8084C11.5504 22.1159 11.2886 22.3664 10.9669 22.3664H10.0335C9.71186 22.3664 9.45006 22.1162 9.45006 21.8084V18.156C10.1448 18.2823 10.849 18.282 11.5504 18.1553V21.8084V21.8084Z" fill="#A7A3A3"/>
<path d="M14.5747 14.6305C14.4953 14.5704 14.3903 14.545 14.2881 14.5621C13.4085 14.7056 12.4264 14.755 12.2385 14.7635C12.0502 14.772 11.8983 14.9136 11.9 15.0834V16.964C11.9 17.1116 11.8766 17.3716 11.7201 17.4571C11.6144 17.5141 11.55 17.617 11.55 17.7284V20.1497C11.55 20.3245 11.7069 20.4663 11.9 20.4663H12.949C13.9146 20.4663 14.7 19.7557 14.7 18.8821V14.8737C14.7 14.7797 14.6542 14.6907 14.5747 14.6305ZM14 18.8821C14 19.4065 13.5286 19.8331 12.949 19.8331H12.25V17.8811C12.4341 17.7193 12.6 17.4406 12.6 16.9637V15.3779C12.9346 15.357 13.461 15.3164 14 15.2455V18.8821H14Z" fill="#A7A3A3"/>
<path d="M9.27996 17.4568C9.12352 17.3719 9.10006 17.1117 9.10006 16.9641V15.0827C9.10006 14.9083 8.94396 14.7664 8.75077 14.7661C8.12812 14.7648 7.64967 14.7531 6.70783 14.6106C6.60668 14.5951 6.50275 14.6211 6.42396 14.6812C6.34521 14.7414 6.30005 14.8297 6.30005 14.9228V18.8821C6.30005 19.7558 7.08546 20.4664 8.05109 20.4664H9.10002C9.2932 20.4664 9.45001 20.3245 9.45001 20.1494V17.7282C9.45005 17.6171 9.38565 17.5141 9.27996 17.4568ZM8.75003 19.8331H8.05109C7.4715 19.8331 7.00002 19.4065 7.00002 18.8821V15.293C7.57998 15.3687 7.98214 15.3902 8.40001 15.3969V16.964C8.40001 17.4409 8.56592 17.7193 8.74999 17.8814V19.8331H8.75003Z" fill="#A7A3A3"/>
<path fill-rule="evenodd" clip-rule="evenodd" d="M18 5C18 3.67392 18.5268 2.40215 19.4645 1.46447C20.4021 0.526784 21.6739 0 23 0C24.3261 0 25.5979 0.526784 26.5355 1.46447C27.4732 2.40215 28 3.67392 28 5C28 6.32608 27.4732 7.59785 26.5355 8.53553C25.5979 9.47322 24.3261 10 23 10C21.6739 10 20.4021 9.47322 19.4645 8.53553C18.5268 7.59785 18 6.32608 18 5V5ZM22.7147 7.14L25.5933 3.54133L25.0733 3.12533L22.6187 6.19267L20.88 4.744L20.4533 5.256L22.7147 7.14067V7.14Z" fill="#A7A3A3"/>
</svg>
