<svg width="20" height="18" viewBox="0 0 20 18" fill="none" xmlns="http://www.w3.org/2000/svg">
<path d="M19.9 9.00001C19.9 8.89001 19.84 8.78001 19.81 8.67001C19.7637 8.47595 19.7036 8.28546 19.63 8.10001C19.58 7.98001 19.51 7.86001 19.45 7.73001C19.39 7.60001 19.3 7.43001 19.21 7.29001C19.12 7.15001 19 7.08001 19 7.00001C19 6.92001 18.8 6.75001 18.69 6.63001C18.58 6.51001 18.48 6.43001 18.37 6.33001L18 6.00001L17.64 5.76001C17.4987 5.67353 17.3517 5.59668 17.2 5.53001L16.81 5.35001C16.6467 5.28952 16.4797 5.23942 16.31 5.20001C16.1756 5.16047 16.0386 5.1304 15.9 5.11001L15.67 5.00001C15.262 3.82106 14.4966 2.79863 13.4803 2.07497C12.4641 1.35132 11.2476 0.962433 10 0.962433C8.75244 0.962433 7.5359 1.35132 6.51966 2.07497C5.50343 2.79863 4.73804 3.82106 4.33 5.00001L4.15 5.05001C4.0114 5.0704 3.8744 5.10048 3.74 5.14001C3.57034 5.17942 3.40334 5.22952 3.24 5.29001L2.85 5.47001C2.69832 5.53669 2.55132 5.61353 2.41 5.70001L2.05 6.00001L1.68 6.31001C1.57 6.41001 1.46 6.50001 1.36 6.61001C1.26 6.72001 1.15 6.86001 1.05 6.98001C0.95 7.10001 0.87 7.21001 0.79 7.34001C0.71 7.47001 0.63 7.63001 0.55 7.78001C0.47 7.93001 0.42 8.03001 0.37 8.15001C0.296442 8.33546 0.236288 8.52595 0.19 8.72001C0.19 8.83001 0.12 8.94001 0.0999999 9.05001C0.0377566 9.36296 0.00428374 9.68096 0 10C0.0046879 10.3053 0.0347918 10.6097 0.0899999 10.91C0.0899999 11.01 0.14 11.1 0.16 11.2C0.209427 11.3965 0.269516 11.5901 0.34 11.78L0.46 12.07C0.548028 12.2628 0.64823 12.4499 0.76 12.63L0.9 12.85C0.914387 12.878 0.931113 12.9048 0.95 12.93L1 13C1.46574 13.621 2.06966 14.125 2.76393 14.4721C3.45821 14.8193 4.22377 15 5 15H8V13.63C7.69616 13.8063 7.35126 13.8994 7 13.9C6.45825 13.8949 5.94054 13.6756 5.56 13.29C5.37729 13.101 5.23364 12.8778 5.13726 12.6332C5.04087 12.3887 4.99365 12.1275 4.9983 11.8646C5.00294 11.6018 5.05936 11.3425 5.16432 11.1014C5.26928 10.8604 5.42073 10.6424 5.61 10.46L8.61 7.56001C8.98325 7.20026 9.4816 6.99948 10 7.00001C10.5296 7.00224 11.0366 7.21442 11.41 7.59001L14.41 10.59C14.7825 10.9647 14.9916 11.4716 14.9916 12C14.9916 12.5284 14.7825 13.0353 14.41 13.41C14.0366 13.7856 13.5296 13.9978 13 14C12.6482 14.0033 12.3023 13.9099 12 13.73V15H15C15.7762 15 16.5418 14.8193 17.2361 14.4721C17.9303 14.125 18.5343 13.621 19 13L19.05 12.95C19.0689 12.9248 19.0856 12.898 19.1 12.87L19.24 12.65C19.3518 12.4699 19.452 12.2828 19.54 12.09L19.66 11.8C19.7305 11.6101 19.7906 11.4165 19.84 11.22C19.84 11.12 19.89 11.03 19.91 10.93C19.9663 10.6231 19.9964 10.312 20 10C19.9988 9.66424 19.9654 9.32936 19.9 9.00001V9.00001Z" fill="#5498FF"/>
<path d="M10.71 8.29001C10.523 8.10678 10.2717 8.00415 10.01 8.00415C9.7482 8.00415 9.49688 8.10678 9.30996 8.29001L6.30996 11.19C6.20385 11.2776 6.11694 11.3861 6.05468 11.5088C5.99242 11.6314 5.95614 11.7656 5.94812 11.903C5.94009 12.0403 5.96048 12.1778 6.00803 12.3069C6.05557 12.436 6.12924 12.5539 6.22442 12.6532C6.31961 12.7526 6.43426 12.8312 6.56122 12.8842C6.68818 12.9371 6.8247 12.9634 6.96225 12.9612C7.0998 12.959 7.23543 12.9285 7.36064 12.8715C7.48586 12.8145 7.59796 12.7323 7.68995 12.63L8.99996 11.36V17C8.99996 17.2652 9.10531 17.5196 9.29285 17.7071C9.48039 17.8947 9.73474 18 9.99996 18C10.2652 18 10.5195 17.8947 10.7071 17.7071C10.8946 17.5196 11 17.2652 11 17V11.41L12.29 12.71C12.3829 12.8037 12.4935 12.8781 12.6154 12.9289C12.7372 12.9797 12.8679 13.0058 13 13.0058C13.132 13.0058 13.2627 12.9797 13.3845 12.9289C13.5064 12.8781 13.617 12.8037 13.71 12.71C13.8037 12.617 13.8781 12.5064 13.9288 12.3846C13.9796 12.2627 14.0058 12.132 14.0058 12C14.0058 11.868 13.9796 11.7373 13.9288 11.6154C13.8781 11.4936 13.8037 11.383 13.71 11.29L10.71 8.29001Z" fill="#5498FF"/>
</svg>
