<svg width="40" height="42" viewBox="0 0 40 42" fill="none" xmlns="http://www.w3.org/2000/svg">
<path d="M19.0277 7.59995C18.5873 8.07267 18.624 9.1454 19.0827 9.5454C19.9635 10.3272 21.2846 9.72722 21.2846 8.5454C21.2846 8.12722 21.1561 7.76358 20.9543 7.58177C20.4956 7.16358 19.3946 7.18177 19.0277 7.59995ZM20.4589 8.5454C20.4589 8.87267 20.3488 9.01813 20.0368 9.05449C19.5965 9.12722 19.3396 8.72722 19.5231 8.25449C19.5781 8.09086 19.7983 7.99995 20.0368 8.03631C20.3488 8.07267 20.4589 8.21813 20.4589 8.5454Z" fill="#A7A3A3"/>
<path d="M17.6148 10.4C17.3396 10.8545 17.2479 11.2545 17.2846 12L17.3396 13H20.0002H22.6607L22.7158 12.1091C22.8075 10.6727 22.147 9.49091 21.5598 10.0727C21.3029 10.3273 21.3029 10.3818 21.6515 10.7273C21.8717 10.9455 22.0185 11.3273 22.0185 11.7273V12.3636H20.0002H17.9818V11.7273C17.9818 11.3273 18.1286 10.9455 18.3488 10.7273C18.6791 10.4 18.6974 10.3091 18.4589 10.0909C18.0919 9.70909 18.0185 9.74545 17.6148 10.4Z" fill="#A7A3A3"/>
<path d="M14.6974 11.3999C14.0552 11.7817 13.1011 12.5635 12.5689 13.1272C11.0827 14.709 10.0368 17.0908 10.8075 17.0908C10.9176 17.0908 11.2478 16.5635 11.5598 15.909C12.2754 14.3999 13.78 12.7999 15.2112 11.9999C16.2387 11.4181 16.5506 10.9454 16.0552 10.7817C15.9451 10.7454 15.3396 11.0363 14.6974 11.3999Z" fill="#A7A3A3"/>
<path d="M23.7249 11.0181C23.6515 11.1999 23.6882 11.3636 23.8166 11.4181C23.9267 11.4545 24.4955 11.7817 25.0827 12.1635C26.4772 13.0545 27.7616 14.4908 28.4588 15.9272C28.7524 16.5635 29.0827 17.0908 29.1928 17.0908C29.9818 17.0908 28.9176 14.709 27.4313 13.1272C26.8992 12.5635 26.0185 11.8363 25.4864 11.509C24.0919 10.6908 23.8717 10.6363 23.7249 11.0181Z" fill="#A7A3A3"/>
<path d="M19.0826 15.4C17.7431 16.0728 17.6881 17.9637 18.9725 18.7455C19.6881 19.1818 20.3119 19.1818 21.0275 18.7455C21.8349 18.2546 22.1284 17.4546 21.8532 16.5273C21.4862 15.3273 20.2385 14.8182 19.0826 15.4ZM20.4587 16C21.4128 16.3637 21.4128 17.7818 20.4587 18.2182C19.5046 18.6546 18.5138 17.6364 18.8991 16.6364C19.0459 16.2546 19.3394 16.0364 19.945 15.8364C19.9633 15.8182 20.1835 15.8909 20.4587 16Z" fill="#A7A3A3"/>
<path d="M8.9909 18.5819C8.18356 19.4546 8.78906 20.8 10.0001 20.8C10.8074 20.8 11.3762 20.2546 11.3762 19.4728C11.3762 18.3455 9.77989 17.7637 8.9909 18.5819ZM10.5322 19.2C10.7157 19.6546 10.6606 19.8 10.2936 19.9819C9.79824 20.2546 9.26613 19.8182 9.43126 19.3091C9.5964 18.8364 10.367 18.7637 10.5322 19.2Z" fill="#A7A3A3"/>
<path d="M28.9909 18.5819C28.1836 19.4546 28.7891 20.8 30.0001 20.8C30.4955 20.8 30.7891 20.691 31.0276 20.3819C31.7799 19.4546 31.1927 18.1819 30.0001 18.1819C29.5964 18.1819 29.2478 18.3273 28.9909 18.5819ZM30.5322 19.2C30.7157 19.6546 30.6606 19.8 30.2936 19.9819C29.7982 20.2546 29.2661 19.8182 29.4313 19.3091C29.5964 18.8364 30.367 18.7637 30.5322 19.2Z" fill="#A7A3A3"/>
<path d="M16.9909 19.4908C16.0184 20.2726 15.5964 21.2544 15.5964 22.7635C15.5964 24.6908 15.2294 24.5453 20 24.5453C24.7707 24.5453 24.4037 24.6908 24.4037 22.7453C24.4037 21.2726 23.9083 20.1999 22.8808 19.3817C22.2202 18.8544 22.1835 18.8544 21.8716 19.1635C21.6331 19.4181 21.6147 19.5272 21.7982 19.5817C22.312 19.7635 23.1744 20.6544 23.4129 21.2181C23.5597 21.5453 23.6698 22.2544 23.6698 22.8181V23.8181H20H16.3303V22.8181C16.3303 22.2544 16.4404 21.5453 16.5872 21.2181C16.8257 20.6363 17.7065 19.7635 18.2019 19.5999C18.3854 19.5272 18.3854 19.4544 18.1835 19.2181C17.8532 18.7999 17.8166 18.8181 16.9909 19.4908Z" fill="#A7A3A3"/>
<path d="M19.0092 20.1271C18.9358 20.2907 18.8441 20.8907 18.7707 21.4362L18.679 22.4544L19.3762 22.7816C20.0368 23.1089 20.0918 23.1089 20.679 22.7816C21.3579 22.418 21.3946 22.1998 21.0826 20.7271C20.9358 19.9998 20.8074 19.818 20.5138 19.818C20.1835 19.818 20.1652 19.8907 20.2936 20.5816C20.5322 21.9453 20.4955 22.0907 20.0001 22.0907C19.4863 22.0907 19.4312 21.7998 19.7065 20.4907C19.8166 19.9089 19.7982 19.818 19.4863 19.818C19.2845 19.818 19.0643 19.9635 19.0092 20.1271Z" fill="#A7A3A3"/>
<path d="M7.7432 21.1817C7.30283 21.7271 7.10099 22.5817 7.19274 23.3817L7.24778 23.9089H10.0001H12.7524L12.8074 23.2726C12.8992 22.4544 12.5872 21.418 12.1469 21.018C11.8349 20.7453 11.7799 20.7453 11.5597 20.9998C11.3579 21.2362 11.3762 21.3453 11.6331 21.618C11.7982 21.7998 12.0001 22.2544 12.0551 22.618L12.1652 23.2726H10.0001H7.83494L7.94503 22.618C8.00008 22.2544 8.20191 21.7998 8.36705 21.5998C8.66063 21.2907 8.66063 21.2362 8.40375 20.9817C8.14687 20.7271 8.09182 20.7453 7.7432 21.1817Z" fill="#A7A3A3"/>
<path d="M27.7432 21.1817C27.3028 21.7271 27.101 22.5817 27.1927 23.3817L27.2478 23.9089H30.0001H32.7524L32.8074 23.2726C32.8992 22.4544 32.5872 21.418 32.1469 21.018C31.8349 20.7453 31.7799 20.7453 31.5597 20.9998C31.3579 21.2362 31.3762 21.3453 31.6331 21.618C31.7982 21.7998 32.0001 22.2544 32.0551 22.618L32.1652 23.2726H30.0001H27.8349L27.945 22.618C28.0001 22.2544 28.2019 21.7998 28.367 21.5998C28.6606 21.2907 28.6606 21.2362 28.4037 20.9817C28.1469 20.7271 28.0918 20.7453 27.7432 21.1817Z" fill="#A7A3A3"/>
<path d="M10.5322 25.4727C10.8258 26.9636 12.4405 29.0182 14.257 30.2363C15.6331 31.1636 16.2019 31.3454 16.2937 30.8909C16.3304 30.6909 16.0001 30.4 15.3028 30C13.8166 29.1818 12.4405 27.7454 11.6698 26.2182C11.2478 25.4 10.8992 24.9091 10.7157 24.9091C10.4771 24.9091 10.4405 25.0363 10.5322 25.4727Z" fill="#A7A3A3"/>
<path d="M28.3303 26.2183C27.5597 27.7455 26.1836 29.1819 24.6973 30.0001C24.0001 30.4001 23.6698 30.691 23.7065 30.891C23.7432 31.0728 23.9267 31.1637 24.1285 31.1274C24.7157 31.0364 26.9175 29.4728 27.6331 28.6546C28.9909 27.091 29.945 24.9092 29.2845 24.9092C29.101 24.9092 28.7524 25.4001 28.3303 26.2183Z" fill="#A7A3A3"/>
<path d="M19.0827 27.091C18.5322 27.6364 18.5873 28.6 19.1928 29.0728C19.468 29.291 19.8166 29.4546 20.0001 29.4546C20.1836 29.4546 20.5322 29.291 20.8074 29.0728C21.3946 28.6182 21.4863 27.5091 20.9542 27.0364C20.4955 26.6182 19.523 26.6546 19.0827 27.091ZM20.5139 27.9273C20.5873 28.4546 20.0918 28.8546 19.7249 28.5455C19.4313 28.3091 19.3579 27.7819 19.5781 27.5637C19.835 27.3091 20.4588 27.5455 20.5139 27.9273Z" fill="#A7A3A3"/>
<path d="M17.523 30C17.3762 30.2909 17.2478 30.9818 17.2478 31.5454V32.5454H20.0001H22.7524V31.5454C22.7524 30.0181 22.1285 29.0545 21.523 29.6545C21.3579 29.8181 21.4129 29.9636 21.6698 30.2363C21.8717 30.4545 22.0184 30.8727 22.0184 31.2181V31.8181H20.0001H17.9817V31.2181C17.9817 30.8727 18.1285 30.4545 18.3304 30.2363C18.5873 29.9636 18.6423 29.8181 18.4772 29.6545C18.1285 29.309 17.8166 29.4181 17.523 30Z" fill="#A7A3A3"/>
</svg>
