<?xml version="1.0" encoding="UTF-8"?>
<svg width="21px" height="22px" viewBox="0 0 21 22" version="1.1" xmlns="http://www.w3.org/2000/svg" xmlns:xlink="http://www.w3.org/1999/xlink">
    <!-- Generator: Sketch 58 (84663) - https://sketch.com -->
    <title>calendar-interface-symbol-tool (2)</title>
    <desc>Created with Sketch.</desc>
    <g id="Page-1" stroke="none" stroke-width="1" fill="none" fill-rule="evenodd">
        <g id="Credr-Pro" transform="translate(-549.000000, -86.000000)" fill="#B4B4B4" fill-rule="nonzero">
            <g id="right-block" transform="translate(270.000000, 78.000000)">
                <g id="Filters" transform="translate(10.000000, 0.000000)">
                    <g id="date" transform="translate(105.000000, 0.000000)">
                        <g id="calendar-interface-symbol-tool-(2)" transform="translate(164.000000, 8.000000)">
                            <path d="M17.534399,2.36879986 L16.875599,2.36879986 L16.875599,1.6499999 C16.875599,0.739799956 16.157399,0 15.2735991,0 C14.3891991,0 13.6715992,0.739799956 13.6715992,1.6499999 L13.6715992,2.36819986 L12.0275993,2.36819986 L12.0275993,1.6499999 C12.0275993,0.739799956 11.3093993,0 10.4255994,0 C9.54179943,0 8.82359947,0.739799956 8.82359947,1.6499999 L8.82359947,2.36819986 L7.17959957,2.36819986 L7.17959957,1.6499999 C7.17959957,0.739799956 6.46139961,0 5.57759967,0 C4.69379972,0 3.97559976,0.739799956 3.97559976,1.6499999 L3.97559976,2.36819986 L3.13439981,2.36819986 C1.7285999,2.36819986 0.584399965,3.51239979 0.584399965,4.91819971 L0.584399965,19.3181988 C0.584399965,20.7239988 1.7285999,21.8681987 3.13439981,21.8681987 L17.534399,21.8681987 C18.9407989,21.8681987 20.0844,20.7239988 20.0844,19.3181988 L20.0844,4.91819971 C20.0844,3.51299979 18.9401989,2.36879986 17.534399,2.36879986 Z M14.5715991,1.6499999 C14.5715991,1.23659993 14.8865991,0.899999946 15.2735991,0.899999946 C15.6611991,0.899999946 15.975599,1.23659993 15.975599,1.6499999 L15.975599,4.58759973 C15.975599,5.0009997 15.6611991,5.33759968 15.2735991,5.33759968 C14.8865991,5.33759968 14.5715991,5.0009997 14.5715991,4.58759973 L14.5715991,1.6499999 Z M9.72359942,1.6499999 C9.72359942,1.23659993 10.0385994,0.899999946 10.4255994,0.899999946 C10.8125994,0.899999946 11.1275993,1.23659993 11.1275993,1.6499999 L11.1275993,4.58759973 C11.1275993,5.0009997 10.8125994,5.33759968 10.4255994,5.33759968 C10.0385994,5.33759968 9.72359942,5.0009997 9.72359942,4.58759973 L9.72359942,1.6499999 L9.72359942,1.6499999 Z M4.87499971,1.6499999 C4.87499971,1.23659993 5.18999969,0.899999946 5.57699967,0.899999946 C5.96399964,0.899999946 6.27899963,1.23659993 6.27899963,1.6499999 L6.27899963,4.58759973 C6.27899963,5.0009997 5.96399964,5.33759968 5.57699967,5.33759968 C5.18999969,5.33759968 4.87499971,5.0009997 4.87499971,4.58759973 L4.87499971,1.6499999 Z M18.5843999,19.3187988 C18.5843999,19.8977988 18.1133989,20.3687988 17.534399,20.3687988 L3.13439981,20.3687988 C2.55539985,20.3687988 2.08439988,19.8977988 2.08439988,19.3187988 L2.08439988,6.11879964 L18.5843999,6.11879964 L18.5843999,19.3187988 Z" id="Shape"></path>
                            <rect id="Rectangle" x="3.4343998" y="8.77559948" width="2.75699984" height="2.45339985"></rect>
                            <rect id="Rectangle" x="7.11419958" y="8.77559948" width="2.75759984" height="2.45339985"></rect>
                            <rect id="Rectangle" x="10.7969994" y="8.77559948" width="2.75699984" height="2.45339985"></rect>
                            <rect id="Rectangle" x="14.4767991" y="8.77559948" width="2.75759984" height="2.45339985"></rect>
                            <rect id="Rectangle" x="3.4343998" y="12.0503993" width="2.75699984" height="2.45159985"></rect>
                            <rect id="Rectangle" x="7.11419958" y="12.0503993" width="2.75759984" height="2.45159985"></rect>
                            <rect id="Rectangle" x="10.7969994" y="12.0503993" width="2.75699984" height="2.45159985"></rect>
                            <rect id="Rectangle" x="14.4767991" y="12.0503993" width="2.75759984" height="2.45159985"></rect>
                            <rect id="Rectangle" x="3.4343998" y="15.3239991" width="2.75699984" height="2.45159985"></rect>
                            <rect id="Rectangle" x="7.11419958" y="15.3239991" width="2.75759984" height="2.45159985"></rect>
                            <rect id="Rectangle" x="10.7969994" y="15.3239991" width="2.75699984" height="2.45159985"></rect>
                            <rect id="Rectangle" x="14.4767991" y="15.3239991" width="2.75759984" height="2.45159985"></rect>
                        </g>
                    </g>
                </g>
            </g>
        </g>
    </g>
</svg>