<?xml version="1.0" encoding="UTF-8"?>
<svg width="21px" height="21px" viewBox="0 0 21 21" version="1.1" xmlns="http://www.w3.org/2000/svg" xmlns:xlink="http://www.w3.org/1999/xlink">
    <!-- Generator: Sketch 60.1 (88133) - https://sketch.com -->
    <title>phone-call</title>
    <desc>Created with Sketch.</desc>
    <g id="Page-1" stroke="none" stroke-width="1" fill="none" fill-rule="evenodd">
        <g id="Approved-QC" transform="translate(-751.000000, -369.000000)" fill="#111328" fill-rule="nonzero">
            <g id="right-block" transform="translate(267.000000, 84.000000)">
                <g id="table" transform="translate(0.000000, 190.000000)">
                    <g id="row" transform="translate(3.000000, 84.000000)">
                        <g id="phone-call" transform="translate(481.000000, 11.000000)">
                            <path d="M17.4796796,2.99811993 C13.4801197,-1.00023998 6.99647984,-0.999279978 2.99811993,3.00031993 C-1.00023998,6.99991984 -0.999279978,13.4835197 3.00031993,17.4818796 C6.99991984,21.4802395 13.4835197,21.4792795 17.4818796,17.4796796 C19.4021196,15.5588397 20.4805995,12.9538397 20.4799998,10.2377998 C20.4794395,7.52219983 19.4001996,4.91803989 17.4796796,2.99811993 Z M15.5081197,14.2641997 C15.5076797,14.2646397 15.5072397,14.2651197 15.5067597,14.2655597 L15.5067597,14.2621597 L14.9879197,14.7775597 C14.3169197,15.4570397 13.3396797,15.7365996 12.4108397,15.5148397 C11.4750397,15.2643597 10.5854398,14.8656397 9.77575978,14.3338397 C9.0235198,13.8530797 8.32639981,13.2910797 7.69703983,12.6578797 C7.11795984,12.0830397 6.59771985,11.4518397 6.14395986,10.7737198 C5.64763987,10.0440398 5.25479988,9.24915979 4.97659989,8.41167981 C4.6576799,7.42783983 4.92195989,6.34827986 5.65927987,5.62299987 L6.26683986,5.01543989 C6.43575986,4.84575989 6.71023985,4.84515989 6.87987985,5.01407989 C6.88031985,5.01451989 6.88079985,5.01495989 6.88123985,5.01543989 L8.7995198,6.93371985 C8.9691998,7.10263984 8.9697998,7.37711984 8.8008798,7.54675983 C8.8004398,7.54719983 8.7999998,7.54763983 8.7995198,7.54811983 L7.67311983,8.67451981 C7.34991984,8.9941998 7.30927984,9.50219979 7.57755983,9.86919978 C7.98495982,10.4283198 8.43579981,10.9544398 8.9258398,11.4427597 C9.47219979,11.9914797 10.0661598,12.4906397 10.7007598,12.9343997 C11.0674398,13.1901597 11.5645597,13.1470397 11.8817597,12.8319997 L12.9705997,11.7260797 C13.1395197,11.5563997 13.4139997,11.5557997 13.5836397,11.7247197 C13.5840797,11.7251597 13.5845197,11.7255997 13.5849997,11.7260797 L15.5067197,13.6511997 C15.6764396,13.8200797 15.6770396,14.0945197 15.5081197,14.2641997 Z" id="Shape"></path>
                        </g>
                    </g>
                </g>
            </g>
        </g>
    </g>
</svg>