<svg id="call" xmlns="http://www.w3.org/2000/svg" width="17.007" height="17.007" viewBox="0 0 17.007 17.007">
  <g id="Group_2" data-name="Group 2">
    <path id="Path_4" data-name="Path 4" d="M15.642,11.163a9.656,9.656,0,0,1-3.032-.483,1.386,1.386,0,0,0-1.348.284L9.35,12.408A10.568,10.568,0,0,1,4.6,7.657L6,5.8A1.375,1.375,0,0,0,6.337,4.4a9.671,9.671,0,0,1-.485-3.037A1.366,1.366,0,0,0,4.488,0H1.365A1.366,1.366,0,0,0,0,1.365,15.66,15.66,0,0,0,15.642,17.007a1.366,1.366,0,0,0,1.365-1.365V12.528A1.366,1.366,0,0,0,15.642,11.163Z" fill="#fff"/>
  </g>
</svg>
