<?xml version="1.0" encoding="UTF-8"?>
<svg width="18px" height="18px" viewBox="0 0 18 18" version="1.1" xmlns="http://www.w3.org/2000/svg" xmlns:xlink="http://www.w3.org/1999/xlink">
    <!-- Generator: Sketch 58 (84663) - https://sketch.com -->
    <title>cancel (1)</title>
    <desc>Created with Sketch.</desc>
    <g id="Page-1" stroke="none" stroke-width="1" fill="none" fill-rule="evenodd">
        <g id="Credr-Pro-valuator-popup" transform="translate(-958.000000, -228.000000)" fill="#333" fill-rule="nonzero">
            <g id="popup" transform="translate(445.000000, 210.000000)">
                <g id="cancel-(1)" transform="translate(513.000000, 18.000000)">
                    <path d="M11.5363636,9.24545455 C11.3727273,9.08181818 11.3727273,8.83636364 11.5363636,8.67272727 L17.6727273,2.53636364 C17.8363636,2.37272727 17.9181818,2.12727273 17.9181818,1.96363636 C17.9181818,1.8 17.8363636,1.55454545 17.6727273,1.39090909 L16.5272727,0.245454545 C16.3636364,0.0818181818 16.1181818,0 15.9545455,0 C15.7090909,0 15.5454545,0.0818181818 15.3818182,0.245454545 L9.24545455,6.38181818 C9.08181818,6.54545455 8.83636364,6.54545455 8.67272727,6.38181818 L2.53636364,0.245454545 C2.37272727,0.0818181818 2.12727273,0 1.96363636,0 C1.8,0 1.55454545,0.0818181818 1.39090909,0.245454545 L0.245454545,1.39090909 C0.0818181818,1.55454545 0,1.8 0,1.96363636 C0,2.12727273 0.0818181818,2.37272727 0.245454545,2.53636364 L6.38181818,8.67272727 C6.54545455,8.83636364 6.54545455,9.08181818 6.38181818,9.24545455 L0.245454545,15.3818182 C0.0818181818,15.5454545 0,15.7909091 0,15.9545455 C0,16.1181818 0.0818181818,16.3636364 0.245454545,16.5272727 L1.39090909,17.6727273 C1.55454545,17.8363636 1.8,17.9181818 1.96363636,17.9181818 C2.12727273,17.9181818 2.37272727,17.8363636 2.53636364,17.6727273 L8.67272727,11.5363636 C8.83636364,11.3727273 9.08181818,11.3727273 9.24545455,11.5363636 L15.3818182,17.6727273 C15.5454545,17.8363636 15.7909091,17.9181818 15.9545455,17.9181818 C16.1181818,17.9181818 16.3636364,17.8363636 16.5272727,17.6727273 L17.6727273,16.5272727 C17.8363636,16.3636364 17.9181818,16.1181818 17.9181818,15.9545455 C17.9181818,15.7909091 17.8363636,15.5454545 17.6727273,15.3818182 L11.5363636,9.24545455 Z" id="Path"></path>
                </g>
            </g>
        </g>
    </g>
</svg>