<?xml version="1.0" encoding="UTF-8"?>
<svg width="20px" height="16px" viewBox="0 0 20 16" version="1.1" xmlns="http://www.w3.org/2000/svg" xmlns:xlink="http://www.w3.org/1999/xlink">
    <!-- Generator: Sketch 58 (84663) - https://sketch.com -->
    <title>dashboard</title>
    <desc>Created with Sketch.</desc>
    <g id="Page-1" stroke="none" stroke-width="1" fill="none" fill-rule="evenodd">
        <g id="Credr-Pro" transform="translate(-25.000000, -86.000000)" fill="#A0A0A0" fill-rule="nonzero">
            <g id="left-nav" transform="translate(0.000000, 50.000000)">
                <g id="dashboard" transform="translate(25.000000, 36.000000)">
                    <path d="M18.7297557,5.9949886 C18.2147418,4.79049424 17.5218307,3.75314783 16.6512129,2.88233947 C15.7806333,2.01168358 14.7430581,1.3188487 13.5385257,0.803758597 C12.3339551,0.288668493 11.071788,0.0310662646 9.75114776,0.0310662646 C8.43058374,0.0310662646 7.16818797,0.288706612 5.9638461,0.803758597 C4.75950422,1.31903929 3.72200533,2.01168358 2.85138756,2.88233947 C1.9805792,3.75314783 1.28785867,4.79049424 0.772654214,5.9949886 C0.257564111,7.19948295 0,8.46176436 0,9.78229026 C0,11.6830501 0.511468882,13.4354543 1.53448288,15.0388928 C1.67224175,15.2493048 1.86816887,15.3544346 2.12214988,15.3544346 L17.3801075,15.3544346 C17.6339742,15.3544346 17.8299013,15.2492667 17.9676602,15.0388928 C18.9907504,13.4282499 19.5022193,11.6759602 19.5022193,9.78229026 C19.5022193,8.46176436 19.2447695,7.19948295 18.7297557,5.9949886 Z M8.76613752,1.83229972 C9.03837711,1.56017449 9.36657409,1.42409282 9.75110964,1.42409282 C10.1356833,1.42409282 10.4638803,1.56021261 10.7360055,1.83229972 C11.0081308,2.10427248 11.1442887,2.43262194 11.1442887,2.81715749 C11.1442887,3.20169305 11.0081308,3.52992814 10.7360055,3.80201526 C10.4638803,4.07410237 10.1356833,4.21022216 9.75110964,4.21022216 C9.36657409,4.21022216 9.03822463,4.07410237 8.76613752,3.80201526 C8.49416476,3.52989003 8.35800685,3.20169305 8.35800685,2.81715749 C8.35800685,2.43262194 8.49401229,2.1043106 8.76613752,1.83229972 Z M3.77098711,10.7671861 C3.4989,11.0391589 3.17055055,11.1756218 2.78601499,11.1756218 C2.40159379,11.1756218 2.07324434,11.0391589 1.80115722,10.7671861 C1.52903199,10.4953277 1.39310279,10.1668639 1.39310279,9.78229026 C1.39310279,9.3977547 1.52903199,9.06955772 1.80115722,8.79743249 C2.07328245,8.52530726 2.40159379,8.38926371 2.78601499,8.38926371 C3.17055055,8.38926371 3.49905247,8.52530726 3.77098711,8.79743249 C4.04295987,9.06955772 4.17911778,9.3977547 4.17911778,9.78229026 C4.17911778,10.1668639 4.04295987,10.4950609 3.77098711,10.7671861 Z M5.86058412,5.89161227 C5.58834453,6.16366126 5.26014755,6.29981917 4.87557388,6.29981917 C4.49100021,6.29981917 4.16268887,6.16350879 3.89056364,5.89161227 C3.61859088,5.61963951 3.48247109,5.29129005 3.48247109,4.9067545 C3.48247109,4.52221894 3.61843841,4.19398385 3.89056364,3.92189673 C4.16280323,3.6497715 4.49100021,3.51368983 4.87557388,3.51368983 C5.26010944,3.51368983 5.58845889,3.64980962 5.86058412,3.92189673 C6.13255688,4.19402196 6.26867667,4.52221894 6.26867667,4.9067545 C6.26867667,5.2911757 6.13251876,5.61948703 5.86058412,5.89161227 Z M12.0255795,5.98416305 L10.9262912,10.141401 C11.2893281,10.387949 11.5505134,10.7179757 11.7101521,11.1317097 C11.8695621,11.5452531 11.89148,11.9696984 11.7753722,12.4050072 C11.6302946,12.9637045 11.307358,13.3881878 10.8066765,13.6782667 C10.3059951,13.9685742 9.77649631,14.0411893 9.21768472,13.8959974 C8.65913997,13.7509198 8.23458039,13.4280975 7.94446341,12.927416 C7.65434502,12.4266202 7.58180765,11.8971977 7.7268852,11.338348 C7.84291675,10.9031916 8.07147297,10.5458724 8.41251576,10.2667334 C8.75344419,9.98721325 9.14156285,9.82959484 9.57687173,9.79323016 L10.6760838,5.63591594 C10.7268191,5.4473075 10.8356463,5.30386903 11.0024512,5.20590547 C11.1694466,5.10813251 11.3434177,5.08453739 11.5248981,5.1352726 C11.7064928,5.18612217 11.8460432,5.29304349 11.9438543,5.45622714 C12.0420465,5.61963951 12.0691485,5.79555461 12.0255795,5.98416305 Z M13.6417876,5.89161227 C13.3696624,5.61963951 13.2335045,5.29129005 13.2335045,4.9067545 C13.2335045,4.52221894 13.3696624,4.19398385 13.6417876,3.92189673 C13.9139129,3.64980962 14.2421098,3.51368983 14.6266835,3.51368983 C15.0112191,3.51368983 15.3394161,3.64980962 15.6115413,3.92189673 C15.8836665,4.19398385 16.0198625,4.52221894 16.0198625,4.9067545 C16.0198625,5.2911757 15.8836665,5.61952515 15.6115413,5.89161227 C15.3394161,6.16366126 15.0112191,6.29981917 14.6266835,6.29981917 C14.2421098,6.29981917 13.9139129,6.16366126 13.6417876,5.89161227 Z M17.7010621,10.7671861 C17.4289368,11.0391589 17.1007398,11.1756218 16.7162043,11.1756218 C16.3316306,11.1756218 16.0034336,11.0391589 15.7313084,10.7671861 C15.4591832,10.4953277 15.3231396,10.1668639 15.3231396,9.78229026 C15.3231396,9.3977547 15.4591832,9.06955772 15.7313084,8.79743249 C16.0034336,8.52530726 16.3316306,8.38926371 16.7162043,8.38926371 C17.1007398,8.38926371 17.4289368,8.52530726 17.7010621,8.79743249 C17.9731873,9.06955772 18.1090784,9.3977547 18.1090784,9.78229026 C18.1090784,10.1668639 17.9731492,10.4950609 17.7010621,10.7671861 Z" id="Shape"></path>
                </g>
            </g>
        </g>
    </g>
</svg>