<?xml version="1.0" encoding="UTF-8"?>
<svg width="17px" height="21px" viewBox="0 0 17 21" version="1.1" xmlns="http://www.w3.org/2000/svg" xmlns:xlink="http://www.w3.org/1999/xlink">
    <!-- Generator: Sketch 60.1 (88133) - https://sketch.com -->
    <title>report</title>
    <desc>Created with Sketch.</desc>
    <g id="Page-1" stroke="none" stroke-width="1" fill="none" fill-rule="evenodd">
        <g id="Credr-Pro-inventory-Rejected" transform="translate(-26.000000, -292.000000)" fill="#A0A0A0" fill-rule="nonzero">
            <g id="left-nav" transform="translate(0.000000, 50.000000)">
                <g id="report" transform="translate(26.000000, 242.000000)">
                    <polygon id="Path" points="5.89824982 5.32700661 4.21001335 7.01524308 3.34091346 6.14610227 2.47283656 7.01417916 4.21001335 8.75135595 6.76632672 6.19508351"></polygon>
                    <rect id="Rectangle" x="7.97043866" y="4.97975949" width="6.14565215" height="1.22764094"></rect>
                    <rect id="Rectangle" x="7.97043866" y="7.43712829" width="6.14565215" height="1.22764094"></rect>
                    <polygon id="Path" points="5.89824982 10.2415396 4.21001335 11.9297761 3.34091346 11.0606353 2.47283656 11.9287122 4.21001335 13.6659299 6.76632672 11.1096165"></polygon>
                    <rect id="Rectangle" x="7.97043866" y="9.89408789" width="6.14565215" height="1.22764094"></rect>
                    <rect id="Rectangle" x="7.97043866" y="12.3514567" width="6.14565215" height="1.22764094"></rect>
                    <polygon id="Path" points="5.89824982 15.1561135 4.21001335 16.84435 3.34091346 15.9752092 2.47283656 16.8432861 4.21001335 18.5804629 6.76632672 16.0241904"></polygon>
                    <rect id="Rectangle" x="7.97043866" y="14.8087846" width="6.14565215" height="1.22764094"></rect>
                    <rect id="Rectangle" x="7.97043866" y="17.2661534" width="6.14565215" height="1.22764094"></rect>
                    <path d="M12.8870177,1.26119534 L12.8870177,0 L3.72642078,0 L3.72642078,1.26119534 L0.0405108007,1.26119534 L0.0405108007,20.9509994 L16.5729276,20.9509994 L16.5729276,1.26119534 L12.8870177,1.26119534 Z M4.95410265,1.22764094 L11.6593767,1.22764094 L11.6593767,2.5224316 L4.95410265,2.5224316 L4.95410265,1.22764094 Z M15.3453276,19.7233994 L1.26819266,19.7233994 L1.26819266,2.4888772 L3.7264617,2.4888772 L3.7264617,3.75007254 L12.8870586,3.75007254 L12.8870586,2.4888772 L15.3453276,2.4888772 L15.3453276,19.7233994 L15.3453276,19.7233994 Z" id="Shape"></path>
                </g>
            </g>
        </g>
    </g>
</svg>