<?xml version="1.0" encoding="UTF-8"?>
<svg width="25px" height="25px" viewBox="0 0 25 25" version="1.1" xmlns="http://www.w3.org/2000/svg" xmlns:xlink="http://www.w3.org/1999/xlink">
    <!-- Generator: Sketch 58 (84663) - https://sketch.com -->
    <title>edit</title>
    <desc>Created with Sketch.</desc>
    <g id="Page-1" stroke="none" stroke-width="1" fill="none" fill-rule="evenodd">
        <g id="Credr-Pro-Fhd" transform="translate(-1353.000000, -188.000000)" fill="#1292F9" fill-rule="nonzero">
            <g id="right-block" transform="translate(270.000000, 78.000000)">
                <g id="row" transform="translate(1.000000, 110.000000)">
                    <g id="edit" transform="translate(1083.000000, 0.000000)">
                        <path d="M21.8363263,14.7881031 C21.5108679,14.7881031 21.2470947,15.0518764 21.2470947,15.3773347 L21.2470947,20.6090673 C21.2459438,21.5849822 20.4553147,22.3758416 19.4793998,22.3767622 L2.94615823,22.3767622 C1.97024331,22.3758416 1.17961412,21.5849822 1.17846329,20.6090673 L1.17846329,5.25428906 C1.17961412,4.2786043 1.97024331,3.48774495 2.94615823,3.48659412 L8.17789073,3.48659412 C8.50334918,3.48659412 8.76712238,3.22282087 8.76712238,2.89736248 C8.76712238,2.57213425 8.50334918,2.30813083 8.17789073,2.30813083 L2.94615823,2.30813083 C1.31978685,2.30997218 0.00184134889,3.62791762 0,5.25428906 L0,20.6092975 C0.00184134889,22.2356689 1.31978685,23.5536143 2.94615823,23.5554557 L19.4793998,23.5554557 C21.1057711,23.5536143 22.4237166,22.2356689 22.425558,20.6092975 L22.425558,15.3773347 C22.425558,15.0518764 22.1617847,14.7881031 21.8363263,14.7881031 Z" id="Path" stroke="#1292F9"></path>
                        <path d="M22.192167,0.792010177 C21.1566384,-0.243518361 19.4777886,-0.243518361 18.44226,0.792010177 L7.92999915,11.304271 C7.85795639,11.3763138 7.80593826,11.4656192 7.77877839,11.563671 L6.39638574,16.554417 C6.33953408,16.7590369 6.39730635,16.9781574 6.54737635,17.1284575 C6.69767644,17.2785275 6.91679695,17.3362998 7.12141684,17.2796783 L12.1121629,15.8970555 C12.2102146,15.8698956 12.2995201,15.8178775 12.3715629,15.7458347 L22.8835935,5.2333437 C23.9175109,4.19712464 23.9175109,2.5196558 22.8835935,1.48343669 L22.192167,0.792010177 Z M9.2138797,11.6872716 L17.8173522,3.08356887 L20.5920348,5.8582515 L11.9883321,14.4619542 L9.2138797,11.6872716 Z M8.65963368,12.7994463 L10.8763876,15.0164304 L7.81008132,15.8659827 L8.65963368,12.7994463 Z M22.0503831,4.40013333 L21.4254754,5.02504112 L18.6505626,2.25012834 L19.2757005,1.62522055 C19.8508919,1.05002918 20.7835351,1.05002918 21.3587265,1.62522055 L22.0503831,2.31664706 C22.6246538,2.89252895 22.6246538,3.82448165 22.0503831,4.40013333 L22.0503831,4.40013333 Z" id="Shape"></path>
                    </g>
                </g>
            </g>
        </g>
    </g>
</svg>