<svg width="12" height="12" viewBox="0 0 12 12" fill="none" xmlns="http://www.w3.org/2000/svg">
<path d="M10.5767 7.09844C10.5065 7.09844 10.439 7.12817 10.3893 7.18111C10.3395 7.23404 10.3114 7.30587 10.3112 7.38084V9.89284C10.3112 10.3608 9.95499 10.7408 9.51624 10.7408H2.07624C1.63674 10.7408 1.28124 10.3608 1.28124 9.89284V2.52164C1.28124 2.05284 1.63674 1.67364 2.07624 1.67284H4.43049C4.4665 1.67489 4.50251 1.66909 4.53634 1.6558C4.57018 1.64251 4.60112 1.62201 4.62728 1.59555C4.65344 1.56908 4.67428 1.53722 4.68852 1.50189C4.70276 1.46655 4.7101 1.4285 4.7101 1.39004C4.7101 1.35158 4.70276 1.31353 4.68852 1.2782C4.67428 1.24287 4.65344 1.211 4.62728 1.18454C4.60112 1.15808 4.57018 1.13758 4.53634 1.12429C4.50251 1.111 4.4665 1.1052 4.43049 1.10724H2.07549C1.72394 1.10788 1.38698 1.25723 1.13853 1.52254C0.890082 1.78785 0.750442 2.14745 0.750244 2.52244V9.89284C0.75084 10.2677 0.890758 10.627 1.13932 10.892C1.38789 11.157 1.72482 11.306 2.07624 11.3064H9.51624C9.86754 11.3058 10.2043 11.1567 10.4527 10.8917C10.7011 10.6267 10.8409 10.2676 10.8415 9.89284V7.38084C10.8413 7.30601 10.8133 7.2343 10.7637 7.18139C10.7141 7.12847 10.6469 7.09865 10.5767 7.09844Z" fill="white" stroke="white" stroke-width="0.421622"/>
<path d="M10.7362 0.380002C10.6254 0.261718 10.4939 0.167882 10.3491 0.103859C10.2043 0.0398355 10.0492 0.00688171 9.89243 0.00688171C9.7357 0.00688171 9.58051 0.0398355 9.43573 0.103859C9.29096 0.167882 9.15943 0.261718 9.04868 0.380002L4.31843 5.4264C4.2863 5.46085 4.26305 5.50356 4.25093 5.5504L3.62843 7.9464C3.61579 7.99464 3.6154 8.0456 3.62731 8.09405C3.63922 8.1425 3.66299 8.1867 3.6962 8.22211C3.7294 8.25753 3.77084 8.28289 3.81626 8.29559C3.86168 8.3083 3.90945 8.30788 3.95468 8.2944L6.20018 7.6304C6.24436 7.6176 6.28467 7.59279 6.31718 7.5584L11.0474 2.512C11.5124 2.0144 11.5124 1.2096 11.0474 0.712002L10.7362 0.380002V0.380002ZM4.89593 5.6096L8.76743 1.48L10.0162 2.812L6.14468 6.9416L4.89593 5.6096V5.6096ZM4.64693 6.144L5.64443 7.208L4.26443 7.616L4.64693 6.144ZM10.6724 2.112L10.3912 2.412L9.14243 1.08L9.42368 0.780002C9.54801 0.647417 9.71662 0.572934 9.89243 0.572934C10.0682 0.572934 10.2368 0.647417 10.3612 0.780002L10.6724 1.112C10.7965 1.24473 10.8662 1.42454 10.8662 1.612C10.8662 1.79947 10.7965 1.97928 10.6724 2.112V2.112Z" fill="white"/>
</svg>
