<svg xmlns="http://www.w3.org/2000/svg" width="16" height="15" viewBox="0 0 16 15">
    <g fill="#1292F9" fill-rule="nonzero">
        <path stroke="#1292F9" stroke-width=".6" d="M14.102 8.873a.354.354 0 0 0-.354.353v3.14c0 .585-.475 1.06-1.06 1.06h-9.92c-.586 0-1.06-.475-1.06-1.06V3.152c0-.586.474-1.06 1.06-1.061h3.139a.354.354 0 1 0 0-.707h-3.14A1.77 1.77 0 0 0 1 3.153v9.213a1.77 1.77 0 0 0 1.768 1.767h9.92a1.77 1.77 0 0 0 1.767-1.767v-3.14a.354.354 0 0 0-.353-.353z"/>
        <path d="M14.315.475a1.59 1.59 0 0 0-2.25 0L5.758 6.783a.353.353 0 0 0-.09.155l-.83 2.995a.353.353 0 0 0 .435.435l2.994-.83a.353.353 0 0 0 .156-.09L14.73 3.14c.62-.622.62-1.628 0-2.25l-.415-.415zM6.528 7.012L11.69 1.85l1.665 1.665-5.162 5.162-1.665-1.665zm-.332.668l1.33 1.33-1.84.51.51-1.84zm8.034-5.04l-.375.375L12.19 1.35l.375-.375a.884.884 0 0 1 1.25 0l.415.415a.885.885 0 0 1 0 1.25z"/>
    </g>
</svg>
