<svg width="14" height="14" viewBox="0 0 14 14" fill="none" xmlns="http://www.w3.org/2000/svg">
<path d="M6.99995 0.875C8.62452 0.875 10.1825 1.52036 11.3313 2.6691C12.48 3.81784 13.1254 5.37587 13.1254 7.00044C13.1254 8.625 12.48 10.183 11.3313 11.3318C10.1825 12.4805 8.62452 13.1259 6.99995 13.1259C5.37538 13.1259 3.81735 12.4805 2.66861 11.3318C1.51987 10.183 0.874512 8.625 0.874512 7.00044C0.874512 5.37587 1.51987 3.81784 2.66861 2.6691C3.81735 1.52036 5.37538 0.875 6.99995 0.875ZM7.9187 4.63575C8.3737 4.63575 8.74295 4.31987 8.74295 3.85175C8.74295 3.38362 8.37282 3.06775 7.9187 3.06775C7.4637 3.06775 7.0962 3.38362 7.0962 3.85175C7.0962 4.31987 7.4637 4.63575 7.9187 4.63575ZM8.07882 9.55937C8.07882 9.46575 8.1112 9.2225 8.09282 9.08425L7.37357 9.912C7.22482 10.0686 7.03845 10.1771 6.95095 10.1482C6.91125 10.1336 6.87808 10.1053 6.85738 10.0684C6.83669 10.0316 6.82984 9.98849 6.83807 9.947L8.03682 6.16C8.13482 5.67962 7.86532 5.24125 7.29395 5.18525C6.69107 5.18525 5.80382 5.79687 5.26395 6.573C5.26395 6.66575 5.24645 6.89675 5.26482 7.035L5.9832 6.20637C6.13195 6.0515 6.3052 5.94212 6.3927 5.97187C6.43581 5.98735 6.47113 6.0191 6.49109 6.06033C6.51105 6.10156 6.51405 6.14896 6.49945 6.19237L5.3112 9.961C5.17382 10.402 5.4337 10.8342 6.0637 10.9323C6.9912 10.9323 7.53895 10.3355 8.0797 9.55937H8.07882Z" fill="#BCBCBC"/>
</svg>
