<svg width="10" height="10" viewBox="0 0 10 10" fill="none" xmlns="http://www.w3.org/2000/svg">
<path d="M5.36827 1.05502C5.22411 0.782522 4.77577 0.782522 4.63161 1.05502L0.881609 8.13836C0.847852 8.20184 0.831117 8.27299 0.833034 8.34487C0.834951 8.41675 0.855455 8.48691 0.892548 8.5485C0.929641 8.6101 0.982058 8.66104 1.04469 8.69636C1.10732 8.73167 1.17804 8.75016 1.24994 8.75002H8.74994C8.8218 8.75017 8.89246 8.7317 8.95505 8.6964C9.01764 8.66111 9.07002 8.6102 9.10708 8.54863C9.14413 8.48707 9.1646 8.41695 9.16649 8.34512C9.16838 8.27329 9.15162 8.2022 9.11786 8.13877L5.36827 1.05502ZM5.41661 7.50002H4.58327V6.66669H5.41661V7.50002ZM4.58327 5.83336V3.75002H5.41661L5.41703 5.83336H4.58327Z" fill="#DA2128"/>
</svg>
