<svg width="11" height="11" viewBox="0 0 11 11" fill="none" xmlns="http://www.w3.org/2000/svg">
<path d="M1.22222 11C0.886111 11 0.598278 10.8804 0.358722 10.6413C0.119574 10.4017 0 10.1139 0 9.77778V7.33333H1.22222V9.77778H9.77778V1.22222H1.22222V3.66667H0V1.22222C0 0.886111 0.119574 0.598278 0.358722 0.358722C0.598278 0.119574 0.886111 0 1.22222 0H9.77778C10.1139 0 10.4017 0.119574 10.6413 0.358722C10.8804 0.598278 11 0.886111 11 1.22222V9.77778C11 10.1139 10.8804 10.4017 10.6413 10.6413C10.4017 10.8804 10.1139 11 9.77778 11H1.22222ZM4.58333 8.55556L3.72778 7.66944L5.28611 6.11111H0V4.88889H5.28611L3.72778 3.33056L4.58333 2.44444L7.63889 5.5L4.58333 8.55556Z" fill="#262948"/>
</svg>
