<?xml version="1.0" encoding="UTF-8"?>
<svg width="19px" height="20px" viewBox="0 0 19 20" version="1.1" xmlns="http://www.w3.org/2000/svg" xmlns:xlink="http://www.w3.org/1999/xlink">
    <!-- Generator: Sketch 58 (84663) - https://sketch.com -->
    <title>fhd</title>
    <desc>Created with Sketch.</desc>
    <g id="Page-1" stroke="none" stroke-width="1" fill="none" fill-rule="evenodd">
        <g id="Credr-Pro" transform="translate(-25.000000, -118.000000)" fill="#A0A0A0">
            <g id="left-nav" transform="translate(0.000000, 50.000000)">
                <g id="fhd" transform="translate(25.000000, 68.000000)">
                    <g id="hand" transform="translate(0.000000, 9.676000)">
                        <path d="M7.56877951,8.82716389 L8.27885418,7.74357012 C8.4631361,7.46232591 8.41380676,7.10420828 8.16872252,6.94363123 C7.92359363,6.78296489 7.5754758,6.8806861 7.39119388,7.16193031 L6.68116385,8.24556872 C6.49683728,8.52681293 6.54612198,8.88493056 6.79129551,9.04555225 C7.03642439,9.20621859 7.38454223,9.1084081 7.56877951,8.82716389" id="Fill-5"></path>
                        <path d="M5.74216532,7.43795141 L6.24295858,6.67372607 C6.37291126,6.47538194 6.27960961,6.18440578 6.03452537,6.02382873 C5.78935185,5.8631624 5.4852956,5.89378677 5.35534292,6.0921309 L4.85454966,6.85635624 C4.72459697,7.05470037 4.81789863,7.34563188 5.06307215,7.50629822 C5.30820103,7.66691991 5.61225728,7.63629554 5.74216532,7.43795141" id="Fill-6"></path>
                        <path d="M7.22717939,7.25603551 C7.39320276,7.00273716 7.3290523,6.66720835 7.08396806,6.50658665 C6.83883917,6.34592032 6.50554246,6.42114198 6.33951909,6.67444034 L5.69984476,7.65071489 C5.53382139,7.90401325 5.59792721,8.2395867 5.8430561,8.40020839 C6.08822962,8.56083009 6.42152633,8.48560842 6.58746042,8.23231006 L7.22717939,7.25603551" id="Fill-7"></path>
                        <path d="M8.60612423,8.18039149 C8.4060837,8.04918883 8.14488372,8.09405398 8.02278802,8.28047871 L7.55212806,8.99872286 C7.42998772,9.18514759 7.49302214,9.44250837 7.69310731,9.5735771 C7.89314783,9.70464583 8.15434781,9.65973604 8.27639887,9.47340059 L8.74710347,8.7551118 C8.86924381,8.56864243 8.80612011,8.31137094 8.60612423,8.18039149" id="Fill-8"></path>
                        <path d="M14.0823508,1.91480616 C14.0291376,1.94730549 13.9748084,1.9802066 13.9173988,2.01431304 C13.5668257,2.22234448 13.4787025,2.24149587 12.6629157,2.17386333 C11.6921768,2.09332927 10.922773,1.82061167 10.0588622,1.66673091 C9.6608793,1.59583951 8.94366192,1.63726723 8.54402729,1.70092664 C8.27305073,1.74409539 8.06676033,1.93404684 7.86605017,2.10533795 C7.23284892,2.64595183 6.49264094,3.01947093 6.02202563,3.7328491 C5.98778526,3.78481232 5.98657993,3.83543627 6.00434742,3.87802468 C5.99841004,3.90289024 5.9975172,3.93030039 6.00439206,3.96038906 C6.29411824,5.22652371 8.12564305,3.86820346 8.63460578,3.41080216 C8.70808641,3.34477673 13.0145603,6.31958157 13.3549104,6.56154088 C13.4828096,6.65247651 13.858159,6.05833695 13.9741387,5.98552595 C14.1852505,5.85298403 14.4209153,5.75972703 14.6535444,5.67307702 C14.9767074,5.55263307 15.544285,5.29652227 15.7535664,5.08679445 C15.380583,3.92940755 14.8193892,2.86465268 14.0823508,1.91480616" id="Fill-9"></path>
                        <path d="M14.2781503,1.52637666 C14.1447156,1.37030844 14.1864112,1.1620538 14.3781929,1.05790416 C14.9915732,0.724607445 15.6049534,0.391355375 16.2182443,0.0581033055 C16.4097583,-0.0459124108 16.680467,-0.0072524922 16.8125625,0.149887131 C17.6948211,1.19741021 18.3488255,2.42198322 18.7344872,3.75441116 C18.7924324,3.95413919 18.6781044,4.20422333 18.4890905,4.3068105 C17.8837458,4.63546445 17.2783118,4.96416304 16.6727886,5.29290628 C16.4835514,5.39562738 16.2871715,5.31402191 16.2276638,5.11496351 C15.8319576,3.78655335 15.168757,2.56729273 14.2781503,1.52637666" id="Fill-10"></path>
                        <path d="M13.3128131,6.7070736 C13.2970991,6.70109158 13.2819208,6.69363637 13.2679926,6.68377051 C13.2349129,6.6602442 13.1828157,6.62363782 13.1146921,6.57613879 L11.6961053,5.63959557 C11.6278477,5.59504291 9.97047115,4.45957521 8.90040388,3.72624209 C8.79826313,3.66218091 8.71755051,3.61356584 8.66335519,3.58401288 C8.38648589,3.81793663 7.36400694,4.63644657 6.61214741,4.63644657 C6.33527811,4.63644657 5.97979435,4.52497565 5.85823436,3.99387051 C5.85024345,3.95887123 5.84778814,3.92387195 5.85091308,3.88936374 C5.83216346,3.80923146 5.84805599,3.72436713 5.89684963,3.6503508 C6.14166602,3.27924236 6.45652561,2.99598927 6.78477779,2.7410838 C6.64112003,2.74666404 6.49710514,2.76733326 6.35514377,2.80264503 C5.83479734,2.52550788 5.19467659,2.00132224 4.82803235,1.77436262 C4.01720082,2.78291329 3.40846335,3.92512193 3.01802496,5.17322124 C3.01449824,5.18451565 3.01007869,5.19527436 3.00619484,5.2063902 C3.44975714,5.51464278 4.40076435,5.98141889 4.84861228,6.28998397 C4.89137926,6.31949229 4.93329804,6.32547431 4.97066334,6.31676913 C4.98093098,6.33029564 4.99227004,6.34310788 5.00289482,6.35632189 L5.22989907,6.00990045 C5.3294506,5.85802857 5.5019024,5.77088751 5.70301434,5.77088751 C5.84631496,5.77088751 5.98934773,5.81499374 6.11671118,5.89847417 C6.26385101,5.99485611 6.37233092,6.13346933 6.42215132,6.28882328 C6.43121363,6.31703698 6.43741886,6.3451614 6.44232948,6.37319654 C6.54924692,6.30855501 6.67192297,6.27208255 6.80004533,6.27208255 C6.93071228,6.27208255 7.05731682,6.30984963 7.16615387,6.38118745 C7.31896322,6.48131932 7.42226467,6.63658398 7.45699609,6.81836595 C7.46021031,6.83515132 7.46217456,6.85193669 7.4641388,6.86881134 C7.59418077,6.77175977 7.74913294,6.71631448 7.90511187,6.71631448 C8.02966288,6.71631448 8.14921399,6.75158161 8.25090832,6.81823202 C8.40621763,6.92001564 8.50652806,7.08322657 8.53335787,7.27786542 C8.55907162,7.4648705 8.513269,7.65942007 8.40425338,7.82575593 L8.31782659,7.95762822 C8.33117453,7.95669074 8.3443439,7.95526219 8.35782577,7.95526219 C8.47451979,7.95526219 8.58880316,7.98972577 8.68835468,8.05499228 C8.95709915,8.23101545 9.03973137,8.58199037 8.87254732,8.83725297 L8.60969558,9.23831614 L9.32718082,9.70687793 C9.52570351,9.83656276 9.82194742,9.73451129 9.98881898,9.47889155 C10.1491728,9.23345017 10.13145,8.93631343 9.95426612,8.79814663 C9.9718104,8.78270052 9.98931004,8.76716513 10.006899,8.75118331 L10.6024224,9.14014852 C10.8009005,9.26978871 11.0972337,9.16773724 11.2640606,8.9121175 C11.4311107,8.65640848 11.4054416,8.34409348 11.2069636,8.21445329 L10.7511694,7.91687013 C10.7700975,7.8912903 10.7889364,7.86571047 10.8074628,7.83990742 C10.8077307,7.84013063 10.8079093,7.8403092 10.8081325,7.84044313 L11.573206,8.3400757 C11.7717287,8.46976053 12.0679726,8.36770906 12.2348888,8.11204468 C12.4018497,7.8563803 12.3762252,7.54410994 12.1777025,7.41442511 L11.4127182,6.91483718 C11.3977186,6.90501595 11.3820046,6.89693576 11.3659781,6.88979305 C11.3828081,6.8521599 11.3987007,6.81488388 11.4137897,6.777965 L12.7067541,7.63160814 C12.9052768,7.76129297 13.2015654,7.65919686 13.3684369,7.40362176 C13.5349514,7.14867165 13.5098179,6.8374727 13.3128131,6.7070736" id="Fill-11"></path>
                        <path d="M4.45772747,1.53231403 C4.59308182,1.37053165 4.55772541,1.16062526 4.37210423,1.06027018 C3.77836645,0.739160716 3.18462867,0.418095896 2.59106946,0.0970310757 C2.40562685,-0.00319007581 2.13857877,0.0433268239 2.00447439,0.206135973 C1.10909103,1.29156006 0.433167445,2.55023951 0.0179974182,3.91097043 C-0.0443673696,4.11489481 0.0612108145,4.3652468 0.244153478,4.46408405 C0.83012356,4.78072932 1.41613828,5.09737459 2.00228693,5.41401985 C2.18545281,5.51299103 2.38062736,5.42504641 2.44450998,5.22170238 C2.86945659,3.86476603 3.55426392,2.61126504 4.45772747,1.53231403" id="Fill-12"></path>
                    </g>
                    <g id="motorcycle-(5)" transform="translate(5.248000, 0.000000)">
                        <path d="M3.87058018,7.22907979 C3.28959347,7.22907979 2.81696198,7.69981232 2.81696198,8.27846471 L2.81696198,9.67765158 C2.81696198,10.256304 3.28959347,10.7270365 3.87058018,10.7270365 C4.45156689,10.7270365 4.92419838,10.256304 4.92419838,9.67765158 L4.92419838,8.27846471 C4.92419838,7.69981232 4.45156689,7.22907979 3.87058018,7.22907979 Z" id="Path"></path>
                        <path d="M7.38264787,1.39918687 L5.59122135,1.39918687 C5.42806799,0.601803508 4.71865795,-2.77111667e-13 3.87058018,-2.77111667e-13 C3.0225024,-2.77111667e-13 2.31309237,0.601803508 2.14996004,1.39918687 L0.358533525,1.39918687 C0.164646908,1.39918687 0.00732044512,1.55575551 0.00732044512,1.74898883 C0.00732044512,1.94222214 0.164646908,2.09879078 0.358533525,2.09879078 L2.14996004,2.09879078 C2.22594121,2.47010967 2.4216369,2.79755664 2.69337687,3.04302141 C1.55351205,3.51989266 0.748852086,4.64359163 0.748852086,5.94652849 L0.748852086,8.4720542 C0.748852086,8.94389714 1.13412206,9.32787058 1.60786846,9.32787058 L2.11455685,9.32787058 L2.11455685,8.27846471 C2.11455685,7.31403708 2.90226199,6.52949683 3.87058018,6.52949683 C4.83889837,6.52949683 5.62660351,7.31403708 5.62660351,8.27846471 L5.62660351,9.32787058 L6.17216599,9.32787058 C6.64591238,9.32787058 7.03143479,8.94389714 7.03143479,8.47203324 L7.03143479,5.94650754 C7.03143479,4.6338074 6.21409026,3.50386495 5.05853276,3.03327908 C5.32467722,2.78888283 5.5162499,2.46518612 5.59122135,2.09876983 L7.38264787,2.09876983 C7.57653449,2.09876983 7.73386095,1.94220119 7.73386095,1.74896788 C7.73386095,1.55573456 7.57653449,1.39918687 7.38264787,1.39918687 Z M3.87058018,2.79835279 C3.28959347,2.79835279 2.81696198,2.32762026 2.81696198,1.74896788 C2.81696198,1.17031549 3.28959347,0.69958296 3.87058018,0.69958296 C4.45156689,0.69958296 4.92419838,1.17031549 4.92419838,1.74896788 C4.92419838,2.32762026 4.45156689,2.79835279 3.87058018,2.79835279 Z" id="Shape" fill-rule="nonzero"></path>
                    </g>
                </g>
            </g>
        </g>
    </g>
</svg>