<svg width="24" height="24" viewBox="0 0 24 24" fill="none" xmlns="http://www.w3.org/2000/svg">
<path fill-rule="evenodd" clip-rule="evenodd" d="M24 12C24 5.372 18.627 0 12 0C5.373 0 0 5.372 0 12C0 18.627 5.373 24 12 24C18.627 24 24 18.627 24 12ZM9.535 9.105L8.21 10.78C8.139 10.87 8.139 10.841 8.199 10.938C9.818 13.558 11.719 15.248 13.994 15.711C14.104 15.733 14.08 15.746 14.149 15.663L15.73 13.773C15.794 13.696 15.771 13.691 15.856 13.73L19.511 15.414C19.691 15.497 19.552 17.257 19.323 17.524C14.233 23.42 -0.778 9.902 6.245 5.11C6.487 4.945 7.951 5.004 8.02 5.18L9.534 9.038C9.549 9.077 9.559 9.074 9.534 9.104L9.535 9.105Z" fill="#64B161"/>
</svg>
