<?xml version="1.0" encoding="UTF-8"?>
<svg width="21px" height="15px" viewBox="0 0 21 15" version="1.1" xmlns="http://www.w3.org/2000/svg" xmlns:xlink="http://www.w3.org/1999/xlink">
    <!-- Generator: Sketch 58 (84663) - https://sketch.com -->
    <title>inventory</title>
    <desc>Created with Sketch.</desc>
    <g id="Page-1" stroke="none" stroke-width="1" fill="none" fill-rule="evenodd">
        <g id="Credr-Pro" transform="translate(-24.000000, -229.000000)" fill="#A0A0A0">
            <g id="left-nav" transform="translate(0.000000, 50.000000)">
                <g id="inventory" transform="translate(24.000000, 179.000000)">
                    <g id="bikes" transform="translate(0.000000, 0.000000)">
                        <path d="M5.3671041,10.043131 C4.55995771,10.043131 3.90334578,10.6971048 3.90334578,11.5010082 L3.90334578,13.4448541 C3.90334578,14.2487575 4.55995771,14.9027312 5.3671041,14.9027312 C6.17425048,14.9027312 6.83086241,14.2487575 6.83086241,13.4448541 L6.83086241,11.5010082 C6.83086241,10.6971048 6.17425048,10.043131 5.3671041,10.043131 Z" id="Path"></path>
                        <path d="M10.2463082,1.9438459 L7.75753625,1.9438459 C7.53087246,0.836066508 6.54531162,7.10542736e-15 5.3671041,7.10542736e-15 C4.18889657,7.10542736e-15 3.20333573,0.836066508 2.97670116,1.9438459 L0.487929181,1.9438459 C0.21856866,1.9438459 -9.76996262e-15,2.16136174 -9.76996262e-15,2.42981465 C-9.76996262e-15,2.69826756 0.21856866,2.9157834 0.487929181,2.9157834 L2.97670116,2.9157834 C3.08225939,3.43164494 3.3541332,3.88655663 3.73165292,4.22757303 C2.1480749,4.89007511 1.03018637,6.45119443 1.03018637,8.26132324 L1.03018637,11.7699559 C1.03018637,12.4254723 1.56542971,12.9589144 2.22359054,12.9589144 L2.92751664,12.9589144 L2.92751664,11.5010082 C2.92751664,10.1611595 4.02185038,9.07122265 5.3671041,9.07122265 C6.71235781,9.07122265 7.80669155,10.1611595 7.80669155,11.5010082 L7.80669155,12.9589144 L8.56462419,12.9589144 C9.22278501,12.9589144 9.75837905,12.4254723 9.75837905,11.7699268 L9.75837905,8.26129413 C9.75837905,6.4376015 8.62286825,4.86780834 7.0174889,4.21403833 C7.38723494,3.87450637 7.65338079,3.42480482 7.75753625,2.91575429 L10.2463082,2.91575429 C10.5156688,2.91575429 10.7342374,2.69823845 10.7342374,2.42978554 C10.7342374,2.16133263 10.5156688,1.9438459 10.2463082,1.9438459 Z M5.3671041,3.88766269 C4.55995771,3.88766269 3.90334578,3.23368893 3.90334578,2.42978554 C3.90334578,1.62588216 4.55995771,0.971908396 5.3671041,0.971908396 C6.17425048,0.971908396 6.83086241,1.62588216 6.83086241,2.42978554 C6.83086241,3.23368893 6.17425048,3.88766269 5.3671041,3.88766269 Z" id="Shape" fill-rule="nonzero"></path>
                    </g>
                    <g id="bikes" transform="translate(10.252800, 0.000000)">
                        <path d="M5.3671041,10.043131 C4.55995771,10.043131 3.90334578,10.6971048 3.90334578,11.5010082 L3.90334578,13.4448541 C3.90334578,14.2487575 4.55995771,14.9027312 5.3671041,14.9027312 C6.17425048,14.9027312 6.83086241,14.2487575 6.83086241,13.4448541 L6.83086241,11.5010082 C6.83086241,10.6971048 6.17425048,10.043131 5.3671041,10.043131 Z" id="Path"></path>
                        <path d="M10.2463082,1.9438459 L7.75753625,1.9438459 C7.53087246,0.836066508 6.54531162,7.10542736e-15 5.3671041,7.10542736e-15 C4.18889657,7.10542736e-15 3.20333573,0.836066508 2.97670116,1.9438459 L0.487929181,1.9438459 C0.21856866,1.9438459 -9.76996262e-15,2.16136174 -9.76996262e-15,2.42981465 C-9.76996262e-15,2.69826756 0.21856866,2.9157834 0.487929181,2.9157834 L2.97670116,2.9157834 C3.08225939,3.43164494 3.3541332,3.88655663 3.73165292,4.22757303 C2.1480749,4.89007511 1.03018637,6.45119443 1.03018637,8.26132324 L1.03018637,11.7699559 C1.03018637,12.4254723 1.56542971,12.9589144 2.22359054,12.9589144 L2.92751664,12.9589144 L2.92751664,11.5010082 C2.92751664,10.1611595 4.02185038,9.07122265 5.3671041,9.07122265 C6.71235781,9.07122265 7.80669155,10.1611595 7.80669155,11.5010082 L7.80669155,12.9589144 L8.56462419,12.9589144 C9.22278501,12.9589144 9.75837905,12.4254723 9.75837905,11.7699268 L9.75837905,8.26129413 C9.75837905,6.4376015 8.62286825,4.86780834 7.0174889,4.21403833 C7.38723494,3.87450637 7.65338079,3.42480482 7.75753625,2.91575429 L10.2463082,2.91575429 C10.5156688,2.91575429 10.7342374,2.69823845 10.7342374,2.42978554 C10.7342374,2.16133263 10.5156688,1.9438459 10.2463082,1.9438459 Z M5.3671041,3.88766269 C4.55995771,3.88766269 3.90334578,3.23368893 3.90334578,2.42978554 C3.90334578,1.62588216 4.55995771,0.971908396 5.3671041,0.971908396 C6.17425048,0.971908396 6.83086241,1.62588216 6.83086241,2.42978554 C6.83086241,3.23368893 6.17425048,3.88766269 5.3671041,3.88766269 Z" id="Shape" fill-rule="nonzero"></path>
                    </g>
                </g>
            </g>
        </g>
    </g>
</svg>