<svg width="27" height="28" viewBox="0 0 27 28" fill="none" xmlns="http://www.w3.org/2000/svg">
<path d="M7.30593 12.2439L7.26928 19.7106L6.32855 19.7474L5.37561 19.7843V20.2264C5.37561 20.8159 5.87652 21.651 6.43851 22.0071L6.90276 22.2896H12.9014H18.8878L19.4009 21.9457C20.1584 21.4545 20.4272 20.8159 20.5005 19.4036C20.5494 18.3966 20.5982 18.2001 20.8426 17.9299C21.319 17.4141 21.6245 16.5913 21.6245 15.7808C21.6245 14.7983 21.4534 14.2334 20.9525 13.5703L20.5249 13.0176V11.0159V9.02639L18.4114 6.90183L16.31 4.78955H11.8141H7.33036L7.30593 12.2439ZM15.8824 7.1106C15.8824 8.11762 15.919 9.02639 15.9557 9.13692C16.0168 9.30885 16.31 9.33341 17.9715 9.33341H19.9141V10.9299C19.9141 11.8018 19.8896 12.5264 19.8652 12.5264C19.8408 12.5264 19.5842 12.4404 19.3032 12.3422C18.0693 11.9001 16.5055 12.2685 15.6625 13.1896C14.8439 14.0738 14.7218 14.4053 14.7218 15.658C14.7218 16.8615 14.8439 17.1931 15.5403 17.9913C16.5299 19.1334 18.1792 19.4773 19.7064 18.851C19.8896 18.7773 19.9141 18.851 19.9141 19.5387C19.9141 20.4843 19.6575 21.0615 19.0711 21.4545C18.0448 22.1545 16.6154 21.5036 16.42 20.251L16.3344 19.772L12.1073 19.7474L7.88013 19.7106L7.84348 12.6492C7.83127 8.7685 7.84348 5.51411 7.88013 5.42815C7.91679 5.31762 8.84529 5.28078 11.9118 5.28078H15.8824V7.1106ZM18.0204 7.24569L19.4865 8.71938H17.9838H16.4933V7.24569C16.4933 6.43516 16.5055 5.77201 16.5299 5.77201C16.5421 5.77201 17.2141 6.43516 18.0204 7.24569ZM19.4498 13.0299C21.258 13.951 21.6367 16.3211 20.2195 17.7457C18.5702 19.4159 15.7847 18.5808 15.2715 16.2597C15.0516 15.3141 15.3204 14.4299 16.0534 13.6562C16.9697 12.6738 18.277 12.4281 19.4498 13.0299ZM15.8824 20.472C15.8824 20.5948 16.0168 20.9264 16.1878 21.2088L16.481 21.7369H11.8385C6.80502 21.7369 6.78059 21.7369 6.24303 21.0492C6.09642 20.865 5.98647 20.6194 5.98647 20.4966C5.98647 20.2755 6.18195 20.2632 10.9344 20.2632C15.5647 20.2632 15.8824 20.2755 15.8824 20.472Z" fill="#A7A3A3"/>
<path d="M9.896 10.9914C9.78604 11.1142 9.77383 11.2247 9.85935 11.3107C9.93265 11.3844 11.3743 11.4089 13.6345 11.3966C17.1897 11.3598 17.2874 11.3475 17.2874 11.1142C17.2874 10.8809 17.1897 10.8686 13.6711 10.8317C10.5191 10.8072 10.0304 10.8317 9.896 10.9914Z" fill="#A7A3A3"/>
<path d="M9.90819 13.0054C9.81045 13.0668 9.7738 13.2019 9.81045 13.3124C9.88375 13.4844 10.1403 13.5089 11.8752 13.4844C13.7688 13.4475 13.8666 13.4352 13.8666 13.2019C13.8666 12.9686 13.781 12.9563 11.9729 12.9317C10.9344 12.9072 10.0059 12.944 9.90819 13.0054Z" fill="#A7A3A3"/>
<path d="M9.83488 14.9826C9.78601 15.0562 9.82266 15.2036 9.90818 15.3019C10.0304 15.4492 10.3969 15.4738 11.9607 15.4492C13.7688 15.4124 13.8666 15.4001 13.8666 15.1668C13.8666 14.9334 13.7688 14.9212 11.8874 14.8843C10.5801 14.8597 9.88375 14.8966 9.83488 14.9826Z" fill="#A7A3A3"/>
<path d="M9.83493 16.9475C9.65167 17.2545 9.99375 17.3159 11.9241 17.3159C13.7811 17.3159 13.9399 17.3036 13.9032 17.0949C13.8666 16.9107 13.6589 16.8861 11.8874 16.8492C10.6413 16.837 9.88379 16.8615 9.83493 16.9475Z" fill="#A7A3A3"/>
<path d="M18.8333 15.0001V14.6667H17V15.0001H17.5833C17.8003 15.0001 17.9835 15.1397 18.0525 15.3334H17V15.6667H18.0525C18.0183 15.764 17.9548 15.8482 17.8708 15.9079C17.7868 15.9676 17.6864 15.9998 17.5833 16.0001H17V16.4024L17.931 17.3334H18.4023L17.4023 16.3334H17.5833C17.7753 16.3332 17.9614 16.2667 18.1101 16.1453C18.2588 16.0238 18.3611 15.8548 18.3997 15.6667H18.8333V15.3334H18.3997C18.3741 15.2121 18.3215 15.0982 18.2457 15.0001H18.8333Z" fill="#A7A3A3"/>
</svg>
