<svg width="28" height="25" viewBox="0 0 28 25" fill="none" xmlns="http://www.w3.org/2000/svg">
<path d="M15.8788 12.5219C15.682 12.3404 15.3923 12.2866 15.0832 12.374C14.7633 12.4646 11.2658 13.8725 10.507 14.3114C10.0786 14.559 10.1409 14.8731 10.1699 14.9637C10.2784 15.2994 10.7341 15.4998 11.3918 15.4998L11.9472 15.4957C12.6752 15.4957 13.077 15.4957 14.2253 15.3133C15.4423 15.1202 15.764 14.1952 15.9564 13.6423C15.9764 13.5849 15.9957 13.5305 16.0146 13.4792C16.1609 13.0855 16.1112 12.7366 15.8788 12.5219ZM15.3513 13.2777C15.331 13.3325 15.3107 13.3911 15.2894 13.4522C15.1081 13.9728 14.903 14.5631 14.105 14.6898C13.0158 14.8627 12.6585 14.8627 11.9465 14.8627C11.9455 14.8627 11.9445 14.8627 11.9438 14.8627L11.3894 14.8664C11.18 14.8664 11.0362 14.8389 10.9456 14.8104C11.7649 14.3668 15.0003 13.0611 15.2929 12.9782C15.3468 12.9629 15.3773 12.9658 15.3787 12.9649C15.3912 12.9785 15.4262 13.0764 15.3513 13.2777Z" fill="#A7A3A3"/>
<path d="M17.6537 11.3961C17.1724 10.7358 16.3184 10.3416 15.3692 10.3416C15.0556 10.3416 14.7413 10.3875 14.4351 10.4774C14.0571 10.5886 11.9379 11.3223 10.5021 11.9771C9.06713 11.3223 6.94753 10.5886 6.5692 10.4771C6.26294 10.3872 5.949 10.3416 5.6354 10.3416C4.66661 10.3416 3.81119 10.7377 3.34746 11.4011C2.925 12.006 2.799 12.8616 2.97332 13.9449C2.97578 13.9611 2.97996 13.9772 2.98521 13.9927L3.07483 14.2613C3.31949 15.0194 3.89277 16.794 6.23743 17.1797C7.51318 17.3896 8.0438 17.3998 8.87153 17.3998H11.7916C12.6585 17.3998 13.171 17.3899 14.4488 17.1794C16.7504 16.801 17.644 15.1077 17.9712 14.1336L18.0195 13.9927C18.0255 13.9753 18.03 13.9576 18.0325 13.9395C18.1965 12.784 18.0761 11.9759 17.6537 11.3961ZM17.3418 13.8325L17.3019 13.9487C17.0205 14.786 16.2593 16.2385 14.3234 16.5568C13.105 16.7575 12.6172 16.7667 11.7915 16.7667H8.87145C8.06119 16.7667 7.58171 16.7572 6.36265 16.5568C4.44324 16.2411 3.99001 14.8376 3.74675 14.0839L3.66168 13.8296C3.51784 12.9119 3.61095 12.2089 3.93924 11.7399C4.27417 11.2612 4.9084 10.9752 5.63568 10.9752C5.87579 10.9752 6.11692 11.0107 6.35317 11.08C6.72137 11.1883 8.96837 11.9695 10.3414 12.6143C10.4422 12.6614 10.5626 12.6614 10.6638 12.6143C12.0375 11.9692 14.2835 11.188 14.6517 11.08C14.8879 11.0104 15.129 10.9752 15.3691 10.9752C16.0824 10.9752 16.718 11.2631 17.0691 11.745C17.3915 12.1871 17.4783 12.8508 17.3418 13.8325Z" fill="#A7A3A3"/>
<path d="M10.4891 14.311C9.73028 13.8724 6.23271 12.4645 5.91283 12.374C5.60378 12.2866 5.31396 12.3404 5.11729 12.5219C4.8849 12.7366 4.83556 13.0855 4.98149 13.4791C5.0004 13.5304 5.01931 13.5852 5.03924 13.6422C5.23173 14.1951 5.55337 15.1201 6.77035 15.3133C7.9187 15.496 8.32049 15.496 9.04848 15.496L9.60674 15.4998C10.2616 15.4998 10.7173 15.299 10.8261 14.9634C10.8552 14.8728 10.9175 14.5587 10.4891 14.311ZM9.60921 14.8665L9.05238 14.8627C9.05131 14.8627 9.05029 14.8627 9.04959 14.8627C8.33768 14.8627 7.98035 14.8627 6.89114 14.6898C6.09314 14.5631 5.88802 13.9729 5.70673 13.4523C5.68536 13.3912 5.6651 13.3326 5.6448 13.2778C5.5699 13.0764 5.60489 12.9785 5.61223 12.9684C5.61469 12.9674 5.62097 12.9665 5.63077 12.9665C5.64615 12.9665 5.67031 12.969 5.70287 12.9782C5.99548 13.0612 9.2312 14.3668 10.0502 14.8105C9.96026 14.8389 9.81711 14.8665 9.60921 14.8665Z" fill="#A7A3A3"/>
<path d="M16.27 10.605L14.6775 6.83504C14.6376 6.74067 14.5504 6.66912 14.4427 6.64251L13.1281 6.31825C11.4088 5.89424 9.59202 5.89424 7.87281 6.31825L6.55822 6.64251C6.45043 6.66912 6.36327 6.74067 6.32336 6.83504L4.73052 10.6056C4.68434 10.7152 4.70882 10.8387 4.79389 10.927C4.87896 11.015 5.0109 11.0534 5.13723 11.0271C5.53168 10.9441 5.95135 10.9619 6.35277 11.08C6.72097 11.1883 8.96797 11.9695 10.341 12.6142C10.3914 12.6376 10.4467 12.6497 10.502 12.6497C10.5573 12.6497 10.6126 12.6377 10.664 12.6142C12.0378 11.9692 14.2838 11.188 14.652 11.08C15.0517 10.9622 15.4689 10.9432 15.864 11.0265C15.99 11.0527 16.122 11.0141 16.207 10.9261C16.292 10.8377 16.3162 10.7142 16.27 10.605ZM14.4349 10.4777C14.0569 10.5888 11.9377 11.3225 10.502 11.9774C9.06698 11.3225 6.94737 10.5888 6.56905 10.4774C6.26278 10.3874 5.94885 10.3418 5.63524 10.3418C5.62056 10.3418 5.60551 10.3418 5.59078 10.3422L6.91341 7.21129L8.05652 6.92915C9.65498 6.53456 11.3448 6.53456 12.9432 6.92915L14.0863 7.21129L15.4089 10.3422C15.0804 10.3374 14.7542 10.384 14.4349 10.4777Z" fill="#A7A3A3"/>
<path d="M17.85 9.16626C16.7594 9.16626 15.75 9.35815 15.75 10.7496C15.75 10.9244 15.9068 11.0663 16.1 11.0663C16.2932 11.0663 16.45 10.9244 16.45 10.7496C16.45 9.98612 16.7247 9.7996 17.85 9.7996C18.0431 9.7996 18.1999 9.65774 18.1999 9.48295C18.2 9.30813 18.0432 9.16626 17.85 9.16626Z" fill="#A7A3A3"/>
<path d="M19.7165 8.21631H17.85C17.6568 8.21631 17.5 8.35818 17.5 8.53296V9.48296C17.5 10.1815 18.0757 10.7496 18.7835 10.7496H20.65C20.8432 10.7496 21 10.6077 21 10.433V9.48296C21 8.78442 20.4243 8.21631 19.7165 8.21631ZM20.3 10.1163H18.7834C18.4618 10.1163 18.2 9.83227 18.2 9.48296V8.84965H19.7165C20.0382 8.84965 20.3 9.13369 20.3 9.483V10.1163Z" fill="#A7A3A3"/>
<path d="M3.15004 9.16626C2.95685 9.16626 2.80005 9.30813 2.80005 9.48291C2.80005 9.6577 2.95685 9.79957 3.15004 9.79957C4.2753 9.79957 4.55002 9.98608 4.55002 10.7496C4.55002 10.9244 4.70682 11.0662 4.90001 11.0662C5.09319 11.0662 5.24999 10.9244 5.24999 10.7496C5.25003 9.35815 4.24064 9.16626 3.15004 9.16626Z" fill="#A7A3A3"/>
<path d="M3.15 8.21631H1.28346C0.575736 8.21631 0 8.78442 0 9.48296V10.433C0 10.6077 0.156803 10.7496 0.349986 10.7496H2.21653C2.92421 10.7496 3.49999 10.1812 3.49999 9.48296V8.53296C3.49999 8.35818 3.34318 8.21631 3.15 8.21631ZM2.80001 9.48296C2.80001 9.83224 2.53821 10.1163 2.21657 10.1163H0.700014V9.48296C0.700014 9.13369 0.961816 8.84962 1.28346 8.84962H2.80001V9.48296Z" fill="#A7A3A3"/>
<path d="M10.3974 7.67588C10.2609 7.55205 10.039 7.55205 9.90253 7.67588L8.85253 8.62588C8.71566 8.74972 8.71566 8.94985 8.85253 9.07365C8.92078 9.1354 9.0104 9.16642 9.09998 9.16642C9.1896 9.16642 9.27917 9.1354 9.34742 9.07365L10.3974 8.12365C10.5343 7.99985 10.5343 7.79972 10.3974 7.67588Z" fill="#A7A3A3"/>
<path d="M12.4975 7.99253C12.361 7.8687 12.1391 7.8687 12.0026 7.99253L9.5526 10.2092C9.41573 10.333 9.41573 10.5332 9.5526 10.6569C9.62085 10.7187 9.71047 10.7497 9.80005 10.7497C9.88967 10.7497 9.97925 10.7187 10.0475 10.6569L12.4975 8.4403C12.6344 8.31646 12.6344 8.11633 12.4975 7.99253Z" fill="#A7A3A3"/>
<path d="M12.4957 16.8546C12.4289 16.7948 12.3323 16.7584 12.2448 16.7634C12.1009 16.7653 11.9532 16.7663 11.7915 16.7663L8.75001 16.7659C8.55683 16.7659 8.40002 16.9078 8.40002 17.0826V18.9639C8.40002 19.7974 8.89213 20.0343 9.18543 20.1014C9.61909 20.2008 10.0573 20.2505 10.4965 20.2505C10.9354 20.2505 11.3754 20.2008 11.814 20.1017C12.1076 20.0352 12.6001 19.7993 12.6001 18.9639V17.0801C12.6 16.9949 12.5626 16.9138 12.4957 16.8546ZM11.9 18.9639C11.9 19.4291 11.7072 19.4731 11.6438 19.4874C10.8805 19.6603 10.1112 19.6603 9.35692 19.4877C9.29359 19.4728 9.10004 19.4288 9.10004 18.964V17.3996H11.7915C11.8283 17.3996 11.8643 17.3996 11.9 17.3996V18.9639Z" fill="#A7A3A3"/>
<path d="M12.0722 19.4524C11.9627 19.3963 11.8276 19.3979 11.7194 19.4568C11.6907 19.4726 11.6673 19.4818 11.6438 19.4872C10.8801 19.6601 10.1108 19.6604 9.35691 19.4875C9.33312 19.4821 9.30966 19.4726 9.28025 19.4565C9.17209 19.3976 9.03699 19.396 8.92744 19.4521C8.81756 19.5084 8.74963 19.6139 8.74963 19.7279V23.8084C8.74963 24.4652 9.32537 24.9997 10.0331 24.9997H10.9665C11.6742 24.9997 12.25 24.4652 12.25 23.8084V19.7282C12.25 19.6142 12.1821 19.5087 12.0722 19.4524ZM11.5504 23.8084C11.5504 24.1159 11.2886 24.3664 10.9669 24.3664H10.0335C9.71186 24.3664 9.45006 24.1162 9.45006 23.8084V20.156C10.1448 20.2823 10.849 20.282 11.5504 20.1553V23.8084V23.8084Z" fill="#A7A3A3"/>
<path d="M14.5747 16.6305C14.4953 16.5704 14.3903 16.545 14.2881 16.5621C13.4085 16.7056 12.4264 16.755 12.2385 16.7635C12.0502 16.772 11.8983 16.9136 11.9 17.0834V18.964C11.9 19.1116 11.8766 19.3716 11.7201 19.4571C11.6144 19.5141 11.55 19.617 11.55 19.7284V22.1497C11.55 22.3245 11.7069 22.4663 11.9 22.4663H12.949C13.9146 22.4663 14.7 21.7557 14.7 20.8821V16.8737C14.7 16.7797 14.6542 16.6907 14.5747 16.6305ZM14 20.8821C14 21.4065 13.5286 21.8331 12.949 21.8331H12.25V19.8811C12.4341 19.7193 12.6 19.4406 12.6 18.9637V17.3779C12.9346 17.357 13.461 17.3164 14 17.2455V20.8821H14Z" fill="#A7A3A3"/>
<path d="M9.27996 19.4568C9.12352 19.3719 9.10006 19.1117 9.10006 18.9641V17.0827C9.10006 16.9083 8.94396 16.7664 8.75077 16.7661C8.12812 16.7648 7.64967 16.7531 6.70783 16.6106C6.60668 16.5951 6.50275 16.6211 6.42396 16.6812C6.34521 16.7414 6.30005 16.8297 6.30005 16.9228V20.8821C6.30005 21.7558 7.08546 22.4664 8.05109 22.4664H9.10002C9.2932 22.4664 9.45001 22.3245 9.45001 22.1494V19.7282C9.45005 19.6171 9.38565 19.5141 9.27996 19.4568ZM8.75003 21.8331H8.05109C7.4715 21.8331 7.00002 21.4065 7.00002 20.8821V17.293C7.57998 17.3687 7.98214 17.3902 8.40001 17.3969V18.964C8.40001 19.4409 8.56592 19.7193 8.74999 19.8814V21.8331H8.75003Z" fill="#A7A3A3"/>
<circle cx="23" cy="5" r="5" fill="#A7A3A3"/>
<path d="M20.9967 2.64305C21.0435 2.68992 21.0698 2.75346 21.0698 2.81971C21.0698 2.88596 21.0435 2.9495 20.9967 2.99638C20.7336 3.25948 20.5248 3.57183 20.3825 3.91559C20.2401 4.25935 20.1668 4.62779 20.1668 4.99988C20.1668 5.37197 20.2401 5.74041 20.3825 6.08417C20.5248 6.42793 20.7336 6.74028 20.9967 7.00338C21.0422 7.05055 21.0674 7.11371 21.0668 7.17926C21.0662 7.24481 21.0398 7.3075 20.9935 7.35383C20.9471 7.40016 20.8844 7.42643 20.8188 7.42696C20.7533 7.4275 20.6901 7.40227 20.643 7.35671C19.3413 6.05505 19.3413 3.94471 20.643 2.64305C20.6899 2.59623 20.7534 2.56993 20.8197 2.56993C20.8859 2.56993 20.9495 2.59623 20.9963 2.64305H20.9967ZM25.357 2.64305C26.6587 3.94471 26.6587 6.05505 25.357 7.35705C25.3096 7.40121 25.2469 7.42525 25.1822 7.4241C25.1174 7.42296 25.0556 7.39672 25.0098 7.35092C24.964 7.30511 24.9377 7.24332 24.9366 7.17855C24.9355 7.11379 24.9595 7.0511 25.0037 7.00371C25.2668 6.74061 25.4756 6.42824 25.618 6.08444C25.7604 5.74065 25.8337 5.37217 25.8337 5.00005C25.8337 4.62792 25.7604 4.25944 25.618 3.91565C25.4756 3.57186 25.2668 3.25949 25.0037 2.99638C24.9791 2.97349 24.9594 2.94589 24.9457 2.91523C24.9321 2.88456 24.9247 2.85145 24.9241 2.81789C24.9235 2.78432 24.9297 2.75098 24.9423 2.71985C24.9549 2.68872 24.9736 2.66044 24.9973 2.6367C25.0211 2.61296 25.0493 2.59425 25.0805 2.58167C25.1116 2.5691 25.1449 2.56292 25.1785 2.56352C25.2121 2.56411 25.2452 2.57146 25.2758 2.58512C25.3065 2.59878 25.3341 2.61848 25.357 2.64305V2.64305ZM21.9393 3.58571C21.9861 3.63259 22.0124 3.69613 22.0124 3.76238C22.0124 3.82863 21.9861 3.89217 21.9393 3.93905C21.8 4.07834 21.6895 4.24372 21.614 4.42574C21.5386 4.60776 21.4998 4.80286 21.4998 4.99988C21.4998 5.1969 21.5386 5.392 21.614 5.57402C21.6895 5.75604 21.8 5.92142 21.9393 6.06071C21.9835 6.1081 22.0075 6.17079 22.0064 6.23555C22.0052 6.30032 21.979 6.36211 21.9332 6.40792C21.8874 6.45372 21.8256 6.47996 21.7608 6.4811C21.6961 6.48225 21.6334 6.45821 21.586 6.41405C21.211 6.03898 21.0003 5.53029 21.0003 4.99988C21.0003 4.46947 21.211 3.96078 21.586 3.58571C21.6329 3.5389 21.6964 3.5126 21.7627 3.5126C21.8289 3.5126 21.8925 3.5389 21.9393 3.58571ZM24.4143 3.58571C24.7894 3.96078 25.0001 4.46947 25.0001 4.99988C25.0001 5.53029 24.7894 6.03898 24.4143 6.41405C24.3913 6.43793 24.3637 6.45699 24.3332 6.47011C24.3027 6.48322 24.2699 6.49014 24.2367 6.49044C24.2035 6.49074 24.1706 6.48443 24.1399 6.47188C24.1091 6.45932 24.0812 6.44077 24.0577 6.41731C24.0343 6.39385 24.0157 6.36595 24.0031 6.33523C23.9905 6.30451 23.9842 6.27159 23.9844 6.2384C23.9847 6.2052 23.9916 6.17239 24.0047 6.14189C24.0178 6.11138 24.0368 6.08379 24.0607 6.06071C24.2 5.92142 24.3104 5.75606 24.3858 5.57407C24.4612 5.39209 24.5 5.19703 24.5 5.00005C24.5 4.80306 24.4612 4.60801 24.3858 4.42602C24.3104 4.24403 24.2 4.07867 24.0607 3.93938C24.0165 3.89199 23.9925 3.82931 23.9936 3.76454C23.9947 3.69977 24.021 3.63798 24.0668 3.59217C24.1126 3.54637 24.1744 3.52013 24.2392 3.51899C24.3039 3.51784 24.3666 3.54189 24.414 3.58605L24.4143 3.58571ZM23 4.50005C23.1326 4.50005 23.2598 4.55272 23.3536 4.64649C23.4473 4.74026 23.5 4.86744 23.5 5.00005C23.5 5.13265 23.4473 5.25983 23.3536 5.3536C23.2598 5.44737 23.1326 5.50005 23 5.50005C22.8674 5.50005 22.7402 5.44737 22.6464 5.3536C22.5527 5.25983 22.5 5.13265 22.5 5.00005C22.5 4.86744 22.5527 4.74026 22.6464 4.64649C22.7402 4.55272 22.8674 4.50005 23 4.50005Z" fill="white"/>
</svg>
