<?xml version="1.0" encoding="UTF-8"?>
<svg width="21px" height="16px" viewBox="0 0 21 16" version="1.1" xmlns="http://www.w3.org/2000/svg" xmlns:xlink="http://www.w3.org/1999/xlink">
    <!-- Generator: Sketch 58 (84663) - https://sketch.com -->
    <title>delivery-truck-with-circular-clock</title>
    <desc>Created with Sketch.</desc>
    <g id="Page-1" stroke="none" stroke-width="1" fill="none" fill-rule="evenodd">
        <g id="Credr-Pro" transform="translate(-24.000000, -264.000000)" fill="#A0A0A0" fill-rule="nonzero">
            <g id="left-nav" transform="translate(0.000000, 50.000000)">
                <g id="delivery-truck-with-circular-clock" transform="translate(24.000000, 214.000000)">
                    <path d="M19.9428259,12.0126038 L19.3116601,12.0126038 L19.3116601,8.5141051 C19.3116601,8.10475331 19.1870114,7.70315538 18.955804,7.36335936 L17.3739282,5.04128906 C16.986877,4.47492965 16.342738,4.13510092 15.6517897,4.13510092 L13.1997501,4.13510092 C12.9114341,4.13510092 12.6802597,4.36680084 12.6802597,4.6499969 L12.6802597,12.0126692 L8.66450029,12.0126692 C9.04633579,12.3395748 9.30867234,12.7952535 9.3840029,13.3101495 L13.6179305,13.3101495 C13.7685586,12.2881441 14.6569443,11.4977732 15.7296951,11.4977732 C16.8024789,11.4977732 17.6882237,12.2881441 17.8389178,13.3101495 L19.9428589,13.3101495 C20.0857295,13.3101495 20.2026206,13.1942996 20.2026206,13.0527015 L20.2026206,12.2700845 C20.2026206,12.1285192 20.0857295,12.0126038 19.9428259,12.0126038 Z M17.3557393,7.82672649 L14.1192319,7.82672649 C13.9763944,7.82672649 13.8595033,7.71342843 13.8595033,7.5692785 L13.8595033,5.79040415 C13.8595033,5.64880612 13.9763944,5.53295616 14.1192319,5.53295616 L16.0907668,5.53295616 C16.1764958,5.53295616 16.2544012,5.57414653 16.3037523,5.64108497 L17.5687247,7.42254394 C17.6881907,7.59247466 17.5661169,7.82672649 17.3557393,7.82672649 Z M15.7296951,12.0126038 C14.8361597,12.0126038 14.1140493,12.7308343 14.1140493,13.6164109 C14.1140493,14.4994356 14.8361597,15.2176661 15.7296951,15.2176661 C16.6206226,15.2176661 17.3453409,14.4994356 17.3453409,13.6164109 C17.3453409,12.7308997 16.6206226,12.0126038 15.7296951,12.0126038 Z M15.7296951,14.4171203 C15.2828944,14.4171203 14.9218557,14.0567127 14.9218557,13.616509 C14.9218557,13.173688 15.2828944,12.8158324 15.7296951,12.8158324 C16.1764297,12.8158324 16.5375345,13.173688 16.5375345,13.616509 C16.5375345,14.0567127 16.1764628,14.4171203 15.7296951,14.4171203 Z M2.25905863,12.0126038 C2.11618804,12.0126038 1.99929692,12.1285192 1.99929692,12.2700518 L1.99929692,13.0527015 C1.99929692,13.1942996 2.11618804,13.3101495 2.25905863,13.3101495 L5.16304855,13.3101495 C5.23837911,12.7952535 5.50071565,12.3395748 5.87997632,12.0126692 L2.25905863,12.0126692 L2.25905863,12.0126038 Z M7.27220529,12.0126038 C6.38127778,12.0126038 5.65655947,12.7308343 5.65655947,13.6164109 C5.65655947,14.4994356 6.38127778,15.2176661 7.27220529,15.2176661 C8.16574065,15.2176661 8.88785112,14.4994356 8.88785112,13.6164109 C8.88788413,12.7308997 8.16577366,12.0126038 7.27220529,12.0126038 Z M7.27220529,14.4171203 C6.82543761,14.4171203 6.46439889,14.0567127 6.46439889,13.616509 C6.46439889,13.173688 6.82543761,12.8158324 7.27220529,12.8158324 C7.71897297,12.8158324 8.08004471,13.173688 8.08004471,13.616509 C8.08004471,14.0567127 7.71897297,14.4171203 7.27220529,14.4171203 Z M11.1581004,2.53898226 L8.14758473,2.53898226 C8.29563801,2.97404941 8.37357642,3.44000116 8.37357642,3.92142792 C8.37357642,6.35162703 6.37870294,8.32873208 3.92666339,8.32873208 C3.4798627,8.32873208 3.04610126,8.26182635 2.63828628,8.14080715 L2.63828628,10.9854946 C2.63828628,11.1270926 2.7551774,11.2429426 2.89804798,11.2429426 L11.6775908,11.2429426 C11.8204944,11.2429426 11.9373525,11.1270926 11.9373525,10.9854946 L11.9373525,3.31129352 C11.9373525,2.88394752 11.589254,2.53898226 11.1581004,2.53898226 Z M3.92725758,0.028332693 C1.75828533,0.028332693 0,1.77092418 0,3.92057728 C0,6.07023039 1.75828533,7.81285459 3.92725758,7.81285459 C6.09622983,7.81285459 7.85454818,6.07023039 7.85454818,3.92057728 C7.85454818,1.77092418 6.09622983,0.028332693 3.92725758,0.028332693 Z M3.92725758,6.92711441 C2.25189529,6.92711441 0.893700414,5.58104976 0.893700414,3.92057728 C0.893700414,2.26010481 2.25189529,0.914040157 3.92725758,0.914040157 C5.60265289,0.914040157 6.96081476,2.26013752 6.96081476,3.92057728 C6.96081476,5.58104976 5.60265289,6.92711441 3.92725758,6.92711441 Z M5.08583637,4.55554369 C5.05236345,4.55554369 5.01809828,4.5512578 4.98409719,4.54222798 L3.71836547,4.20410051 C3.54842606,4.15859154 3.43021451,4.00577166 3.43021451,3.8312606 L3.43021451,1.90048245 C3.43021451,1.6873002 3.60474242,1.51432682 3.81984056,1.51432682 C4.0349387,1.51432682 4.20946661,1.6873002 4.20946661,1.90048245 L4.20946661,3.53537044 L5.18704737,3.79654814 C5.39481712,3.85210116 5.51781523,4.06407289 5.46176295,4.26992659 C5.41485465,4.44214748 5.25759137,4.55554369 5.08583637,4.55554369 Z" id="Shape"></path>
                    <path d="M5.08583637,4.55554369 C5.05236345,4.55554369 5.01809828,4.5512578 4.98409719,4.54222798 L3.71836547,4.20410051 C3.54842606,4.15859154 3.43021451,4.00577166 3.43021451,3.8312606 L3.43021451,1.90048245 C3.43021451,1.6873002 3.60474242,1.51432682 3.81984056,1.51432682 C4.0349387,1.51432682 4.20946661,1.6873002 4.20946661,1.90048245 L4.20946661,3.53537044 L5.18704737,3.79654814 C5.39481712,3.85210116 5.51781523,4.06407289 5.46176295,4.26992659 C5.41485465,4.44214748 5.25759137,4.55554369 5.08583637,4.55554369 Z" id="Shape"></path>
                </g>
            </g>
        </g>
    </g>
</svg>