<svg width="24" height="21" viewBox="0 0 24 21" fill="none" xmlns="http://www.w3.org/2000/svg">
<path d="M20.532 5.68753C20.6157 5.68753 20.696 5.65461 20.7553 5.596C20.8145 5.5374 20.8477 5.45791 20.8477 5.37503V4.33441C20.8474 4.06299 20.7383 3.80279 20.5444 3.61087C20.3504 3.41895 20.0875 3.31099 19.8132 3.31066H18.1162L17.729 2.18003C17.7027 2.10314 17.6472 2.0394 17.5742 2.00231C17.5012 1.96521 17.4165 1.95767 17.3381 1.98128L8.14669 4.74628C8.07062 4.77375 8.00808 4.82903 7.97195 4.90076C7.93583 4.97248 7.92886 5.05518 7.9525 5.13182C7.97613 5.20847 8.02856 5.27324 8.09899 5.31278C8.16943 5.35233 8.2525 5.36365 8.33111 5.34441L17.2294 2.66691L18.0776 5.14503C18.1045 5.22352 18.1618 5.28822 18.2369 5.32491C18.312 5.3616 18.3987 5.36726 18.4781 5.34066C18.5574 5.31405 18.6228 5.25736 18.6598 5.18305C18.6969 5.10874 18.7026 5.0229 18.6757 4.94441L18.3303 3.93503H19.8138C20.0362 3.93503 20.2168 4.11378 20.2168 4.33378V5.37503C20.2162 5.54753 20.3576 5.68753 20.532 5.68753Z" fill="#A7A3A3"/>
<path d="M23.0526 10.3746C22.9689 10.3746 22.8886 10.4075 22.8293 10.4661C22.7701 10.5247 22.7368 10.6042 22.7368 10.6871C22.7368 10.77 22.7701 10.8494 22.8293 10.908C22.8886 10.9667 22.9689 10.9996 23.0526 10.9996C23.2743 10.9996 23.3684 11.0927 23.3684 11.3121V15.0621C23.3684 15.2815 23.2743 15.3746 23.0526 15.3746H18C17.7783 15.3746 17.6842 15.2815 17.6842 15.0621V11.9371C17.6842 11.7177 17.7783 11.6246 18 11.6246H21.7895C21.8732 11.6246 21.9535 11.5917 22.0128 11.533C22.072 11.4744 22.1053 11.395 22.1053 11.3121V7.56208C22.1053 6.9927 21.7333 6.62458 21.1579 6.62458H1.89474C1.116 6.62458 0.631579 6.1452 0.631579 5.37458C0.631579 4.60395 1.116 4.12458 1.89474 4.12458H5.10063L3.18947 4.74833C3.14866 4.75997 3.11064 4.77965 3.07769 4.80617C3.04474 4.8327 3.01754 4.86553 2.99771 4.9027C2.97788 4.93987 2.96583 4.98062 2.96229 5.0225C2.95874 5.06439 2.96377 5.10655 2.97708 5.14647C2.99038 5.18639 3.01169 5.22324 3.03972 5.25482C3.06775 5.2864 3.10193 5.31206 3.14021 5.33026C3.1785 5.34847 3.2201 5.35884 3.26253 5.36076C3.30497 5.36268 3.34735 5.35612 3.38716 5.34145L14.8307 1.60833C14.8701 1.59544 14.9066 1.575 14.938 1.54818C14.9694 1.52135 14.9952 1.48867 15.0138 1.45199C15.0325 1.41531 15.0436 1.37535 15.0467 1.3344C15.0497 1.29345 15.0446 1.25231 15.0316 1.21333C15.0186 1.17434 14.9979 1.13827 14.9708 1.10719C14.9437 1.0761 14.9107 1.0506 14.8736 1.03214C14.8365 1.01369 14.7962 1.00264 14.7548 0.999623C14.7134 0.996609 14.6718 1.00169 14.6324 1.01458L6.99032 3.50833C6.97579 3.50583 6.96253 3.49958 6.94737 3.49958H1.89474C0.761684 3.49958 0 4.25333 0 5.37458V19.1246C0 20.2458 0.761684 20.9996 1.89474 20.9996H21.1579C21.7333 20.9996 22.1053 20.6315 22.1053 20.0621V16.9371C22.1053 16.8542 22.072 16.7747 22.0128 16.7161C21.9535 16.6575 21.8732 16.6246 21.7895 16.6246C21.7057 16.6246 21.6254 16.6575 21.5662 16.7161C21.507 16.7747 21.4737 16.8542 21.4737 16.9371V20.0621C21.4737 20.2815 21.3796 20.3746 21.1579 20.3746H1.89474C1.116 20.3746 0.631579 19.8952 0.631579 19.1246V6.81958C0.955579 7.0902 1.38442 7.24958 1.89474 7.24958H21.1579C21.3796 7.24958 21.4737 7.3427 21.4737 7.56208V10.9996H18C17.4246 10.9996 17.0526 11.3677 17.0526 11.9371V15.0621C17.0526 15.6315 17.4246 15.9996 18 15.9996H23.0526C23.628 15.9996 24 15.6315 24 15.0621V11.3121C24 10.7427 23.628 10.3746 23.0526 10.3746Z" fill="#A7A3A3"/>
<path d="M20.2106 14.125C20.5594 14.125 20.8421 13.8452 20.8421 13.5C20.8421 13.1548 20.5594 12.875 20.2106 12.875C19.8617 12.875 19.579 13.1548 19.579 13.5C19.579 13.8452 19.8617 14.125 20.2106 14.125Z" fill="#A7A3A3"/>
</svg>
