<?xml version="1.0" encoding="UTF-8"?>
<svg width="19px" height="20px" viewBox="0 0 19 20" version="1.1" xmlns="http://www.w3.org/2000/svg" xmlns:xlink="http://www.w3.org/1999/xlink">
    <!-- Generator: Sketch 60.1 (88133) - https://sketch.com -->
    <title>black-and-white-credit-cards</title>
    <desc>Created with Sketch.</desc>
    <g id="Page-1" stroke="none" stroke-width="1" fill="none" fill-rule="evenodd">
        <g id="fhd-onboarding-profile" transform="translate(-26.000000, -314.000000)" fill="#A0A0A0" fill-rule="nonzero">
            <g id="left-nav" transform="translate(0.000000, 50.000000)">
                <g id="black-and-white-credit-cards" transform="translate(26.000000, 264.000000)">
                    <path d="M18.3842847,9.29560485 L9.60843985,0.518869992 C9.26267485,0.173104997 8.80966486,0 8.35665487,0 C7.90364487,0 7.45018988,0.173104997 7.10486989,0.518869992 L2.29886996,5.32397991 C1.60733997,6.0155099 1.60733997,7.15826988 2.29886996,7.84979987 L3.09541995,8.66815486 L4.93282492,8.66815486 L3.21779495,6.93087489 C3.09764495,6.81027989 3.07984495,6.65942489 3.07984495,6.58644489 C3.07984495,6.5134649 3.09764495,6.3679499 3.21779495,6.2477999 L3.85236494,5.63280991 L6.86812989,8.66815486 L9.76107484,8.66815486 L5.29861491,4.18344493 L8.02334987,1.44802998 C8.14349987,1.32787998 8.28367487,1.30518498 8.35665487,1.30518498 C8.42963486,1.30518498 8.56980986,1.32031498 8.68995986,1.44001998 L17.4662497,10.2154198 C17.5868447,10.3360148 17.6050897,10.4748548 17.6050897,10.5482798 C17.6050897,10.6212598 17.5739397,10.7609898 17.4533447,10.8815848 L16.9558347,11.3670798 L16.9558347,13.2044848 L18.3727147,11.8005098 C19.0637997,11.1076448 19.0762597,9.98713484 18.3842847,9.29560485 Z" id="Path"></path>
                    <path d="M14.2666998,9.49095985 L1.85431497,9.49095985 C0.876649986,9.49095985 0.0404949993,10.2786098 0.0404949993,11.2562748 L0.0404949993,15.9510247 L16.0151047,15.9510247 L16.0151047,11.2562748 C16.0151047,10.2786098 15.2443648,9.49095985 14.2666998,9.49095985 Z M4.37835493,14.3525848 C4.03169994,14.3525848 3.71797494,14.2146348 3.48657494,13.9921348 C3.25517495,14.2146348 2.94100495,14.3525848 2.59523996,14.3525848 C1.88412997,14.3525848 1.30696498,13.7763098 1.30696498,13.0638648 C1.30696498,12.3523098 1.88368497,11.7755898 2.59523996,11.7755898 C2.94144995,11.7755898 3.25561995,11.9130948 3.48657494,12.1355948 C3.71797494,11.9130948 4.03169994,11.7755898 4.37835493,11.7755898 C5.08990992,11.7755898 5.66662991,12.3523098 5.66662991,13.0638648 C5.66662991,13.7763098 5.08990992,14.3525848 4.37835493,14.3525848 Z" id="Shape"></path>
                    <path d="M0.0404949993,18.0518697 C0.0404949993,19.0295347 0.876204986,19.8274197 1.85431497,19.8274197 L14.2666998,19.8274197 C15.2443648,19.8274197 16.0155497,19.0295347 16.0155497,18.0518697 L16.0155497,17.9477397 L0.0404949993,17.9477397 L0.0404949993,18.0518697 Z" id="Path"></path>
                </g>
            </g>
        </g>
    </g>
</svg>