<svg width="24" height="24" viewBox="0 0 24 24" fill="none" xmlns="http://www.w3.org/2000/svg">
<path d="M14.4 2.22003C13.572 3.04803 12.864 3.72003 12.816 3.72003C12.756 3.72003 12.72 3.46803 12.72 3.14403C12.72 2.52003 12.42 1.90803 11.976 1.65603C11.76 1.53603 10.62 1.50003 6.75597 1.50003C1.95597 1.50003 1.81197 1.51203 1.47597 1.75203C1.29597 1.88403 1.04397 2.18403 0.935971 2.41203C0.731971 2.79603 0.719971 3.51603 0.719971 12.42C0.719971 21.492 0.731971 22.044 0.935971 22.428C1.05597 22.656 1.34397 22.944 1.57197 23.064C1.95597 23.268 2.53197 23.28 12.48 23.28C20.496 23.28 23.028 23.244 23.136 23.136C23.34 22.932 23.34 15.348 23.136 15.144C23.028 15.036 22.092 15 19.692 15H16.38L19.848 11.532C22.86 8.52003 23.292 8.04003 23.184 7.84803C23.004 7.53603 16.152 0.720028 16.008 0.720028C15.948 0.720028 15.228 1.39203 14.4 2.22003ZM16.68 2.34003L17.328 2.98803L16.884 3.18003C16.644 3.27603 16.26 3.36003 16.02 3.36003C15.576 3.36003 14.76 3.07203 14.76 2.91603C14.76 2.80803 15.852 1.68003 15.96 1.68003C15.996 1.68003 16.32 1.98003 16.68 2.34003ZM11.808 2.54403C11.94 2.72403 12 3.08403 12 3.62403V4.44003H6.77997H1.55997V3.55203C1.55997 2.90403 1.60797 2.60403 1.75197 2.47203C1.90797 2.30403 2.53197 2.28003 6.77997 2.28003H11.628L11.808 2.54403ZM16.032 4.08003C16.572 4.08003 16.896 4.00803 17.292 3.79203L17.82 3.50403L19.152 4.82403L20.484 6.13203L20.196 6.68403C19.836 7.41603 19.824 8.42403 20.184 9.25203L20.436 9.86403L19.008 11.316C15.228 15.18 12.888 17.52 12.804 17.52C12.756 17.52 12.732 16.836 12.744 15.984L12.78 14.46L13.092 14.424C13.68 14.352 14.664 13.656 15.06 13.032C15.348 12.552 15.42 12.288 15.456 11.592C15.492 10.836 15.456 10.656 15.156 10.08C14.76 9.32403 13.932 8.68803 13.188 8.56803L12.72 8.48403V6.69603V4.90803L13.392 4.20003L14.064 3.50403L14.676 3.79203C15.12 3.99603 15.516 4.08003 16.032 4.08003ZM12 12.36V19.44H6.77997H1.55997V12.36V5.28003H6.77997H12V12.36ZM21.78 8.64003C21.456 8.96403 21.144 9.24003 21.084 9.24003C20.928 9.24003 20.64 8.43603 20.64 7.98003C20.64 7.74003 20.724 7.35603 20.82 7.11603L21.012 6.67203L21.696 7.35603L22.38 8.04003L21.78 8.64003ZM13.404 9.42003C14.004 9.67203 14.268 9.92403 14.532 10.5C14.82 11.124 14.82 11.892 14.532 12.456C14.268 12.96 14.016 13.212 13.476 13.488C12.708 13.872 12.72 13.908 12.72 11.46C12.72 10.008 12.768 9.24003 12.84 9.24003C12.912 9.24003 13.164 9.32403 13.404 9.42003ZM22.44 16.08V16.44H18.696H14.952L15.3 16.08L15.648 15.72H19.044H22.44V16.08ZM22.44 17.64V18H17.916H13.392L13.74 17.64L14.088 17.28H18.264H22.44V17.64ZM22.44 20.58V22.44H17.508C13.056 22.44 12.576 22.416 12.648 22.248C12.684 22.14 12.72 21.984 12.72 21.888C12.72 21.744 13.14 21.72 15.18 21.72H17.64V21.36V21H15.18H12.72V20.64C12.72 20.4 12.78 20.28 12.9 20.28C13.02 20.28 13.08 20.148 13.08 19.86C13.08 19.572 13.02 19.44 12.9 19.44C12.78 19.44 12.72 19.32 12.72 19.08V18.72H17.58H22.44V20.58ZM12 21.144C12 22.548 12.42 22.44 6.71997 22.44C3.09597 22.44 1.81197 22.404 1.70397 22.296C1.61997 22.212 1.55997 21.78 1.55997 21.216V20.28H6.77997H12V21.144Z" fill="#A7A3A3"/>
<path d="M5.28003 3.35997V3.71997H6.78003H8.28003V3.35997V2.99997H6.78003H5.28003V3.35997Z" fill="#A7A3A3"/>
<path d="M15.18 8.27985C14.964 8.51985 14.964 8.53185 15.216 8.79585L15.48 9.04785L15.72 8.80785L15.96 8.56785L15.684 8.30385L15.396 8.03985L15.18 8.27985Z" fill="#A7A3A3"/>
<path d="M13.9199 19.86C13.9199 20.244 13.9439 20.28 14.2799 20.28C14.6159 20.28 14.6399 20.244 14.6399 19.86C14.6399 19.476 14.6159 19.44 14.2799 19.44C13.9439 19.44 13.9199 19.476 13.9199 19.86Z" fill="#A7A3A3"/>
<path d="M15.36 19.86C15.36 20.244 15.384 20.28 15.72 20.28C16.056 20.28 16.08 20.244 16.08 19.86C16.08 19.476 16.056 19.44 15.72 19.44C15.384 19.44 15.36 19.476 15.36 19.86Z" fill="#A7A3A3"/>
<path d="M16.9199 19.86C16.9199 20.244 16.9439 20.28 17.2799 20.28C17.6159 20.28 17.6399 20.244 17.6399 19.86C17.6399 19.476 17.6159 19.44 17.2799 19.44C16.9439 19.44 16.9199 19.476 16.9199 19.86Z" fill="#A7A3A3"/>
<path d="M18.552 19.5959C18.384 19.7159 18.36 19.9079 18.384 20.6999L18.42 21.6599H20.04H21.66L21.696 20.6999C21.72 19.9079 21.696 19.7159 21.528 19.5959C21.24 19.3799 18.84 19.3799 18.552 19.5959ZM21 20.6399V20.9999H20.04H19.08V20.6399V20.2799H20.04H21V20.6399Z" fill="#A7A3A3"/>
<path d="M6.35999 21.36C6.35999 21.684 6.39599 21.72 6.71999 21.72C7.04399 21.72 7.07999 21.684 7.07999 21.36C7.07999 21.036 7.04399 21 6.71999 21C6.39599 21 6.35999 21.036 6.35999 21.36Z" fill="#A7A3A3"/>
<path d="M8.38998 10.8V10.2H4.97998V10.8H6.06498C6.4686 10.8 6.80929 11.0514 6.93763 11.4H4.97998V12H6.93763C6.874 12.1749 6.75595 12.3265 6.59969 12.434C6.44344 12.5414 6.25665 12.5994 6.06498 12.6H4.97998V13.3242L6.71164 15H7.58832L5.72832 13.2H6.06498C6.42209 13.1995 6.76811 13.0799 7.0447 12.8613C7.32129 12.6427 7.51154 12.3385 7.58336 12H8.38998V11.4H7.58336C7.53584 11.1816 7.43792 10.9765 7.29692 10.8H8.38998Z" fill="#A7A3A3"/>
</svg>
