<svg width="29" height="25" viewBox="0 0 29 25" fill="none" xmlns="http://www.w3.org/2000/svg">
<circle cx="24" cy="5" r="5" fill="#A7A3A3"/>
<path d="M24 1.25C24.7562 1.25002 25.4947 1.47867 26.1187 1.90595C26.7426 2.33322 27.2228 2.93915 27.4962 3.64421C27.7696 4.34927 27.8235 5.12052 27.6507 5.85673C27.4779 6.59295 27.0866 7.25973 26.5281 7.76957C25.9696 8.27941 25.27 8.60848 24.5211 8.7136C23.7723 8.81871 23.0091 8.69496 22.3318 8.35859C21.6545 8.02221 21.0948 7.48893 20.726 6.82873C20.3572 6.16853 20.1967 5.41225 20.2654 4.65917C20.2691 4.6183 20.2808 4.57855 20.2999 4.5422C20.3189 4.50585 20.3449 4.47361 20.3765 4.44732C20.408 4.42103 20.4443 4.4012 20.4835 4.38897C20.5227 4.37674 20.5639 4.37235 20.6048 4.37604C20.6457 4.37974 20.6854 4.39144 20.7217 4.4105C20.7581 4.42955 20.7903 4.45558 20.8166 4.48709C20.8429 4.51861 20.8627 4.55499 20.875 4.59417C20.8872 4.63334 20.8916 4.67455 20.8879 4.71542C20.845 5.17199 20.9037 5.63239 21.0598 6.0636C21.2158 6.49482 21.4653 6.88616 21.7904 7.20959C22.08 7.50052 22.4244 7.7312 22.8036 7.88832C23.1829 8.04544 23.5895 8.12588 24 8.125C24.5327 8.1249 25.0565 7.98862 25.5217 7.72912C25.9869 7.46961 26.3781 7.09549 26.658 6.64229C26.938 6.18909 27.0974 5.67185 27.1212 5.13969C27.145 4.60752 27.0324 4.07811 26.7941 3.60171C26.5557 3.12532 26.1995 2.71777 25.7594 2.41775C25.3192 2.11774 24.8096 1.93522 24.2791 1.88754C23.7485 1.83986 23.2146 1.9286 22.728 2.14533C22.2413 2.36205 21.8182 2.69957 21.4987 3.12584H22.6471C22.7262 3.12586 22.8025 3.15594 22.8603 3.20999C22.9182 3.26404 22.9533 3.33804 22.9587 3.41704C22.9641 3.49603 22.9394 3.57412 22.8894 3.63554C22.8394 3.69696 22.768 3.73713 22.6896 3.74792L22.6471 3.75084H20.7708C20.6953 3.75083 20.6223 3.72348 20.5654 3.67385C20.5085 3.62421 20.4715 3.55565 20.4612 3.48084L20.4583 3.43834V1.56333C20.4583 1.48416 20.4884 1.40794 20.5425 1.35009C20.5965 1.29223 20.6705 1.25705 20.7495 1.25166C20.8285 1.24626 20.9066 1.27105 20.968 1.32101C21.0294 1.37098 21.0696 1.4424 21.0804 1.52083L21.0833 1.56333L21.0829 2.64292C21.4342 2.20757 21.8786 1.85648 22.3834 1.61543C22.8882 1.37438 23.4406 1.24952 24 1.25V1.25ZM23.6875 2.91667C23.763 2.91667 23.836 2.94402 23.8929 2.99365C23.9498 3.04329 23.9868 3.11185 23.9971 3.18667L24 3.22917V5H24.9375C25.0167 5.00003 25.0929 5.0301 25.1507 5.08416C25.2086 5.13821 25.2438 5.21221 25.2492 5.2912C25.2546 5.37019 25.2298 5.44829 25.1798 5.50971C25.1298 5.57113 25.0584 5.61129 24.98 5.62209L24.9375 5.625H23.6875C23.612 5.625 23.539 5.59765 23.4821 5.54802C23.4252 5.49838 23.3882 5.42982 23.3779 5.355L23.375 5.3125V3.22917C23.375 3.14629 23.4079 3.0668 23.4665 3.0082C23.5251 2.94959 23.6046 2.91667 23.6875 2.91667V2.91667Z" fill="white"/>
<path d="M5 6H18C18.7956 6 19.5587 6.31607 20.1213 6.87868C20.6839 7.44129 21 8.20435 21 9V18C21 18.7956 20.6839 19.5587 20.1213 20.1213C19.5587 20.6839 18.7956 21 18 21H5C4.20435 21 3.44129 20.6839 2.87868 20.1213C2.31607 19.5587 2 18.7956 2 18V9C2 8.20435 2.31607 7.44129 2.87868 6.87868C3.44129 6.31607 4.20435 6 5 6V6ZM5 7C4.46957 7 3.96086 7.21071 3.58579 7.58579C3.21071 7.96086 3 8.46957 3 9V10H20V9C20 8.46957 19.7893 7.96086 19.4142 7.58579C19.0391 7.21071 18.5304 7 18 7H5ZM3 18C3 18.5304 3.21071 19.0391 3.58579 19.4142C3.96086 19.7893 4.46957 20 5 20H18C18.5304 20 19.0391 19.7893 19.4142 19.4142C19.7893 19.0391 20 18.5304 20 18V13H3V18ZM5 17H9V18H5V17ZM11 17H14V18H11V17ZM3 11V12H20V11H3Z" fill="#A7A3A3"/>
</svg>
