<svg width="27" height="26" viewBox="0 0 27 26" fill="none" xmlns="http://www.w3.org/2000/svg">
<path d="M15.8788 13.5219C15.682 13.3404 15.3923 13.2866 15.0832 13.374C14.7633 13.4646 11.2658 14.8725 10.507 15.3114C10.0786 15.559 10.1409 15.8731 10.1699 15.9637C10.2784 16.2994 10.7341 16.4998 11.3918 16.4998L11.9472 16.4957C12.6752 16.4957 13.077 16.4957 14.2253 16.3133C15.4423 16.1202 15.764 15.1952 15.9564 14.6423C15.9764 14.5849 15.9957 14.5305 16.0146 14.4792C16.1609 14.0855 16.1112 13.7366 15.8788 13.5219ZM15.3513 14.2777C15.331 14.3325 15.3107 14.3911 15.2894 14.4522C15.1081 14.9728 14.903 15.5631 14.105 15.6898C13.0158 15.8627 12.6585 15.8627 11.9465 15.8627C11.9455 15.8627 11.9445 15.8627 11.9438 15.8627L11.3894 15.8664C11.18 15.8664 11.0362 15.8389 10.9456 15.8104C11.7649 15.3668 15.0003 14.0611 15.2929 13.9782C15.3468 13.9629 15.3773 13.9658 15.3787 13.9649C15.3912 13.9785 15.4262 14.0764 15.3513 14.2777Z" fill="#A7A3A3"/>
<path d="M17.6537 12.3961C17.1724 11.7358 16.3184 11.3416 15.3692 11.3416C15.0556 11.3416 14.7413 11.3875 14.4351 11.4774C14.0571 11.5886 11.9379 12.3223 10.5021 12.9771C9.06713 12.3223 6.94753 11.5886 6.5692 11.4771C6.26294 11.3872 5.949 11.3416 5.6354 11.3416C4.66661 11.3416 3.81119 11.7377 3.34746 12.4011C2.925 13.006 2.799 13.8616 2.97332 14.9449C2.97578 14.9611 2.97996 14.9772 2.98521 14.9927L3.07483 15.2613C3.31949 16.0194 3.89277 17.794 6.23743 18.1797C7.51318 18.3896 8.0438 18.3998 8.87153 18.3998H11.7916C12.6585 18.3998 13.171 18.3899 14.4488 18.1794C16.7504 17.801 17.644 16.1077 17.9712 15.1336L18.0195 14.9927C18.0255 14.9753 18.03 14.9576 18.0325 14.9395C18.1965 13.784 18.0761 12.9759 17.6537 12.3961ZM17.3418 14.8325L17.3019 14.9487C17.0205 15.786 16.2593 17.2385 14.3234 17.5568C13.105 17.7575 12.6172 17.7667 11.7915 17.7667H8.87145C8.06119 17.7667 7.58171 17.7572 6.36265 17.5568C4.44324 17.2411 3.99001 15.8376 3.74675 15.0839L3.66168 14.8296C3.51784 13.9119 3.61095 13.2089 3.93924 12.7399C4.27417 12.2612 4.9084 11.9752 5.63568 11.9752C5.87579 11.9752 6.11692 12.0107 6.35317 12.08C6.72137 12.1883 8.96837 12.9695 10.3414 13.6143C10.4422 13.6614 10.5626 13.6614 10.6638 13.6143C12.0375 12.9692 14.2835 12.188 14.6517 12.08C14.8879 12.0104 15.129 11.9752 15.3691 11.9752C16.0824 11.9752 16.718 12.2631 17.0691 12.745C17.3915 13.1871 17.4783 13.8508 17.3418 14.8325Z" fill="#A7A3A3"/>
<path d="M10.4891 15.311C9.73028 14.8724 6.23271 13.4645 5.91283 13.374C5.60378 13.2866 5.31396 13.3404 5.11729 13.5219C4.8849 13.7366 4.83556 14.0855 4.98149 14.4791C5.0004 14.5304 5.01931 14.5852 5.03924 14.6422C5.23173 15.1951 5.55337 16.1201 6.77035 16.3133C7.9187 16.496 8.32049 16.496 9.04848 16.496L9.60674 16.4998C10.2616 16.4998 10.7173 16.299 10.8261 15.9634C10.8552 15.8728 10.9175 15.5587 10.4891 15.311ZM9.60921 15.8665L9.05238 15.8627C9.05131 15.8627 9.05029 15.8627 9.04959 15.8627C8.33768 15.8627 7.98035 15.8627 6.89114 15.6898C6.09314 15.5631 5.88802 14.9729 5.70673 14.4523C5.68536 14.3912 5.6651 14.3326 5.6448 14.2778C5.5699 14.0764 5.60489 13.9785 5.61223 13.9684C5.61469 13.9674 5.62097 13.9665 5.63077 13.9665C5.64615 13.9665 5.67031 13.969 5.70287 13.9782C5.99548 14.0612 9.2312 15.3668 10.0502 15.8105C9.96026 15.8389 9.81711 15.8665 9.60921 15.8665Z" fill="#A7A3A3"/>
<path d="M16.27 11.605L14.6775 7.83504C14.6376 7.74067 14.5504 7.66912 14.4427 7.64251L13.1281 7.31825C11.4088 6.89424 9.59202 6.89424 7.87281 7.31825L6.55822 7.64251C6.45043 7.66912 6.36327 7.74067 6.32336 7.83504L4.73052 11.6056C4.68434 11.7152 4.70882 11.8387 4.79389 11.927C4.87896 12.015 5.0109 12.0534 5.13723 12.0271C5.53168 11.9441 5.95135 11.9619 6.35277 12.08C6.72097 12.1883 8.96797 12.9695 10.341 13.6142C10.3914 13.6376 10.4467 13.6497 10.502 13.6497C10.5573 13.6497 10.6126 13.6377 10.664 13.6142C12.0378 12.9692 14.2838 12.188 14.652 12.08C15.0517 11.9622 15.4689 11.9432 15.864 12.0265C15.99 12.0527 16.122 12.0141 16.207 11.9261C16.292 11.8377 16.3162 11.7142 16.27 11.605ZM14.4349 11.4777C14.0569 11.5888 11.9377 12.3225 10.502 12.9774C9.06698 12.3225 6.94737 11.5888 6.56905 11.4774C6.26278 11.3874 5.94885 11.3418 5.63524 11.3418C5.62056 11.3418 5.60551 11.3418 5.59078 11.3422L6.91341 8.21129L8.05652 7.92915C9.65498 7.53456 11.3448 7.53456 12.9432 7.92915L14.0863 8.21129L15.4089 11.3422C15.0804 11.3374 14.7542 11.384 14.4349 11.4777Z" fill="#A7A3A3"/>
<path d="M17.85 10.1663C16.7594 10.1663 15.75 10.3582 15.75 11.7496C15.75 11.9244 15.9068 12.0663 16.1 12.0663C16.2932 12.0663 16.45 11.9244 16.45 11.7496C16.45 10.9861 16.7247 10.7996 17.85 10.7996C18.0431 10.7996 18.1999 10.6577 18.1999 10.483C18.2 10.3081 18.0432 10.1663 17.85 10.1663Z" fill="#A7A3A3"/>
<path d="M19.7165 9.21631H17.85C17.6568 9.21631 17.5 9.35818 17.5 9.53296V10.483C17.5 11.1815 18.0757 11.7496 18.7835 11.7496H20.65C20.8432 11.7496 21 11.6077 21 11.433V10.483C21 9.78442 20.4243 9.21631 19.7165 9.21631ZM20.3 11.1163H18.7834C18.4618 11.1163 18.2 10.8323 18.2 10.483V9.84965H19.7165C20.0382 9.84965 20.3 10.1337 20.3 10.483V11.1163Z" fill="#A7A3A3"/>
<path d="M3.15004 10.1663C2.95685 10.1663 2.80005 10.3081 2.80005 10.4829C2.80005 10.6577 2.95685 10.7996 3.15004 10.7996C4.2753 10.7996 4.55002 10.9861 4.55002 11.7496C4.55002 11.9244 4.70682 12.0662 4.90001 12.0662C5.09319 12.0662 5.24999 11.9244 5.24999 11.7496C5.25003 10.3582 4.24064 10.1663 3.15004 10.1663Z" fill="#A7A3A3"/>
<path d="M3.15 9.21631H1.28346C0.575736 9.21631 0 9.78442 0 10.483V11.433C0 11.6077 0.156803 11.7496 0.349986 11.7496H2.21653C2.92421 11.7496 3.49999 11.1812 3.49999 10.483V9.53296C3.49999 9.35818 3.34318 9.21631 3.15 9.21631ZM2.80001 10.483C2.80001 10.8322 2.53821 11.1163 2.21657 11.1163H0.700014V10.483C0.700014 10.1337 0.961816 9.84962 1.28346 9.84962H2.80001V10.483Z" fill="#A7A3A3"/>
<path d="M10.3974 8.67588C10.2609 8.55205 10.039 8.55205 9.90253 8.67588L8.85253 9.62588C8.71566 9.74972 8.71566 9.94985 8.85253 10.0736C8.92078 10.1354 9.0104 10.1664 9.09998 10.1664C9.1896 10.1664 9.27917 10.1354 9.34742 10.0736L10.3974 9.12365C10.5343 8.99985 10.5343 8.79972 10.3974 8.67588Z" fill="#A7A3A3"/>
<path d="M12.4975 8.99253C12.361 8.8687 12.1391 8.8687 12.0026 8.99253L9.5526 11.2092C9.41573 11.333 9.41573 11.5332 9.5526 11.6569C9.62085 11.7187 9.71047 11.7497 9.80005 11.7497C9.88967 11.7497 9.97925 11.7187 10.0475 11.6569L12.4975 9.4403C12.6344 9.31646 12.6344 9.11633 12.4975 8.99253Z" fill="#A7A3A3"/>
<path d="M12.4957 17.8546C12.4289 17.7948 12.3323 17.7584 12.2448 17.7634C12.1009 17.7653 11.9532 17.7663 11.7915 17.7663L8.75001 17.7659C8.55683 17.7659 8.40002 17.9078 8.40002 18.0826V19.9639C8.40002 20.7974 8.89213 21.0343 9.18543 21.1014C9.61909 21.2008 10.0573 21.2505 10.4965 21.2505C10.9354 21.2505 11.3754 21.2008 11.814 21.1017C12.1076 21.0352 12.6001 20.7993 12.6001 19.9639V18.0801C12.6 17.9949 12.5626 17.9138 12.4957 17.8546ZM11.9 19.9639C11.9 20.4291 11.7072 20.4731 11.6438 20.4874C10.8805 20.6603 10.1112 20.6603 9.35692 20.4877C9.29359 20.4728 9.10004 20.4288 9.10004 19.964V18.3996H11.7915C11.8283 18.3996 11.8643 18.3996 11.9 18.3996V19.9639Z" fill="#A7A3A3"/>
<path d="M12.0722 20.4524C11.9627 20.3963 11.8276 20.3979 11.7194 20.4568C11.6907 20.4726 11.6673 20.4818 11.6438 20.4872C10.8801 20.6601 10.1108 20.6604 9.35691 20.4875C9.33312 20.4821 9.30966 20.4726 9.28025 20.4565C9.17209 20.3976 9.03699 20.396 8.92744 20.4521C8.81756 20.5084 8.74963 20.6139 8.74963 20.7279V24.8084C8.74963 25.4652 9.32537 25.9997 10.0331 25.9997H10.9665C11.6742 25.9997 12.25 25.4652 12.25 24.8084V20.7282C12.25 20.6142 12.1821 20.5087 12.0722 20.4524ZM11.5504 24.8084C11.5504 25.1159 11.2886 25.3664 10.9669 25.3664H10.0335C9.71186 25.3664 9.45006 25.1162 9.45006 24.8084V21.156C10.1448 21.2823 10.849 21.282 11.5504 21.1553V24.8084V24.8084Z" fill="#A7A3A3"/>
<path d="M14.5747 17.6305C14.4953 17.5704 14.3903 17.545 14.2881 17.5621C13.4085 17.7056 12.4264 17.755 12.2385 17.7635C12.0502 17.772 11.8983 17.9136 11.9 18.0834V19.964C11.9 20.1116 11.8766 20.3716 11.7201 20.4571C11.6144 20.5141 11.55 20.617 11.55 20.7284V23.1497C11.55 23.3245 11.7069 23.4663 11.9 23.4663H12.949C13.9146 23.4663 14.7 22.7557 14.7 21.8821V17.8737C14.7 17.7797 14.6542 17.6907 14.5747 17.6305ZM14 21.8821C14 22.4065 13.5286 22.8331 12.949 22.8331H12.25V20.8811C12.4341 20.7193 12.6 20.4406 12.6 19.9637V18.3779C12.9346 18.357 13.461 18.3164 14 18.2455V21.8821H14Z" fill="#A7A3A3"/>
<path d="M9.27996 20.4568C9.12352 20.3719 9.10006 20.1117 9.10006 19.9641V18.0827C9.10006 17.9083 8.94396 17.7664 8.75077 17.7661C8.12812 17.7648 7.64967 17.7531 6.70783 17.6106C6.60668 17.5951 6.50275 17.6211 6.42396 17.6812C6.34521 17.7414 6.30005 17.8297 6.30005 17.9228V21.8821C6.30005 22.7558 7.08546 23.4664 8.05109 23.4664H9.10002C9.2932 23.4664 9.45001 23.3245 9.45001 23.1494V20.7282C9.45005 20.6171 9.38565 20.5141 9.27996 20.4568ZM8.75003 22.8331H8.05109C7.4715 22.8331 7.00002 22.4065 7.00002 21.8821V18.293C7.57998 18.3687 7.98214 18.3902 8.40001 18.3969V19.964C8.40001 20.4409 8.56592 20.7193 8.74999 20.8814V22.8331H8.75003Z" fill="#A7A3A3"/>
<path d="M21.4954 0.916748C18.9654 0.916748 16.9166 2.97008 16.9166 5.50008C16.9166 8.03008 18.9654 10.0834 21.4954 10.0834C24.03 10.0834 26.0833 8.03008 26.0833 5.50008C26.0833 2.97008 24.03 0.916748 21.4954 0.916748ZM23.3333 7.33341C23.2909 7.3759 23.2405 7.40961 23.1851 7.43261C23.1296 7.45561 23.0702 7.46745 23.0102 7.46745C22.9501 7.46745 22.8907 7.45561 22.8353 7.43261C22.7798 7.40961 22.7294 7.3759 22.687 7.33341L21.1791 5.8255C21.1358 5.78305 21.1014 5.73243 21.0778 5.67657C21.0542 5.62071 21.0419 5.56072 21.0416 5.50008V3.66675C21.0416 3.41466 21.2479 3.20841 21.5 3.20841C21.752 3.20841 21.9583 3.41466 21.9583 3.66675V5.31216L23.3333 6.68716C23.512 6.86591 23.512 7.15466 23.3333 7.33341Z" fill="#A7A3A3"/>
</svg>
