<svg width="15" height="15" viewBox="0 0 15 15" fill="none" xmlns="http://www.w3.org/2000/svg">
<path d="M7.5 0.5C6.11553 0.5 4.76216 0.910543 3.61101 1.67971C2.45987 2.44888 1.56266 3.54213 1.03285 4.82122C0.503033 6.1003 0.36441 7.50776 0.634506 8.86563C0.904603 10.2235 1.57129 11.4708 2.55026 12.4497C3.52922 13.4287 4.7765 14.0954 6.13437 14.3655C7.49224 14.6356 8.8997 14.497 10.1788 13.9672C11.4579 13.4373 12.5511 12.5401 13.3203 11.389C14.0895 10.2378 14.5 8.88447 14.5 7.5C14.5 5.64348 13.7625 3.86301 12.4498 2.55025C11.137 1.2375 9.35652 0.5 7.5 0.5ZM6.63084 4C6.63084 3.76794 6.72302 3.54538 6.88712 3.38128C7.05121 3.21719 7.27377 3.125 7.50584 3.125C7.7379 3.125 7.96046 3.21719 8.12456 3.38128C8.28865 3.54538 8.38084 3.76794 8.38084 4V8.01917C8.38084 8.13407 8.3582 8.24785 8.31423 8.35401C8.27026 8.46017 8.20581 8.55663 8.12456 8.63789C8.0433 8.71914 7.94684 8.78359 7.84068 8.82756C7.73452 8.87153 7.62074 8.89417 7.50584 8.89417C7.39093 8.89417 7.27715 8.87153 7.17099 8.82756C7.06483 8.78359 6.96837 8.71914 6.88712 8.63789C6.80587 8.55663 6.74142 8.46017 6.69744 8.35401C6.65347 8.24785 6.63084 8.13407 6.63084 8.01917V4ZM7.5 11.875C7.30156 11.875 7.10758 11.8162 6.94258 11.7059C6.77758 11.5957 6.64898 11.439 6.57304 11.2556C6.4971 11.0723 6.47724 10.8706 6.51595 10.6759C6.55466 10.4813 6.65022 10.3025 6.79054 10.1622C6.93086 10.0219 7.10964 9.92633 7.30426 9.88761C7.49889 9.8489 7.70063 9.86877 7.88396 9.94471C8.0673 10.0206 8.224 10.1492 8.33425 10.3142C8.44449 10.4792 8.50334 10.6732 8.50334 10.8717C8.50334 11.1378 8.39763 11.393 8.20947 11.5811C8.02131 11.7693 7.7661 11.875 7.5 11.875Z" fill="white"/>
</svg>
