<?xml version="1.0" encoding="UTF-8"?>
<svg width="20px" height="19px" viewBox="0 0 20 19" version="1.1" xmlns="http://www.w3.org/2000/svg" xmlns:xlink="http://www.w3.org/1999/xlink">
    <!-- Generator: Sketch 60.1 (88133) - https://sketch.com -->
    <title>performance</title>
    <desc>Created with Sketch.</desc>
    <g id="Page-1" stroke="none" stroke-width="1" fill="none" fill-rule="evenodd">
        <g id="Credr-Pro" transform="translate(-25.000000, -300.000000)" fill="#A0A0A0" fill-rule="nonzero">
            <g id="left-nav" transform="translate(0.000000, 50.000000)">
                <g id="performance" transform="translate(25.000000, 250.000000)">
                    <polygon id="Path" points="12.1923079 16.1538464 7.50000011 16.1538464 7.50000011 17.3076926 6.34615394 17.3076926 6.34615394 18.4615387 13.346154 18.4615387 13.346154 17.3076926 12.1923079 17.3076926"></polygon>
                    <path d="M0,0 L0,11.1538463 L3.8379616,11.1538463 L8.55769244,6.43411548 L10.2884617,8.16488474 L14.3379618,4.11538468 L12.769231,4.11538468 L12.769231,2.96153851 L16.2307695,2.96153851 L16.2307695,6.42307702 L15.0769233,6.42307702 L15.0769233,5.00819238 L10.2884617,9.79665399 L8.55769244,8.06588474 L5.46973085,11.1538463 L12.769231,11.1538463 L12.769231,12.3076925 L0,12.3076925 L0,15 L19.692308,15 L19.692308,0 L0,0 Z M15.0769233,12.3076925 L13.9230771,12.3076925 L13.9230771,11.1538463 L15.0769233,11.1538463 L15.0769233,12.3076925 Z M17.3846156,12.3076925 L16.2307695,12.3076925 L16.2307695,11.1538463 L17.3846156,11.1538463 L17.3846156,12.3076925 Z" id="Shape"></path>
                </g>
            </g>
        </g>
    </g>
</svg>