<?xml version="1.0" encoding="UTF-8"?>
<svg width="16px" height="16px" viewBox="0 0 16 16" version="1.1" xmlns="http://www.w3.org/2000/svg" xmlns:xlink="http://www.w3.org/1999/xlink">
    <!-- Generator: Sketch 58 (84663) - https://sketch.com -->
    <title>plus (1)</title>
    <desc>Created with Sketch.</desc>
    <g id="Page-1" stroke="none" stroke-width="1" fill="none" fill-rule="evenodd">
        <g id="Credr-Pro-valuator" transform="translate(-725.000000, -89.000000)" fill="#FFFFFF" fill-rule="nonzero" stroke="#FFFFFF" stroke-width="0.53399996">
            <g id="right-block" transform="translate(270.000000, 78.000000)">
                <g id="Filters">
                    <g id="apply" transform="translate(441.000000, 0.000000)">
                        <g id="plus-(1)" transform="translate(15.000000, 12.000000)">
                            <path d="M6.94199947,0 C3.11428776,0 0,3.11402076 0,6.94199947 C0,10.7699782 3.11428776,13.8839989 6.94199947,13.8839989 C10.7697112,13.8839989 13.8839989,10.7699782 13.8839989,6.94199947 C13.8839989,3.11402076 10.7697112,0 6.94199947,0 Z M6.94199947,13.349999 C3.40878874,13.349999 0.53399996,10.4752102 0.53399996,6.94199947 C0.53399996,3.40878874 3.40878874,0.53399996 6.94199947,0.53399996 C10.4752102,0.53399996 13.349999,3.40878874 13.349999,6.94199947 C13.349999,10.4752102 10.4752102,13.349999 6.94199947,13.349999 Z" id="Shape"></path>
                            <path d="M10.2794992,6.67499949 L7.20899945,6.67499949 L7.20899945,3.73799972 C7.20899945,3.59034873 7.08938346,3.47099974 6.94199947,3.47099974 C6.79461549,3.47099974 6.67499949,3.59034873 6.67499949,3.73799972 L6.67499949,6.67499949 L3.60449973,6.67499949 C3.45711574,6.67499949 3.33749975,6.79434849 3.33749975,6.94199947 C3.33749975,7.08965046 3.45711574,7.20899945 3.60449973,7.20899945 L6.67499949,7.20899945 L6.67499949,10.4129992 C6.67499949,10.5606502 6.79461549,10.6799992 6.94199947,10.6799992 C7.08938346,10.6799992 7.20899945,10.5606502 7.20899945,10.4129992 L7.20899945,7.20899945 L10.2794992,7.20899945 C10.4268832,7.20899945 10.5464992,7.08965046 10.5464992,6.94199947 C10.5464992,6.79434849 10.4268832,6.67499949 10.2794992,6.67499949 Z" id="Path"></path>
                        </g>
                    </g>
                </g>
            </g>
        </g>
    </g>
</svg>