<?xml version="1.0" encoding="UTF-8"?>
<svg width="20px" height="20px" viewBox="0 0 20 20" version="1.1" xmlns="http://www.w3.org/2000/svg" xmlns:xlink="http://www.w3.org/1999/xlink">
    <!-- Generator: Sketch 60.1 (88133) - https://sketch.com -->
    <title>signing-the-contract</title>
    <desc>Created with Sketch.</desc>
    <g id="Page-1" stroke="none" stroke-width="1" fill="none" fill-rule="evenodd">
        <g id="fhd-onboarding" transform="translate(-30.000000, -366.000000)" fill="#A0A0A0" fill-rule="nonzero">
            <g id="signing-the-contract" transform="translate(30.000000, 366.000000)">
                <path d="M11.1480851,3.56085106 L4.33021277,3.56085106 C3.82808511,3.56085106 3.42085106,3.96808511 3.42085106,4.46978723 C3.42085106,4.97148936 3.82808511,5.3787234 4.33021277,5.3787234 L11.1480851,5.3787234 C11.6510638,5.3787234 12.0574468,4.97148936 12.0574468,4.46978723 C12.0570213,3.96808511 11.6506383,3.56085106 11.1480851,3.56085106 Z" id="Path"></path>
                <path d="M12.0570213,7.8787234 C12.0570213,7.37659574 11.6506383,6.96978723 11.1476596,6.96978723 L4.33021277,6.96978723 C3.82808511,6.96978723 3.42085106,7.37702128 3.42085106,7.8787234 C3.42085106,8.38085106 3.82808511,8.78808511 4.33021277,8.78808511 L11.1480851,8.78808511 C11.6506383,8.78808511 12.0570213,8.38085106 12.0570213,7.8787234 Z" id="Path"></path>
                <path d="M7.73957447,12.1970213 C8.24170213,12.1970213 8.64851064,11.7897872 8.64851064,11.2880851 C8.64851064,10.7859574 8.24170213,10.3787234 7.73957447,10.3787234 L4.33021277,10.3787234 C3.82808511,10.3787234 3.42085106,10.7859574 3.42085106,11.2880851 C3.42085106,11.7902128 3.82808511,12.1970213 4.33021277,12.1970213 L7.73957447,12.1970213 Z" id="Path"></path>
                <path d="M14.6017021,15.2893617 L13.6480851,15.9187234 L13.6480851,18.1817021 L1.83021277,18.1817021 L1.83021277,1.81829787 L13.6480851,1.81829787 L13.6480851,5.4106383 L15.466383,2.2612766 L15.466383,0.90893617 C15.466383,0.406808511 15.0591489,0 14.5570213,0 L0.920851064,0 C0.418723404,0 0.0119148936,0.407234043 0.0119148936,0.90893617 L0.0119148936,19.0914894 C0.0119148936,19.593617 0.418723404,20.0004255 0.920851064,20.0004255 L14.5570213,20.0004255 C15.0595745,20.0004255 15.4668085,19.5931915 15.4668085,19.0914894 L15.4668085,14.0808511 L15.0323404,14.8323404 C14.926383,15.0157447 14.7774468,15.173617 14.6017021,15.2893617 Z" id="Path"></path>
                <path d="M19.9774468,4.21021277 C19.9587234,4.12851064 19.7668085,3.39404255 18.6102128,2.72595745 C17.453617,2.05829787 16.7217021,2.25914894 16.6408511,2.28425532 C16.5323404,2.3187234 16.4408511,2.39191489 16.3838298,2.4906383 L10.7021277,12.3314894 C10.6668085,12.3931915 10.6459574,12.4617021 10.6417021,12.5323404 L10.4289362,16.0834043 C10.4187234,16.2553191 10.506383,16.4178723 10.6548936,16.5042553 C10.8046809,16.5902128 10.9889362,16.5842553 11.132766,16.4902128 L14.1017021,14.5302128 C14.1608511,14.4919149 14.2097872,14.4395745 14.2451064,14.3787234 L19.927234,4.53617021 C19.9842553,4.43744681 20.0017021,4.32170213 19.9774468,4.21021277 Z M12.2782979,14.9170213 C12.127234,14.7948936 11.9557447,14.6795745 11.7714894,14.572766 C11.586383,14.4659574 11.4008511,14.3761702 11.2195745,14.3055319 L11.2829787,13.2408511 C11.52,13.2719149 11.8714894,13.3680851 12.3178723,13.6251064 C12.7638298,13.8825532 13.0221277,14.1395745 13.1685106,14.3289362 L12.2782979,14.9170213 Z" id="Shape"></path>
                <path d="M6.34978723,16.3974468 C6.37957447,16.58 6.59021277,16.6365957 6.73106383,16.6953191 C6.86723404,16.752766 7.02978723,16.6438298 7.14297872,16.5889362 C7.83659574,16.2514894 8.77617021,16.6480851 9.51914894,16.6480851 C9.9587234,16.6480851 9.9587234,15.966383 9.51914894,15.966383 C8.65276596,15.966383 7.93191489,15.747234 7.07319149,15.8889362 C7.07319149,15.8391489 7.05489362,15.7719149 7.0012766,15.6804255 C6.84085106,15.4059574 6.63659574,15.3280851 6.43191489,15.3612766 C6.41829787,15.3289362 6.40510638,15.2965957 6.38595745,15.2638298 C6.33234043,15.1761702 6.25744681,15.1323404 6.17319149,15.1140426 C6.41276596,14.6953191 6.56723404,14.2523404 6.41021277,13.8940426 C6.36212766,13.7851064 6.22553191,13.7293617 6.11574468,13.7251064 C5.66042553,13.7080851 5.26978723,14.1859574 4.97702128,14.472766 C4.24468085,15.1906383 3.59957447,16.0055319 2.97531915,16.8165957 C2.70723404,17.1651064 3.3,17.5038298 3.56382979,17.1612766 C4.11702128,16.4429787 4.70297872,15.7455319 5.33361702,15.0931915 C5.18170213,15.3425532 5.02042553,15.587234 4.8506383,15.8229787 C4.60808511,16.1978723 5.18723404,16.5170213 5.43914894,16.167234 C5.49914894,16.0757447 5.57531915,16.0097872 5.6587234,15.9531915 C5.64212766,15.9953191 5.62510638,16.0365957 5.60808511,16.0791489 C5.60893617,16.0791489 5.60978723,16.0795745 5.6106383,16.08 C5.59744681,16.107234 5.58425532,16.1344681 5.57361702,16.1604255 C5.4212766,16.5421277 5.99021277,16.7170213 6.19702128,16.4225532 C6.2493617,16.3485106 6.29787234,16.2693617 6.34170213,16.186383 C6.3387234,16.2434043 6.33744681,16.32 6.34978723,16.3974468 Z" id="Path"></path>
            </g>
        </g>
    </g>
</svg>