<svg width="22" height="22" viewBox="0 0 22 22" fill="none" xmlns="http://www.w3.org/2000/svg">
<path d="M10.9997 0.333374C8.89001 0.333374 6.82772 0.958963 5.0736 2.13103C3.31947 3.3031 1.9523 4.96901 1.14496 6.91808C0.33763 8.86716 0.126394 11.0119 0.53797 13.081C0.949545 15.1501 1.96545 17.0508 3.45721 18.5425C4.94897 20.0343 6.84959 21.0502 8.91872 21.4617C10.9878 21.8733 13.1326 21.6621 15.0816 20.8548C17.0307 20.0474 18.6966 18.6802 19.8687 16.9261C21.0408 15.172 21.6663 13.1097 21.6663 11C21.6663 8.17106 20.5425 5.45796 18.5422 3.45757C16.5418 1.45718 13.8287 0.333374 10.9997 0.333374ZM9.67523 5.66671C9.67523 5.31309 9.81571 4.97395 10.0658 4.7239C10.3158 4.47385 10.6549 4.33337 11.0086 4.33337C11.3622 4.33337 11.7013 4.47385 11.9514 4.7239C12.2014 4.97395 12.3419 5.31309 12.3419 5.66671V11.7912C12.3419 11.9662 12.3074 12.1396 12.2404 12.3014C12.1734 12.4632 12.0752 12.6101 11.9514 12.734C11.8276 12.8578 11.6806 12.956 11.5188 13.023C11.357 13.09 11.1837 13.1245 11.0086 13.1245C10.8335 13.1245 10.6601 13.09 10.4983 13.023C10.3366 12.956 10.1896 12.8578 10.0658 12.734C9.94195 12.6101 9.84373 12.4632 9.77673 12.3014C9.70972 12.1396 9.67523 11.9662 9.67523 11.7912V5.66671ZM10.9997 17.6667C10.6973 17.6667 10.4017 17.577 10.1503 17.409C9.89885 17.241 9.70289 17.0023 9.58717 16.7229C9.47145 16.4435 9.44117 16.1361 9.50017 15.8395C9.55916 15.543 9.70477 15.2705 9.91859 15.0567C10.1324 14.8429 10.4048 14.6973 10.7014 14.6383C10.998 14.5793 11.3054 14.6096 11.5848 14.7253C11.8641 14.841 12.1029 15.037 12.2709 15.2884C12.4389 15.5398 12.5286 15.8354 12.5286 16.1378C12.5286 16.5433 12.3675 16.9322 12.0808 17.2189C11.794 17.5056 11.4052 17.6667 10.9997 17.6667Z" fill="#DA2128" fill-opacity="0.9"/>
</svg>
