<?xml version="1.0" standalone="no"?>
<!DOCTYPE svg PUBLIC "-//W3C//DTD SVG 20010904//EN"
 "http://www.w3.org/TR/2001/REC-SVG-20010904/DTD/svg10.dtd">
<svg version="1.0" xmlns="http://www.w3.org/2000/svg"
 width="512.000000pt" height="512.000000pt" viewBox="0 0 512.000000 512.000000"
 preserveAspectRatio="xMidYMid meet">

<g transform="translate(0.000000,512.000000) scale(0.100000,-0.100000)"
fill="#000000" stroke="none">
<path d="M2190 4889 c-1095 -62 -1997 -894 -2167 -1999 -24 -159 -24 -501 0
-660 91 -593 387 -1112 848 -1487 389 -317 908 -508 1395 -514 136 -2 183 8
250 54 212 142 184 456 -51 563 -43 20 -79 26 -196 34 -79 5 -173 14 -209 20
-530 88 -988 429 -1235 920 -69 137 -129 332 -156 505 -15 103 -15 367 0 470
57 372 221 696 483 957 515 511 1294 636 1939 310 391 -198 690 -539 833 -951
34 -98 76 -274 76 -321 0 -20 -2 -20 -37 8 -126 98 -308 50 -371 -98 -23 -54
-20 -147 7 -199 43 -83 501 -761 542 -802 61 -61 119 -84 209 -83 81 0 127 17
190 70 40 34 546 791 566 846 68 192 -140 381 -326 297 -25 -11 -62 -37 -82
-57 l-38 -36 0 32 c0 62 -32 249 -65 377 -135 527 -465 1004 -916 1322 -437
309 -945 452 -1489 422z"/>
</g>
</svg>
