<?xml version="1.0" encoding="UTF-8"?>
<svg width="22px" height="21px" viewBox="0 0 22 21" version="1.1" xmlns="http://www.w3.org/2000/svg" xmlns:xlink="http://www.w3.org/1999/xlink">
    <!-- Generator: Sketch 60.1 (88133) - https://sketch.com -->
    <title>mechanic (1)</title>
    <desc>Created with Sketch.</desc>
    <g id="Page-1" stroke="none" stroke-width="1" fill="none" fill-rule="evenodd">
        <g id="Credr-Pro" transform="translate(-24.000000, -334.000000)" fill="#A0A0A0" fill-rule="nonzero">
            <g id="left-nav" transform="translate(0.000000, 50.000000)">
                <g id="mechanic-(1)" transform="translate(24.000000, 284.000000)">
                    <path d="M9.94335673,11.8119965 C10.3894093,11.5290088 10.7933974,11.1838782 11.1434606,10.7882199 L12.4055017,11.5282594 L13.5546327,9.50714753 L12.2951218,8.76871375 C12.4552622,8.27226744 12.5494593,7.74568644 12.567118,7.19983637 L14,6.94329004 L13.600756,4.64502464 L12.1681376,4.90157096 C11.9701497,4.4033048 11.7045318,3.93999059 11.3824061,3.523618 L12.3188951,2.39048934 L10.5582999,0.890498893 L9.62260158,2.0226641 C9.16558481,1.77398598 8.67066779,1.58809294 8.14907829,1.4765464 L8.14907829,0 L5.85081629,0 L5.85081629,1.4765464 C5.32917407,1.58809294 4.83425706,1.77398598 4.37718757,2.0226641 L3.44154191,0.890498893 L1.68094672,2.39054286 L2.61733034,3.52367152 C2.29525739,3.94004412 2.02963945,4.40341185 1.83165156,4.90162449 L0.399033103,4.64507817 L0,6.94334357 L1.43267116,7.19988989 C1.45032983,7.74579349 1.54457966,8.27226744 1.70472002,8.76887433 L0.445103768,9.50725458 L1.59428748,11.5283129 L2.85638122,10.7884875 C3.20633905,11.1839853 3.61032712,11.5291693 4.05643242,11.8121571 L3.55824724,13.2018321 L5.71798096,14 L6.21548089,12.6120913 C6.47187415,12.6489167 6.7336968,12.6684534 6.99994729,12.6684534 C7.26619778,12.6684534 7.52807313,12.6490237 7.7844664,12.6120913 L8.28191361,14 L10.4415419,13.201725 L9.94335673,11.8119965 Z M6.99984186,9.99208592 C5.3814648,9.99208592 4.0648137,8.65518678 4.0648137,7.01180231 C4.0648137,5.36852488 5.3814648,4.0315187 6.99984186,4.0315187 C8.61821892,4.0315187 9.93487003,5.36852488 9.93487003,7.01180231 C9.93487003,8.65518678 8.61827163,9.99208592 6.99984186,9.99208592 Z" id="Shape"></path>
                    <path d="M19.4896046,13.7006416 L18.4914899,14.0206365 C18.3011604,13.6927996 18.0659037,13.3959622 17.7950134,13.1375452 L18.3528318,12.2552433 L16.9483551,11.3831518 L16.3908553,12.2647169 C16.0401476,12.1364031 15.6685165,12.0556149 15.2848836,12.0294048 L15.1401715,11 L13.4985794,11.2267859 L13.6432915,12.2561907 C13.2816972,12.3852939 12.946284,12.5639227 12.6442739,12.7822876 L11.8651125,12.085246 L10.7545737,13.3045952 L11.5343724,14.0024263 C11.3452112,14.3244212 11.2010302,14.6735736 11.1084676,15.0406204 L10.0599559,15.0030421 L10,16.6444898 L11.0484586,16.6821734 C11.1146279,17.0610096 11.2335838,17.4185302 11.3967234,17.7490513 L10.5694485,18.3881465 L11.5882743,19.6836524 L12.4171955,19.0434519 C12.7059823,19.284606 13.028491,19.4853397 13.3747378,19.6387583 L13.1549879,20.6568475 L14.7758689,21 L14.9953533,19.9834897 C15.1820716,19.984016 15.3709142,19.9714373 15.5610313,19.9452272 C15.7512546,19.9190171 15.936486,19.8794387 16.1158227,19.8286501 L16.6073657,20.7471093 L18.0716922,19.9774898 L17.5796182,19.057978 C17.8706354,18.8166134 18.1250631,18.5359863 18.3364754,18.2257806 L19.310321,18.6171429 L19.9330873,17.0948511 L18.9611003,16.7042257 C19.0266323,16.3423893 19.0422984,15.9659742 19.0016728,15.5835592 L20,15.2633537 L19.4896046,13.7006416 Z M15.2989565,18.0794672 C14.1428002,18.238991 13.0712408,17.4368984 12.9102785,16.2912322 C12.7489976,15.1455135 13.5585354,14.083425 14.7146385,13.9239538 C15.8706354,13.7641669 16.9419293,14.5664174 17.1033164,15.7122414 C17.2641725,16.8578549 16.4549003,17.9196276 15.2989565,18.0794672 Z" id="Shape"></path>
                    <path d="M21.9605712,7.77228343 L22,6.45902568 L21.1604689,6.43433778 C21.1078433,6.14490812 21.013796,5.85830451 20.8757953,5.58273846 L21.535096,5.06711857 L20.7125322,4.03641199 L20.0533393,4.5518186 C19.818221,4.35842115 19.5581635,4.20074917 19.2821083,4.08173535 L19.4525353,3.26639473 L18.1531635,3 L17.9824133,3.81480741 C17.6829809,3.81523398 17.3815016,3.85730473 17.0860552,3.94341911 L16.6879431,3.21147348 L15.5193542,3.83448308 L15.9174662,4.56653536 C15.6824557,4.76307879 15.4807872,4.98958896 15.3154773,5.23657462 L14.5346584,4.92890897 L14.0438995,6.14960042 L14.8253648,6.45774596 C14.7739242,6.75144135 14.7639054,7.0527084 14.7976784,7.35349556 L14,7.61466477 L14.4164798,8.86212367 L15.2141583,8.6010611 C15.3703651,8.86692261 15.5602911,9.10207088 15.7757489,9.30495958 L15.3345453,10.0124306 L16.4637055,10.7027321 L16.9058786,9.99398132 C17.1905522,10.0950791 17.4891228,10.1566655 17.7921102,10.1760213 L17.9134129,11 L19.2267895,10.8101218 L19.10581,9.98715616 C19.2459652,9.93612739 19.3842891,9.8747009 19.5197043,9.80250345 C19.6552272,9.73041264 19.7831552,9.64963041 19.9033807,9.56202302 L20.5307936,10.1150214 L21.4134701,9.13401052 L20.7856263,8.58037232 C20.9361774,8.31909647 21.0482154,8.03841155 21.1197474,7.74754221 L21.9605712,7.77228343 Z M18.7981902,8.47596862 C17.9750877,8.91464544 16.9450381,8.60884605 16.5021108,7.79435857 C16.0588065,6.97976445 16.3677729,5.95988216 17.1908754,5.52141862 C18.0135469,5.08263515 19.0435427,5.38864783 19.486847,6.20324195 C19.9297204,7.0178894 19.6209694,8.03723847 18.7981902,8.47596862 Z" id="Shape"></path>
                </g>
            </g>
        </g>
    </g>
</svg>