<svg width="29" height="24" viewBox="0 0 29 24" fill="none" xmlns="http://www.w3.org/2000/svg">
<path d="M15.8788 11.5219C15.682 11.3404 15.3923 11.2866 15.0832 11.374C14.7633 11.4646 11.2658 12.8725 10.507 13.3114C10.0786 13.559 10.1409 13.8731 10.1699 13.9637C10.2784 14.2994 10.7341 14.4998 11.3918 14.4998L11.9472 14.4957C12.6752 14.4957 13.077 14.4957 14.2253 14.3133C15.4423 14.1202 15.764 13.1952 15.9564 12.6423C15.9764 12.5849 15.9957 12.5305 16.0146 12.4792C16.1609 12.0855 16.1112 11.7366 15.8788 11.5219ZM15.3513 12.2777C15.331 12.3325 15.3107 12.3911 15.2894 12.4522C15.1081 12.9728 14.903 13.5631 14.105 13.6898C13.0158 13.8627 12.6585 13.8627 11.9465 13.8627C11.9455 13.8627 11.9445 13.8627 11.9438 13.8627L11.3894 13.8664C11.18 13.8664 11.0362 13.8389 10.9456 13.8104C11.7649 13.3668 15.0003 12.0611 15.2929 11.9782C15.3468 11.9629 15.3773 11.9658 15.3787 11.9649C15.3912 11.9785 15.4262 12.0764 15.3513 12.2777Z" fill="#A7A3A3"/>
<path d="M17.6537 10.3961C17.1724 9.7358 16.3184 9.34155 15.3692 9.34155C15.0556 9.34155 14.7413 9.38746 14.4351 9.47741C14.0571 9.58855 11.9379 10.3223 10.5021 10.9771C9.06713 10.3223 6.94753 9.58855 6.5692 9.47711C6.26294 9.38716 5.949 9.34159 5.6354 9.34159C4.66661 9.34159 3.81119 9.73773 3.34746 10.4011C2.925 11.006 2.799 11.8616 2.97332 12.9449C2.97578 12.9611 2.97996 12.9772 2.98521 12.9927L3.07483 13.2613C3.31949 14.0194 3.89277 15.794 6.23743 16.1797C7.51318 16.3896 8.0438 16.3998 8.87153 16.3998H11.7916C12.6585 16.3998 13.171 16.3899 14.4488 16.1794C16.7504 15.801 17.644 14.1077 17.9712 13.1336L18.0195 12.9927C18.0255 12.9753 18.03 12.9576 18.0325 12.9395C18.1965 11.784 18.0761 10.9759 17.6537 10.3961ZM17.3418 12.8325L17.3019 12.9487C17.0205 13.786 16.2593 15.2385 14.3234 15.5568C13.105 15.7575 12.6172 15.7667 11.7915 15.7667H8.87145C8.06119 15.7667 7.58171 15.7572 6.36265 15.5568C4.44324 15.2411 3.99001 13.8376 3.74675 13.0839L3.66168 12.8296C3.51784 11.9119 3.61095 11.2089 3.93924 10.7399C4.27417 10.2612 4.9084 9.97519 5.63568 9.97519C5.87579 9.97519 6.11692 10.0107 6.35317 10.08C6.72137 10.1883 8.96837 10.9695 10.3414 11.6143C10.4422 11.6614 10.5626 11.6614 10.6638 11.6143C12.0375 10.9692 14.2835 10.188 14.6517 10.08C14.8879 10.0104 15.129 9.97519 15.3691 9.97519C16.0824 9.97519 16.718 10.2631 17.0691 10.745C17.3915 11.1871 17.4783 11.8508 17.3418 12.8325Z" fill="#A7A3A3"/>
<path d="M10.4891 13.311C9.73028 12.8724 6.23271 11.4645 5.91283 11.374C5.60378 11.2866 5.31396 11.3404 5.11729 11.5219C4.8849 11.7366 4.83556 12.0855 4.98149 12.4791C5.0004 12.5304 5.01931 12.5852 5.03924 12.6422C5.23173 13.1951 5.55337 14.1201 6.77035 14.3133C7.9187 14.496 8.32049 14.496 9.04848 14.496L9.60674 14.4998C10.2616 14.4998 10.7173 14.299 10.8261 13.9634C10.8552 13.8728 10.9175 13.5587 10.4891 13.311ZM9.60921 13.8665L9.05238 13.8627C9.05131 13.8627 9.05029 13.8627 9.04959 13.8627C8.33768 13.8627 7.98035 13.8627 6.89114 13.6898C6.09314 13.5631 5.88802 12.9729 5.70673 12.4523C5.68536 12.3912 5.6651 12.3326 5.6448 12.2778C5.5699 12.0764 5.60489 11.9785 5.61223 11.9684C5.61469 11.9674 5.62097 11.9665 5.63077 11.9665C5.64615 11.9665 5.67031 11.969 5.70287 11.9782C5.99548 12.0612 9.2312 13.3668 10.0502 13.8105C9.96026 13.8389 9.81711 13.8665 9.60921 13.8665Z" fill="#A7A3A3"/>
<path d="M16.27 9.60498L14.6775 5.83504C14.6376 5.74067 14.5504 5.66912 14.4427 5.64251L13.1281 5.31825C11.4088 4.89424 9.59202 4.89424 7.87281 5.31825L6.55822 5.64251C6.45043 5.66912 6.36327 5.74067 6.32336 5.83504L4.73052 9.60561C4.68434 9.71519 4.70882 9.83869 4.79389 9.92701C4.87896 10.015 5.0109 10.0534 5.13723 10.0271C5.53168 9.94412 5.95135 9.96186 6.35277 10.08C6.72097 10.1883 8.96797 10.9695 10.341 11.6142C10.3914 11.6376 10.4467 11.6497 10.502 11.6497C10.5573 11.6497 10.6126 11.6377 10.664 11.6142C12.0378 10.9692 14.2838 10.188 14.652 10.08C15.0517 9.96219 15.4689 9.94319 15.864 10.0265C15.99 10.0527 16.122 10.0141 16.207 9.92609C16.292 9.83773 16.3162 9.71423 16.27 9.60498ZM14.4349 9.47766C14.0569 9.5888 11.9377 10.3225 10.502 10.9774C9.06698 10.3225 6.94737 9.5888 6.56905 9.47736C6.26278 9.38744 5.94885 9.34184 5.63524 9.34184C5.62056 9.34184 5.60551 9.34184 5.59078 9.34217L6.91341 6.21129L8.05652 5.92915C9.65498 5.53456 11.3448 5.53456 12.9432 5.92915L14.0863 6.21129L15.4089 9.34217C15.0804 9.33738 14.7542 9.38396 14.4349 9.47766Z" fill="#A7A3A3"/>
<path d="M17.85 8.16626C16.7594 8.16626 15.75 8.35815 15.75 9.7496C15.75 9.92439 15.9068 10.0663 16.1 10.0663C16.2932 10.0663 16.45 9.92439 16.45 9.7496C16.45 8.98612 16.7247 8.7996 17.85 8.7996C18.0431 8.7996 18.1999 8.65774 18.1999 8.48295C18.2 8.30813 18.0432 8.16626 17.85 8.16626Z" fill="#A7A3A3"/>
<path d="M19.7165 7.21631H17.85C17.6568 7.21631 17.5 7.35818 17.5 7.53296V8.48296C17.5 9.18155 18.0757 9.74962 18.7835 9.74962H20.65C20.8432 9.74962 21 9.60775 21 9.43296V8.48296C21 7.78442 20.4243 7.21631 19.7165 7.21631ZM20.3 9.11631H18.7834C18.4618 9.11631 18.2 8.83227 18.2 8.48296V7.84965H19.7165C20.0382 7.84965 20.3 8.13369 20.3 8.483V9.11631Z" fill="#A7A3A3"/>
<path d="M3.15004 8.16626C2.95685 8.16626 2.80005 8.30813 2.80005 8.48291C2.80005 8.6577 2.95685 8.79957 3.15004 8.79957C4.2753 8.79957 4.55002 8.98608 4.55002 9.74957C4.55002 9.92435 4.70682 10.0662 4.90001 10.0662C5.09319 10.0662 5.24999 9.92435 5.24999 9.74957C5.25003 8.35815 4.24064 8.16626 3.15004 8.16626Z" fill="#A7A3A3"/>
<path d="M3.15 7.21631H1.28346C0.575736 7.21631 0 7.78442 0 8.48296V9.43296C0 9.60775 0.156803 9.74962 0.349986 9.74962H2.21653C2.92421 9.74962 3.49999 9.18121 3.49999 8.48296V7.53296C3.49999 7.35818 3.34318 7.21631 3.15 7.21631ZM2.80001 8.48296C2.80001 8.83224 2.53821 9.11631 2.21657 9.11631H0.700014V8.48296C0.700014 8.13369 0.961816 7.84962 1.28346 7.84962H2.80001V8.48296Z" fill="#A7A3A3"/>
<path d="M10.3974 6.67588C10.2609 6.55205 10.039 6.55205 9.90253 6.67588L8.85253 7.62588C8.71566 7.74972 8.71566 7.94985 8.85253 8.07365C8.92078 8.1354 9.0104 8.16642 9.09998 8.16642C9.1896 8.16642 9.27917 8.1354 9.34742 8.07365L10.3974 7.12365C10.5343 6.99985 10.5343 6.79972 10.3974 6.67588Z" fill="#A7A3A3"/>
<path d="M12.4975 6.99253C12.361 6.8687 12.1391 6.8687 12.0026 6.99253L9.5526 9.20919C9.41573 9.33302 9.41573 9.53315 9.5526 9.65695C9.62085 9.7187 9.71047 9.74972 9.80005 9.74972C9.88967 9.74972 9.97925 9.7187 10.0475 9.65695L12.4975 7.4403C12.6344 7.31646 12.6344 7.11633 12.4975 6.99253Z" fill="#A7A3A3"/>
<path d="M12.4957 15.8546C12.4289 15.7948 12.3323 15.7584 12.2448 15.7634C12.1009 15.7653 11.9532 15.7663 11.7915 15.7663L8.75001 15.7659C8.55683 15.7659 8.40002 15.9078 8.40002 16.0826V17.9639C8.40002 18.7974 8.89213 19.0343 9.18543 19.1014C9.61909 19.2008 10.0573 19.2505 10.4965 19.2505C10.9354 19.2505 11.3754 19.2008 11.814 19.1017C12.1076 19.0352 12.6001 18.7993 12.6001 17.9639V16.0801C12.6 15.9949 12.5626 15.9138 12.4957 15.8546ZM11.9 17.9639C11.9 18.4291 11.7072 18.4731 11.6438 18.4874C10.8805 18.6603 10.1112 18.6603 9.35692 18.4877C9.29359 18.4728 9.10004 18.4288 9.10004 17.964V16.3996H11.7915C11.8283 16.3996 11.8643 16.3996 11.9 16.3996V17.9639Z" fill="#A7A3A3"/>
<path d="M12.0722 18.4524C11.9627 18.3963 11.8276 18.3979 11.7194 18.4568C11.6907 18.4726 11.6673 18.4818 11.6438 18.4872C10.8801 18.6601 10.1108 18.6604 9.35691 18.4875C9.33312 18.4821 9.30966 18.4726 9.28025 18.4565C9.17209 18.3976 9.03699 18.396 8.92744 18.4521C8.81756 18.5084 8.74963 18.6139 8.74963 18.7279V22.8084C8.74963 23.4652 9.32537 23.9997 10.0331 23.9997H10.9665C11.6742 23.9997 12.25 23.4652 12.25 22.8084V18.7282C12.25 18.6142 12.1821 18.5087 12.0722 18.4524ZM11.5504 22.8084C11.5504 23.1159 11.2886 23.3664 10.9669 23.3664H10.0335C9.71186 23.3664 9.45006 23.1162 9.45006 22.8084V19.156C10.1448 19.2823 10.849 19.282 11.5504 19.1553V22.8084V22.8084Z" fill="#A7A3A3"/>
<path d="M14.5747 15.6305C14.4953 15.5704 14.3903 15.545 14.2881 15.5621C13.4085 15.7056 12.4264 15.755 12.2385 15.7635C12.0502 15.772 11.8983 15.9136 11.9 16.0834V17.964C11.9 18.1116 11.8766 18.3716 11.7201 18.4571C11.6144 18.5141 11.55 18.617 11.55 18.7284V21.1497C11.55 21.3245 11.7069 21.4663 11.9 21.4663H12.949C13.9146 21.4663 14.7 20.7557 14.7 19.8821V15.8737C14.7 15.7797 14.6542 15.6907 14.5747 15.6305ZM14 19.8821C14 20.4065 13.5286 20.8331 12.949 20.8331H12.25V18.8811C12.4341 18.7193 12.6 18.4406 12.6 17.9637V16.3779C12.9346 16.357 13.461 16.3164 14 16.2455V19.8821H14Z" fill="#A7A3A3"/>
<path d="M9.27996 18.4568C9.12352 18.3719 9.10006 18.1117 9.10006 17.9641V16.0827C9.10006 15.9083 8.94396 15.7664 8.75077 15.7661C8.12812 15.7648 7.64967 15.7531 6.70783 15.6106C6.60668 15.5951 6.50275 15.6211 6.42396 15.6812C6.34521 15.7414 6.30005 15.8297 6.30005 15.9228V19.8821C6.30005 20.7558 7.08546 21.4664 8.05109 21.4664H9.10002C9.2932 21.4664 9.45001 21.3245 9.45001 21.1494V18.7282C9.45005 18.6171 9.38565 18.5141 9.27996 18.4568ZM8.75003 20.8331H8.05109C7.4715 20.8331 7.00002 20.4065 7.00002 19.8821V16.293C7.57998 16.3687 7.98214 16.3902 8.40001 16.3969V17.964C8.40001 18.4409 8.56592 18.7193 8.74999 18.8814V20.8331H8.75003Z" fill="#A7A3A3"/>
<circle cx="24" cy="5" r="5" fill="#A7A3A3"/>
<path d="M23.5612 2.93878C23.5815 2.9591 23.5977 2.98324 23.6087 3.00981C23.6197 3.03639 23.6254 3.06488 23.6254 3.09365C23.6254 3.12243 23.6197 3.15092 23.6087 3.17749C23.5977 3.20407 23.5815 3.22821 23.5612 3.24853L22.6218 4.1874H23.6438C24.2861 4.1874 24.9148 4.1874 25.4927 4.36065C26.0899 4.54003 26.6237 4.90053 27.0883 5.59746C27.1184 5.64573 27.1286 5.70385 27.1165 5.75947C27.1045 5.8151 27.0713 5.86385 27.024 5.89539C26.9766 5.92693 26.9188 5.93877 26.8629 5.9284C26.8069 5.91803 26.7572 5.88626 26.7243 5.83984C26.3139 5.22428 25.8633 4.92853 25.3667 4.77978C24.8566 4.62665 24.2887 4.6249 23.625 4.6249H22.6218L23.5612 5.56378C23.5815 5.58412 23.5976 5.60826 23.6086 5.63483C23.6196 5.66141 23.6253 5.68989 23.6253 5.71865C23.6253 5.74742 23.6196 5.7759 23.6086 5.80247C23.5976 5.82904 23.5815 5.85319 23.5612 5.87353C23.5408 5.89387 23.5167 5.91 23.4901 5.92101C23.4635 5.93201 23.435 5.93768 23.4063 5.93768C23.3775 5.93768 23.349 5.93201 23.3225 5.92101C23.2959 5.91 23.2717 5.89387 23.2514 5.87353L21.9389 4.56103C21.9185 4.54071 21.9024 4.51657 21.8913 4.48999C21.8803 4.46342 21.8746 4.43493 21.8746 4.40615C21.8746 4.37738 21.8803 4.34889 21.8913 4.32231C21.9024 4.29574 21.9185 4.2716 21.9389 4.25128L23.2514 2.93878C23.2717 2.91841 23.2959 2.90224 23.3224 2.89122C23.349 2.88019 23.3775 2.87451 23.4063 2.87451C23.435 2.87451 23.4635 2.88019 23.4901 2.89122C23.5167 2.90224 23.5408 2.91841 23.5612 2.93878Z" fill="white"/>
</svg>
