<?xml version="1.0" encoding="UTF-8"?>
<svg width="21px" height="21px" viewBox="0 0 21 21" version="1.1" xmlns="http://www.w3.org/2000/svg" xmlns:xlink="http://www.w3.org/1999/xlink">
    <!-- Generator: Sketch 58 (84663) - https://sketch.com -->
    <title>magnifying-glass</title>
    <desc>Created with Sketch.</desc>
    <g id="Page-1" stroke="none" stroke-width="1" fill="none" fill-rule="evenodd">
        <g id="Credr-Pro" transform="translate(-994.000000, -86.000000)" fill="#fff" fill-rule="nonzero">
            <g id="right-block" transform="translate(270.000000, 78.000000)">
                <g id="Filters" transform="translate(10.000000, 0.000000)">
                    <g id="searchby-registernumber" transform="translate(512.000000, 0.000000)">
                        <g id="magnifying-glass" transform="translate(202.000000, 8.000000)">
                            <path d="M13.93386,2.38739999 C10.75089,-0.795569997 5.57036998,-0.795569997 2.38739999,2.38739999 C-0.794879997,5.57105998 -0.794879997,10.75089 2.38739999,13.93455 C5.22191998,16.7683799 9.63653997,17.0719799 12.81744,14.8591499 C12.88437,15.1758599 13.03755,15.4780799 13.28388,15.7244099 L17.9192999,20.3598299 C18.5948099,21.0339599 19.6863899,21.0339599 20.3584499,20.3598299 C21.0332699,19.6850099 21.0332699,18.5934299 20.3584499,17.9206799 L15.7230299,13.28388 C15.4780799,13.03962 15.1751699,12.88575 14.8584599,12.81882 C17.0726699,9.63722997 16.7690699,5.22329998 13.93386,2.38739999 Z M12.47037,12.47106 C10.09401,14.8474199 6.22655998,14.8474199 3.85088999,12.47106 C1.47590999,10.0947 1.47590999,6.22793998 3.85088999,3.85157999 C6.22655998,1.47590999 10.09401,1.47590999 12.47037,3.85157999 C14.8467299,6.22793998 14.8467299,10.0947 12.47037,12.47106 Z" id="Shape"></path>
                        </g>
                    </g>
                </g>
            </g>
        </g>
    </g>
</svg>