<?xml version="1.0" encoding="UTF-8"?>
<svg width="15px" height="20px" viewBox="0 0 15 20" version="1.1" xmlns="http://www.w3.org/2000/svg" xmlns:xlink="http://www.w3.org/1999/xlink">
    <!-- Generator: Sketch 58 (84663) - https://sketch.com -->
    <title>key-change</title>
    <desc>Created with Sketch.</desc>
    <g id="Page-1" stroke="none" stroke-width="1" fill="none" fill-rule="evenodd">
        <g id="Credr-Pro" transform="translate(-27.000000, -155.000000)" fill="#A0A0A0">
            <g id="left-nav" transform="translate(0.000000, 50.000000)">
                <g id="key-change" transform="translate(27.000000, 105.000000)">
                    <path d="M11.4363166,6.07795721 C11.4188256,5.9232806 11.3375053,5.77976115 11.2885999,5.63364283 C11.2138932,5.41032064 11.172167,5.17960516 11.0911077,4.95897144 C11.0113538,4.74205676 10.9145439,4.53177365 10.8022009,4.33072094 C10.6473486,4.05358456 10.5400092,3.7491154 10.3774991,3.4742194 C10.2310878,3.22661137 10.1055177,2.95946712 9.90363099,2.75128998 C9.76109201,2.60436512 9.58922724,2.49279364 9.41479538,2.39072142 C9.24984872,2.29411575 9.10095727,2.1775258 8.92970164,2.08759649 C8.57283207,1.90016537 8.19359832,1.76408401 7.8157569,1.62352187 C7.66347166,1.56688478 7.51475425,1.45728484 7.37486939,1.37389748 C7.23890043,1.29284013 7.10845724,1.20622661 6.97448975,1.1225704 C6.80423485,1.01633105 6.61783773,0.937558898 6.42426144,0.889704142 C6.22320142,0.840012266 6.0243169,0.843865739 5.8194715,0.830916278 C5.37101324,0.802552926 4.92403432,0.749724502 4.48101481,0.672744661 C4.20185422,0.624217788 3.9243035,0.566102041 3.64892828,0.498487036 C3.33439401,0.421283156 3.01772774,0.35389219 2.70314995,0.276957157 C2.39070416,0.200559818 2.08891833,0.10005587 1.78295554,0 L0,2.93334416 C0.270154008,3.10388274 0.535565418,3.28248672 0.810070433,3.44563201 C0.926285823,3.51472567 1.05625039,3.56190831 1.16641788,3.63951546 C1.27889141,3.7187805 1.3709152,3.824751 1.46306952,3.92700245 C1.85309377,4.3596668 2.28858603,4.77866475 2.77115619,5.1002505 C3.11819248,5.33490907 3.45748399,5.58184499 3.78607202,5.84325383 C4.11435547,6.10439383 4.4317179,6.38000675 4.73689752,6.66937567 C4.81478054,6.74321897 4.90314948,6.81513552 4.97128625,6.89785076 C5.10473163,7.05992066 5.28582053,7.16808675 5.45050613,7.2926973 C5.62902794,7.42779289 5.80459106,7.56710042 5.97602072,7.71169526 C5.98972639,7.72325568 6.00343207,7.73486091 6.01709423,7.74651094 C6.21288953,7.91333047 6.39845997,8.13992363 6.63019458,8.25548301 C6.99681041,8.43825412 7.39362223,8.21632097 7.42834326,7.79615801 C7.47137472,7.27571514 7.04989269,6.72413083 6.73326993,6.3642792 C6.38858318,5.9725244 5.98206862,5.64730922 5.61205901,5.28230469 C5.42801143,4.99840232 5.32872145,4.76181701 5.33198471,4.44251646 C5.53861402,4.3270467 5.67715007,4.09516622 5.82190806,3.89568179 C5.89887737,3.78962167 5.97132164,3.68064904 6.04176443,3.57037699 C6.24608771,3.75843542 6.49827206,3.8567886 6.77068859,3.95321503 C6.82686009,3.9731097 6.88720855,3.99627535 6.94977603,4.01867926 C7.11306931,4.51801765 7.42930048,4.94624601 7.85252291,5.24166399 C7.67674223,5.57073265 7.68374735,5.9753473 7.75471227,6.35321167 C7.5525645,6.68617861 7.46080177,7.08232457 7.50291951,7.47560284 C7.5162771,7.60012378 7.5512592,7.72442068 7.60299267,7.83769486 C7.65224607,7.94550248 7.72438576,8.06025532 7.83424868,8.11008162 C7.95916608,8.16676352 8.10340195,8.10582488 8.18985646,8.00670997 C8.25734057,7.92937167 8.29158299,7.8321835 8.33348319,7.7393865 C8.38016949,7.63597004 8.42489784,7.53161262 8.46779877,7.42644866 C8.55360062,7.21625516 8.6321798,7.00301473 8.70532022,6.78784756 C8.71846026,6.74908879 8.73146977,6.71024041 8.74430524,6.67130241 C8.84581423,6.36378632 8.9070329,6.0441273 8.95659086,5.72397541 C8.98108703,5.56566937 9.00271153,5.40696005 9.02498869,5.24829555 C9.04596054,5.09926473 9.07794044,4.94723179 9.0682377,4.79591577 C9.05823038,4.63962608 8.96646765,4.49498642 8.90342156,4.3556789 C8.85321094,4.24482435 8.80304384,4.1340146 8.75283322,4.02316004 C8.73203541,3.97718722 8.67508073,3.78424473 8.6218244,3.76927892 C8.73599482,3.80189901 8.85016524,3.8344743 8.96433565,3.86709439 C9.07554739,3.99434861 9.20081287,4.10112566 9.34100231,4.18755995 C9.46953105,4.61901448 9.70966311,4.99011287 10.0364237,5.27979545 C10.1126969,5.73629756 10.346694,6.3075525 10.7659135,6.52254044 C11.1013326,6.69451286 11.4815671,6.47759819 11.4363166,6.07795721" id="Fill-4"></path>
                    <path d="M14.5599999,15.0835659 C14.3990507,15.0837815 14.2401522,15.0832963 14.0879057,15.0834042 C13.6729788,15.0837276 13.2322942,15.1058313 12.8207684,15.0510035 C12.515375,15.0103543 12.1136023,15.0109473 11.8271647,14.8980031 C11.1499077,14.5801959 10.4261865,14.4675212 9.65840189,14.6419243 C9.32144891,14.7184784 8.97999456,14.7696942 8.63773995,14.809319 C8.46583742,14.8291584 8.29363479,14.8461404 8.12133213,14.8619364 C7.95933262,14.876816 7.79813335,14.8534724 7.63553366,14.8390241 C7.31293506,14.8103972 6.99113672,14.7750314 6.66893824,14.7447332 C6.40135646,14.7195566 6.11571917,14.7185323 5.86614289,14.8398328 C5.79547129,14.8741743 5.72895096,14.9182738 5.66948279,14.9719155 C5.58240617,15.0504104 5.50773335,15.1394719 5.47477328,15.259209 C5.41230419,15.4860139 5.50958392,15.7755177 5.64952669,15.9495974 C5.78481804,16.1178546 5.97247539,16.2293972 6.16158318,16.3120432 C6.41766145,16.4239631 6.68969459,16.4870933 6.96082745,16.5396568 C7.47413433,16.639231 7.90806695,16.5938377 8.41157083,16.5062857 C8.70731122,16.4549082 8.94763467,16.4928618 9.17705478,16.5730279 C9.17130302,16.6742195 9.14959639,16.7674322 9.10268205,16.8399429 C9.08322611,16.8699715 8.95188597,16.8907813 8.91712534,16.9030731 C8.85225552,16.9260393 8.78763577,16.9498142 8.72326609,16.9743977 C8.5950269,17.0234031 8.46993867,17.0835682 8.34134937,17.1308484 C8.24807086,17.165136 8.17519859,17.2364068 8.07831898,17.2670284 C7.97033598,17.3012082 7.85500073,17.3054672 7.74356668,17.2937145 C7.54775683,17.2731204 7.35669844,17.2095589 7.16018838,17.2009331 C6.94492259,17.1914447 6.72685594,17.2479977 6.51544133,17.2031435 C6.37904965,17.1741931 6.2535613,17.1045397 6.12282134,17.0536474 C5.83568358,16.9418353 5.52788951,16.9215647 5.22619731,16.8956333 C5.07330058,16.8825329 4.92020379,16.8683003 4.76895757,16.8399429 C4.61731122,16.8115316 4.4821199,16.7482937 4.33557511,16.7057037 C3.86513134,16.5689846 3.40584097,16.3949588 2.94314956,16.2283729 C2.79300367,16.1742998 2.64335793,16.1154286 2.48565974,16.0927859 C2.32876179,16.0702509 2.15610902,16.1228145 2.01701651,16.1998538 C1.99335928,16.2129542 1.96925191,16.2274564 1.9426938,16.2292893 C1.89948059,16.2322545 1.85686756,16.2137629 1.81270407,16.2152724 C1.78344513,16.2162428 1.75428621,16.2177523 1.72507729,16.2207174 C1.65375549,16.2279416 1.5827838,16.2413116 1.51361266,16.2613127 C1.36166622,16.3053043 1.20481828,16.3849313 1.11519089,16.5305458 C0.965245065,16.774225 1.05032107,17.0408704 1.27508976,17.1843824 C1.39417616,17.2604512 1.5242159,17.282501 1.65830688,17.3073002 C1.82685839,17.3385148 1.99445962,17.3754441 2.16086047,17.4181419 C2.24318563,17.4392751 2.32596093,17.4603544 2.40723577,17.4858545 C2.47900771,17.5083894 2.54862898,17.5500089 2.61850034,17.580954 C2.77479811,17.6501223 2.93134595,17.7188053 3.08779376,17.7875422 C3.39938899,17.924477 3.71333494,18.0547268 4.0168277,18.2093983 C4.32072057,18.3642856 4.62736429,18.5130269 4.93650877,18.6554606 C5.55479774,18.9402742 6.18303974,19.2000189 6.81948425,19.4338323 C7.00118979,19.5007902 7.18369557,19.565322 7.36675151,19.6278592 C7.54245521,19.6878625 7.69715249,19.7572464 7.88440972,19.759888 C8.17354809,19.7639853 8.45243332,19.6548688 8.72376625,19.5471539 C9.05336698,19.4163651 9.3829177,19.2855762 9.71246842,19.1547873 C9.79419339,19.1223866 9.88011965,19.0951075 9.95959394,19.0567226 C10.0191621,19.027934 10.0696276,18.9871231 10.1318466,18.9601135 C10.2862438,18.8931557 10.4434918,18.833961 10.6025905,18.7812358 C10.9658015,18.6607979 11.3379652,18.5742163 11.7120295,18.5034307 C12.3881862,18.3754452 13.0754962,18.3156037 13.762006,18.3253077 C13.9388101,18.3277876 14.1155141,18.3230973 14.2923181,18.3230973 C14.3815454,18.3213183 14.4707727,18.3194853 14.5599999,18.3176523 L14.5599999,15.0835659" id="Fill-8"></path>
                    <polyline id="Fill-9" points="7.27999997 10.4 7.27999997 14.2964276 7.4560175 14.5599999 8.14398243 14.5599999 8.31999996 14.2964276 8.31999996 10.4 7.27999997 10.4"></polyline>
                    <path d="M7.79999996,9.48728346 C7.97919857,9.48728346 8.13025564,9.58406792 8.1783496,9.71660777 C8.19007361,9.74889577 8.15924163,9.78115196 8.11766755,9.78115196 C8.09017406,9.78115196 8.06554776,9.76674165 8.05779067,9.74538067 C8.02499486,9.65510152 7.92207104,9.58917356 7.79999996,9.58917356 C7.67792889,9.58917356 7.57500506,9.65510152 7.54220926,9.74538067 C7.53445217,9.76674165 7.5098455,9.78115196 7.48233238,9.78115196 C7.4407583,9.78115196 7.40992632,9.74889577 7.42165033,9.71660777 C7.46974429,9.58406792 7.62080135,9.48728346 7.79999996,9.48728346 Z M7.76150908,9.36112168 C7.49619695,9.37658175 7.27999997,9.5743179 7.27999997,9.78977269 L7.27999997,10.1507462 C7.27999997,10.383347 7.51281087,10.4 7.79999996,10.4 C8.08718906,10.4 8.31999996,10.383347 8.31999996,10.1507462 L8.31999996,9.78115196 C8.31999996,9.53826032 8.06609763,9.34338714 7.76150908,9.36112168 L7.76150908,9.36112168 Z" id="Fill-10"></path>
                    <path d="M7.83179278,9.39768269 L7.66782167,9.41432194 C7.6241126,9.4187301 7.58506003,9.38694168 7.58065187,9.34323261 L7.3115058,6.68641631 C7.30709764,6.64276933 7.33888606,6.60371676 7.38259513,6.5993086 L7.54662833,6.58266935 C7.5903374,6.57826119 7.62932788,6.6101117 7.63373604,6.65382077 L7.90288211,9.31057498 C7.90735236,9.35428405 7.87550186,9.39327453 7.83179278,9.39768269" id="Fill-11"></path>
                </g>
            </g>
        </g>
    </g>
</svg>