<?xml version="1.0" encoding="UTF-8"?>
<svg width="20px" height="20px" viewBox="0 0 20 20" version="1.1" xmlns="http://www.w3.org/2000/svg" xmlns:xlink="http://www.w3.org/1999/xlink">
    <!-- Generator: Sketch 60.1 (88133) - https://sketch.com -->
    <title>lead</title>
    <desc>Created with Sketch.</desc>
    <g id="Page-1" stroke="none" stroke-width="1" fill="none" fill-rule="evenodd">
        <g id="fhd-onboarding" transform="translate(-27.000000, -297.000000)" fill="#A0A0A0" fill-rule="nonzero">
            <g id="lead" transform="translate(27.000000, 297.000000)">
                <path d="M2.155,6.19273437 L15.6901562,6.19273437 L15.6901562,6.86199219 C15.6901562,7.09898438 15.8329297,7.31261719 16.051875,7.40332031 C16.1244141,7.43335938 16.2005078,7.44792969 16.2759766,7.44792969 C16.4284375,7.44792969 16.5783203,7.38839844 16.6903906,7.27628906 L19.8283594,4.13828125 C20.0571484,3.90949219 20.0571484,3.53847656 19.8283594,3.3096875 L16.6904297,0.171640625 C16.5228906,0.0040625 16.2708984,-0.04609375 16.051875,0.044609375 C15.8329687,0.1353125 15.6901562,0.348984375 15.6901562,0.5859375 L15.6901562,1.25519531 L2.155,1.25519531 C0.96671875,1.25523437 0,2.22195312 0,3.41019531 L0,4.0378125 C0,5.22605469 0.96671875,6.19273437 2.155,6.19273437 Z" id="Path"></path>
                <path d="M2.46882812,8.78648438 C1.10753906,8.78648438 0,9.89394531 0,11.2552344 C0,12.6165234 1.10753906,13.7239844 2.46878906,13.7239844 C3.83007812,13.7239844 4.9375,12.6164844 4.9375,11.2552344 C4.9375,9.89398438 3.83007813,8.78648438 2.46882813,8.78648438 L2.46882812,8.78648438 Z" id="Path"></path>
                <path d="M2.46882812,14.8958594 C1.60421875,14.8958594 0.80921875,14.5926953 0.184023437,14.0873828 C0.065703125,14.3755469 0,14.6905859 0,15.0208594 L0,16.9036719 C0,17.2272656 0.26234375,17.4896094 0.5859375,17.4896094 L0.62765625,17.4896094 L0.62765625,19.4141016 C0.62765625,19.7376953 0.89,20.0000391 1.21359375,20.0000391 L3.72398438,20.0000391 C4.04757813,20.0000391 4.30992187,19.7376953 4.30992187,19.4141016 L4.30992187,17.4896094 L4.3515625,17.4896094 C4.67515625,17.4896094 4.9375,17.2272656 4.9375,16.9036719 L4.9375,15.0208594 C4.9375,14.6905859 4.87179688,14.3755078 4.75351563,14.0873828 C4.12839844,14.5926953 3.33339844,14.8958594 2.46882812,14.8958594 Z" id="Path"></path>
                <path d="M8.74484375,8.78648437 C7.38355469,8.78648437 6.27613281,9.89394531 6.27613281,11.2551953 C6.27613281,12.6164453 7.38359375,13.7239453 8.74484375,13.7239453 C10.1060938,13.7239453 11.2136328,12.6164453 11.2136328,11.2551953 C11.2136328,9.89394531 10.1060938,8.78648437 8.74484375,8.78648437 L8.74484375,8.78648437 Z" id="Path"></path>
                <path d="M8.74484375,14.8958594 C7.88023437,14.8958594 7.08527344,14.5926953 6.46011719,14.0873828 C6.34183594,14.3755469 6.27613281,14.6905859 6.27613281,15.0208984 L6.27613281,16.9037109 C6.27613281,17.2273047 6.53847656,17.4896484 6.86207031,17.4896484 L6.90371094,17.4896484 L6.90371094,19.4141406 C6.90371094,19.7377344 7.16605469,20.0000781 7.48964844,20.0000781 L10,20.0000781 C10.3235938,20.0000781 10.5859375,19.7377344 10.5859375,19.4141406 L10.5859375,17.4896484 L10.6276562,17.4896484 C10.95125,17.4896484 11.2135937,17.2273047 11.2135937,16.9037109 L11.2135937,15.0208984 C11.2135937,14.690625 11.1478906,14.3755469 11.0296094,14.0873828 C10.4044531,14.5926953 9.60941406,14.8958594 8.74484375,14.8958594 L8.74484375,14.8958594 Z" id="Path"></path>
                <path d="M17.5312891,8.78648437 C16.17,8.78648437 15.0625781,9.89394531 15.0625781,11.2551953 C15.0625781,12.6164453 16.17,13.7239453 17.5312891,13.7239453 C18.8925781,13.7239453 20,12.6164453 20,11.2551953 C20,9.89394531 18.8925781,8.78648437 17.5312891,8.78648437 L17.5312891,8.78648437 Z" id="Path"></path>
                <path d="M17.5312891,14.8958594 C16.6666797,14.8958594 15.8717188,14.5926953 15.2465625,14.0874219 C15.1282813,14.3755469 15.0625781,14.6905859 15.0625781,15.0208984 L15.0625781,16.9037109 C15.0625781,17.2273047 15.3249219,17.4896484 15.6485156,17.4896484 L15.6901563,17.4896484 L15.6901563,19.4141406 C15.6901563,19.7377344 15.9525,20.0000781 16.2760938,20.0000781 L18.7864844,20.0000781 C19.1100781,20.0000781 19.3724219,19.7377344 19.3724219,19.4141406 L19.3724219,17.4896484 L19.4140625,17.4896484 C19.7376563,17.4896484 20,17.2273047 20,16.9037109 L20,15.0208984 C20,14.690625 19.9342969,14.3755469 19.8160156,14.0874219 C19.1908984,14.5926953 18.3958984,14.8958594 17.5312891,14.8958594 L17.5312891,14.8958594 Z" id="Path"></path>
            </g>
        </g>
    </g>
</svg>