<?xml version="1.0" encoding="UTF-8"?>
<svg width="20px" height="18px" viewBox="0 0 20 18" version="1.1" xmlns="http://www.w3.org/2000/svg" xmlns:xlink="http://www.w3.org/1999/xlink">
    <!-- Generator: Sketch 60.1 (88133) - https://sketch.com -->
    <title>line-chart (1)</title>
    <desc>Created with Sketch.</desc>
    <g id="Page-1" stroke="none" stroke-width="1" fill="none" fill-rule="evenodd">
        <g id="fhd-onboarding" transform="translate(-28.000000, -329.000000)" fill="#A0A0A0" fill-rule="nonzero">
            <g id="line-chart-(1)" transform="translate(28.000000, 329.000000)">
                <path d="M1.35523614,13.4033265 L1.35523614,16.6435729 C1.35523614,16.8406982 1.51540041,17.0049692 1.71663244,17.0049692 L4.22176591,17.0049692 C4.41889117,17.0049692 4.58316222,16.8448049 4.58316222,16.6435729 L4.58316222,10.9433676 L2.76386037,12.7626694 C2.37782341,13.1445996 1.88501027,13.3663655 1.35523614,13.4033265 Z" id="Path"></path>
                <path d="M5.83162218,10.9022998 L5.83162218,16.6435729 C5.83162218,16.8406982 5.99178645,17.0049692 6.19301848,17.0049692 L8.69815195,17.0049692 C8.89527721,17.0049692 9.05954825,16.8448049 9.05954825,16.6435729 L9.05954825,13.2636961 C8.48870637,13.2513758 7.95482546,13.0255031 7.5523614,12.623039 L5.83162218,10.9022998 Z" id="Path"></path>
                <path d="M10.3080082,12.9064066 L10.3080082,16.6435729 C10.3080082,16.8406982 10.4681725,17.0049692 10.6694045,17.0049692 L13.174538,17.0049692 C13.3716632,17.0049692 13.5359343,16.8448049 13.5359343,16.6435729 L13.5359343,9.74829569 L10.6652977,12.6189322 C10.5544148,12.7298152 10.4353183,12.824271 10.3080082,12.9064066 Z" id="Path"></path>
                <path d="M17.7700205,5.51010267 L14.7843943,8.49572895 L14.7843943,16.6435729 C14.7843943,16.8406982 14.9445585,17.0049692 15.1457906,17.0049692 L17.650924,17.0049692 C17.8480493,17.0049692 18.0123203,16.8448049 18.0123203,16.6435729 L18.0123203,5.73597536 C17.9301848,5.66616016 17.8685832,5.60455852 17.8234086,5.56349076 L17.7700205,5.51010267 Z" id="Path"></path>
                <path d="M19.8193018,0.220574949 C19.7002053,0.0932648871 19.5195072,0.0275564682 19.2895277,0.0275564682 C19.2689938,0.0275564682 19.2443532,0.0275564682 19.2238193,0.0275564682 C18.0574949,0.0809445585 16.8952772,0.138439425 15.7289528,0.191827515 C15.5728953,0.200041068 15.3593429,0.20825462 15.1909651,0.376632444 C15.137577,0.430020534 15.0965092,0.491622177 15.063655,0.565544148 C14.8911704,0.93926078 15.1334702,1.18156057 15.24846,1.29655031 L15.5400411,1.59223819 C15.7412731,1.797577 15.9466119,2.00291581 16.1519507,2.20414784 L9.10472279,9.25548255 L5.93839836,6.08915811 C5.74948665,5.90024641 5.49486653,5.79347023 5.2238193,5.79347023 C4.95277207,5.79347023 4.70225873,5.90024641 4.51334702,6.08915811 L0.295687885,10.3027105 C-0.0985626283,10.696961 -0.0985626283,11.3335113 0.295687885,11.7277618 L0.484599589,11.9166735 C0.673511294,12.1055852 0.928131417,12.2123614 1.19917864,12.2123614 C1.47022587,12.2123614 1.72073922,12.1055852 1.90965092,11.9166735 L5.2238193,8.60250513 L8.39014374,11.7688296 C8.57905544,11.9577413 8.83367556,12.0645175 9.10472279,12.0645175 C9.37577002,12.0645175 9.62628337,11.9577413 9.81930185,11.7688296 L17.7700205,3.81811088 L18.6694045,4.71338809 C18.7761807,4.82016427 18.9240246,4.96800821 19.1498973,4.96800821 C19.2443532,4.96800821 19.338809,4.94336756 19.4373717,4.88997947 C19.5030801,4.85301848 19.5605749,4.81195072 19.6098563,4.7626694 C19.7864476,4.58607803 19.8193018,4.36020534 19.8275154,4.18361396 C19.8603696,3.42796715 19.8973306,2.67232033 19.9342916,1.91256674 L19.9876797,0.774989733 C20,0.536796715 19.9466119,0.351991786 19.8193018,0.220574949 Z" id="Path"></path>
            </g>
        </g>
    </g>
</svg>