<svg width="24" height="24" viewBox="0 0 24 24" fill="none" xmlns="http://www.w3.org/2000/svg">
<rect width="24" height="24" rx="2" fill="#5498FF"/>
<path d="M20.3374 12.0833C20.3374 11.9962 20.2899 11.9091 20.2662 11.822C20.2295 11.6684 20.1819 11.5176 20.1237 11.3708C20.0841 11.2758 20.0287 11.1808 19.9812 11.0779C19.9337 10.975 19.8624 10.8404 19.7912 10.7295C19.7199 10.6187 19.6249 10.5633 19.6249 10.5C19.6249 10.4366 19.4666 10.302 19.3795 10.207C19.2924 10.112 19.2133 10.0487 19.1262 9.96955L18.8333 9.7083L18.5483 9.5183C18.4364 9.44983 18.32 9.389 18.1999 9.33621L17.8912 9.19371C17.7619 9.14582 17.6297 9.10616 17.4953 9.07496C17.3889 9.04366 17.2805 9.01986 17.1708 9.00371L16.9887 8.91663C16.6656 7.9833 16.0597 7.17387 15.2552 6.60098C14.4507 6.02808 13.4876 5.72021 12.4999 5.72021C11.5123 5.72021 10.5492 6.02808 9.74465 6.60098C8.94013 7.17387 8.3342 7.9833 8.01117 8.91663L7.86867 8.95621C7.75894 8.97236 7.65048 8.99616 7.54409 9.02746C7.40977 9.05866 7.27756 9.09832 7.14825 9.14621L6.8395 9.28871C6.71942 9.3415 6.60305 9.40233 6.49117 9.4708L6.20617 9.7083L5.91325 9.95371C5.82617 10.0329 5.73909 10.1041 5.65992 10.1912C5.58075 10.2783 5.49367 10.3891 5.4145 10.4841C5.33534 10.5791 5.272 10.6662 5.20867 10.7691C5.14534 10.872 5.082 10.9987 5.01867 11.1175C4.95534 11.2362 4.91575 11.3154 4.87617 11.4104C4.81794 11.5572 4.77031 11.708 4.73367 11.8616C4.73367 11.9487 4.67825 12.0358 4.66242 12.1229C4.61314 12.3706 4.58664 12.6224 4.58325 12.875C4.58696 13.1167 4.6108 13.3576 4.6545 13.5954C4.6545 13.6745 4.69409 13.7458 4.70992 13.825C4.74905 13.9805 4.79662 14.1338 4.85242 14.2841L4.94742 14.5137C5.01711 14.6664 5.09643 14.8145 5.18492 14.957L5.29575 15.1312C5.30714 15.1534 5.32038 15.1746 5.33534 15.1945L5.37492 15.25C5.74363 15.7416 6.22173 16.1406 6.77137 16.4154C7.321 16.6902 7.92707 16.8333 8.54159 16.8333H10.9166V15.7487C10.676 15.8882 10.403 15.962 10.1249 15.9625C9.69604 15.9585 9.28618 15.7848 8.98492 15.4795C8.84027 15.3299 8.72655 15.1532 8.65025 14.9596C8.57394 14.766 8.53656 14.5592 8.54024 14.3511C8.54391 14.143 8.58858 13.9377 8.67167 13.7469C8.75477 13.5561 8.87466 13.3836 9.0245 13.2391L11.3995 10.9433C11.695 10.6585 12.0895 10.4995 12.4999 10.5C12.9192 10.5017 13.3206 10.6697 13.6162 10.967L15.9912 13.342C16.2861 13.6387 16.4516 14.04 16.4516 14.4583C16.4516 14.8766 16.2861 15.2779 15.9912 15.5745C15.6956 15.8719 15.2942 16.0399 14.8749 16.0416C14.5964 16.0443 14.3226 15.9703 14.0833 15.8279V16.8333H16.4583C17.0728 16.8333 17.6788 16.6902 18.2285 16.4154C18.7781 16.1406 19.2562 15.7416 19.6249 15.25L19.6645 15.2104C19.6795 15.1904 19.6927 15.1692 19.7041 15.147L19.8149 14.9729C19.9034 14.8303 19.9827 14.6822 20.0524 14.5295L20.1474 14.3C20.2032 14.1496 20.2508 13.9963 20.2899 13.8408C20.2899 13.7616 20.3295 13.6904 20.3453 13.6112C20.3899 13.3683 20.4138 13.122 20.4166 12.875C20.4157 12.6091 20.3892 12.344 20.3374 12.0833Z" fill="white"/>
<path d="M13.0619 11.5212C12.9139 11.3762 12.715 11.2949 12.5077 11.2949C12.3005 11.2949 12.1016 11.3762 11.9536 11.5212L9.57858 13.8171C9.49457 13.8864 9.42578 13.9723 9.37649 14.0694C9.3272 14.1665 9.29848 14.2728 9.29212 14.3815C9.28577 14.4902 9.30191 14.5991 9.33955 14.7013C9.37719 14.8035 9.43551 14.8968 9.51086 14.9754C9.58622 15.0541 9.67699 15.1163 9.7775 15.1583C9.878 15.2002 9.98608 15.221 10.095 15.2192C10.2039 15.2175 10.3112 15.1933 10.4104 15.1482C10.5095 15.1031 10.5983 15.038 10.6711 14.9571L11.7082 13.9516V18.4166C11.7082 18.6266 11.7916 18.828 11.94 18.9764C12.0885 19.1249 12.2899 19.2083 12.4998 19.2083C12.7098 19.2083 12.9112 19.1249 13.0596 18.9764C13.2081 18.828 13.2915 18.6266 13.2915 18.4166V13.9912L14.3127 15.0204C14.3863 15.0946 14.4739 15.1535 14.5704 15.1937C14.6668 15.2339 14.7703 15.2546 14.8748 15.2546C14.9793 15.2546 15.0828 15.2339 15.1793 15.1937C15.2758 15.1535 15.3633 15.0946 15.4369 15.0204C15.5111 14.9468 15.57 14.8592 15.6102 14.7628C15.6504 14.6663 15.6711 14.5628 15.6711 14.4583C15.6711 14.3538 15.6504 14.2503 15.6102 14.1539C15.57 14.0574 15.5111 13.9698 15.4369 13.8962L13.0619 11.5212Z" fill="white"/>
</svg>
