<?xml version="1.0" encoding="UTF-8"?>
<svg width="16px" height="20px" viewBox="0 0 16 20" version="1.1" xmlns="http://www.w3.org/2000/svg" xmlns:xlink="http://www.w3.org/1999/xlink">
    <!-- Generator: Sketch 58 (84663) - https://sketch.com -->
    <title>automobile-with-wrench</title>
    <desc>Created with Sketch.</desc>
    <g id="Page-1" stroke="none" stroke-width="1" fill="none" fill-rule="evenodd">
        <g id="Credr-Pro" transform="translate(-27.000000, -191.000000)" fill="#A0A0A0">
            <g id="left-nav" transform="translate(0.000000, 50.000000)">
                <g id="automobile-with-wrench" transform="translate(27.000000, 141.000000)">
                    <path d="M7.99492308,10.486773 C9.27711468,10.486773 12.2917132,8.94282376 12.2917132,5.24333333 C12.2917132,4.72730097 12.2791704,4.22881711 12.2366521,3.75782591 C12.166869,2.83089268 11.9771312,2.00941001 11.5047,1.37984415 C10.8987084,0.523104937 9.8385153,0 7.99492308,0 C6.15164973,0 5.0915098,0.522892228 4.48551814,1.37936556 C4.01276812,2.00909095 3.82292404,2.83078633 3.75319407,3.75803862 C3.71072895,4.22897664 3.69818606,4.72740732 3.69818606,5.2433865 C3.69818606,8.94282376 6.71273147,10.486773 7.99492308,10.486773 Z M9.39744139,1.92092301 C9.27233138,2.23738102 9.20961693,2.39563662 9.08440062,2.71204146 C8.27607514,2.48353867 7.71366471,2.48353867 6.90533923,2.71204146 C6.78017607,2.39563662 6.71746163,2.23738102 6.59224532,1.92092301 C7.60317036,1.61472821 8.38667579,1.61478139 9.39744139,1.92092301 Z M4.33734197,4.44120718 C4.38687575,4.54952931 4.59718175,4.96606697 4.92271226,5.0050991 C5.29692619,5.0500339 5.91806498,3.67912353 7.99492308,3.67577336 C10.071728,3.67912353 10.69292,5.0500339 11.0671339,5.0050991 C11.3926644,4.96601379 11.6029704,4.54952931 11.6525042,4.44120718 C11.6625491,4.70666818 11.6662695,4.97542617 11.6662695,5.2433865 C11.6662695,7.05168003 10.8682547,8.17212539 10.1987514,8.7936083 C9.35524201,9.57675015 8.41867079,9.86098273 7.99497622,9.86098273 C7.57128165,9.86098273 6.63471044,9.57675015 5.79120109,8.7936083 C5.12164462,8.17212539 4.3236824,7.05168003 4.3236824,5.2433865 C4.3236824,4.97542617 4.32729702,4.70666818 4.33734197,4.44120718 Z" id="Shape" fill-rule="nonzero"></path>
                    <path d="M15.9719885,15.8642194 C15.7525942,14.4994776 15.3010502,12.7414366 14.3951984,12.1167099 C13.7765576,11.689909 11.6183301,10.5362279 10.6966935,10.0435935 L10.6811211,10.0352979 C10.5757821,9.97898313 10.4471112,9.99030989 10.3532521,10.0640668 C9.87045715,10.443274 9.34163616,10.698844 8.78145794,10.8236511 C8.68249666,10.8457197 8.60123362,10.9160732 8.56535883,11.0108883 L7.99492308,12.5153268 L7.42443418,11.0108883 C7.38855938,10.9160732 7.30734949,10.8457197 7.20833506,10.8236511 C6.64820999,10.698844 6.119389,10.443274 5.63664718,10.0640668 C5.5425755,9.99025671 5.41401088,9.97898313 5.30867187,10.0352979 C4.3980368,10.5221891 2.21339489,11.6994278 1.59741144,12.1149019 C0.554597697,12.817746 0.0986955364,15.3614814 0.0178576738,15.8642726 C0.00988549799,15.9141529 0.01450936,15.9651499 0.031304077,16.0127968 C0.0534135779,16.0752269 0.398289903,16.9690307 2.12304356,17.6876685 C2.22248317,17.5622765 2.35492758,17.4671955 2.50390098,17.4136991 C2.3188402,17.347972 2.15822743,17.2191234 2.05549266,17.0461909 C1.90242689,16.7884938 1.89674007,16.4651227 2.04029238,16.2029056 C2.4824824,15.3930155 3.32934006,14.8891076 4.25145506,14.8878845 C5.10915488,14.8878845 5.88665461,15.3143132 6.34834989,16.0074259 L9.63958294,16.0074259 C9.72993427,15.8724087 9.83357255,15.7461127 9.94986003,15.6293886 C10.4255332,15.1520693 11.0583645,14.8887354 11.7318539,14.8877782 L11.7323854,14.8877782 L11.7329169,14.8877782 C12.6542878,14.8877782 13.5022084,15.3889209 13.9459397,16.1960457 C14.0897578,16.457997 14.0849213,16.7807299 13.9327591,17.0392779 C13.8306089,17.2122636 13.6704213,17.3415376 13.4855731,17.4078496 C13.6371508,17.4615587 13.771668,17.5580755 13.8718516,17.6856478 C15.592194,16.9673822 15.9365389,16.0752269 15.9586484,16.0129031 C15.9753899,15.9650967 15.9800138,15.9140466 15.9719885,15.8642194 Z" id="Path"></path>
                    <path d="M13.2026672,18.1033553 L13.2024546,18.1033553 L11.6167357,18.1055356 C11.5886205,18.0387449 11.5346223,17.8532626 11.5340908,17.4107744 C11.5333467,16.968233 11.5867072,16.7824316 11.6147692,16.7154814 L13.200063,16.7131416 C13.2379574,16.7129289 13.2729286,16.6929874 13.292115,16.6603897 C13.3114077,16.6276857 13.3119392,16.5874837 13.2937626,16.554301 C12.9809876,15.9854105 12.3841373,15.6321006 11.7328637,15.6321006 C11.2580409,15.6327919 10.8120243,15.818487 10.4768208,16.1548865 C10.3040904,16.3281381 10.1722837,16.5310626 10.0844304,16.7518015 L5.90339618,16.7518015 C5.640899,16.0969232 5.00030811,15.6322601 4.25145506,15.6322601 C3.60214791,15.6331641 3.00508509,15.9884948 2.69326672,16.5597251 C2.67509016,16.5929078 2.67583423,16.6332693 2.6951269,16.6657606 C2.71441956,16.698252 2.74939084,16.7180871 2.78717896,16.7180871 L2.78728525,16.7180871 L4.37300417,16.7155877 C4.40122567,16.7823784 4.45511758,16.9678608 4.45564905,17.4105085 C4.45639312,17.853103 4.40303269,18.0387981 4.37497064,18.1056419 L2.7896769,18.1080349 C2.75188879,18.1080881 2.71691751,18.1281891 2.69762485,18.1606804 C2.67843848,18.1932781 2.6778007,18.2336397 2.69608356,18.2668223 C3.00875229,18.8356597 3.60581511,19.1892354 4.25427189,19.1892354 L4.25687614,19.1892354 C4.73180522,19.188491 5.17771559,19.0027959 5.51302531,18.6663432 C5.68575578,18.4929853 5.81750927,18.2900076 5.9053095,18.0692687 L10.0862374,18.0692687 C10.3487877,18.7243596 10.9889003,19.1889696 11.7358931,19.1890759 C11.7358931,19.1890759 11.7382848,19.1890759 11.7383911,19.1890759 C12.3875919,19.1881719 12.9847611,18.8326286 13.2965794,18.2617704 C13.314756,18.2285346 13.3140119,18.1881199 13.2947193,18.1556818 C13.2754266,18.1231904 13.2404553,18.1033553 13.2026672,18.1033553 Z" id="Path"></path>
                </g>
            </g>
        </g>
    </g>
</svg>