<svg width="17" height="16" viewBox="0 0 17 16" fill="none" xmlns="http://www.w3.org/2000/svg">
<path fill-rule="evenodd" clip-rule="evenodd" d="M9.00001 4C4.59801 4 1.03101 6.66 1.03101 7.969C1.03101 9.278 4.59701 11.938 9.00001 11.938C13.4 11.938 16.969 9.32 16.969 7.969C16.969 6.618 13.4 4 9.00001 4ZM8.99001 11.062C5.34201 11.062 3.86901 9.011 3.86901 8C3.86901 6.989 5.34201 4.938 8.99001 4.938C12.636 4.938 14.109 6.958 14.109 8C14.109 9.042 12.637 11.062 8.99001 11.062Z" fill="#55B7EF"/>
<path d="M8.932 9.926C9.99901 9.926 10.864 9.04713 10.864 7.963C10.864 6.87887 9.99901 6 8.932 6C7.86499 6 7 6.87887 7 7.963C7 9.04713 7.86499 9.926 8.932 9.926Z" fill="#55B7EF"/>
</svg>
