<svg width="19" height="17" viewBox="0 0 19 17" fill="none" xmlns="http://www.w3.org/2000/svg">
<rect width="19" height="17" rx="2" fill="#F3FAFF"/>
<path d="M9.99995 1.875C11.6245 1.875 13.1825 2.52036 14.3313 3.6691C15.48 4.81784 16.1254 6.37587 16.1254 8.00044C16.1254 9.625 15.48 11.183 14.3313 12.3318C13.1825 13.4805 11.6245 14.1259 9.99995 14.1259C8.37538 14.1259 6.81735 13.4805 5.66861 12.3318C4.51987 11.183 3.87451 9.625 3.87451 8.00044C3.87451 6.37587 4.51987 4.81784 5.66861 3.6691C6.81735 2.52036 8.37538 1.875 9.99995 1.875ZM10.9187 5.63575C11.3737 5.63575 11.7429 5.31987 11.7429 4.85175C11.7429 4.38362 11.3728 4.06775 10.9187 4.06775C10.4637 4.06775 10.0962 4.38362 10.0962 4.85175C10.0962 5.31987 10.4637 5.63575 10.9187 5.63575ZM11.0788 10.5594C11.0788 10.4657 11.1112 10.2225 11.0928 10.0842L10.3736 10.912C10.2248 11.0686 10.0384 11.1771 9.95095 11.1482C9.91125 11.1336 9.87808 11.1053 9.85738 11.0684C9.83669 11.0316 9.82984 10.9885 9.83807 10.947L11.0368 7.16C11.1348 6.67962 10.8653 6.24125 10.2939 6.18525C9.69107 6.18525 8.80382 6.79687 8.26395 7.573C8.26395 7.66575 8.24645 7.89675 8.26482 8.035L8.9832 7.20637C9.13195 7.0515 9.3052 6.94212 9.3927 6.97187C9.43581 6.98735 9.47113 7.0191 9.49109 7.06033C9.51105 7.10156 9.51405 7.14896 9.49945 7.19237L8.3112 10.961C8.17382 11.402 8.4337 11.8342 9.0637 11.9323C9.9912 11.9323 10.5389 11.3355 11.0797 10.5594H11.0788Z" fill="#2996E5"/>
</svg>
