<svg width="13" height="13" viewBox="0 0 13 13" fill="none" xmlns="http://www.w3.org/2000/svg">
<path fill-rule="evenodd" clip-rule="evenodd" d="M13 6.5C13 2.90983 10.0896 0 6.5 0C2.91038 0 0 2.90983 0 6.5C0 10.0896 2.91038 13 6.5 13C10.0896 13 13 10.0896 13 6.5ZM5.16479 4.93187L4.44708 5.83917C4.40863 5.88792 4.40863 5.87221 4.44113 5.92475C5.31808 7.34392 6.34779 8.25933 7.58008 8.51013C7.63967 8.52204 7.62667 8.52908 7.66404 8.48413L8.52042 7.46038C8.55508 7.41867 8.54263 7.41596 8.58867 7.43708L10.5685 8.34925C10.666 8.39421 10.5907 9.34754 10.4666 9.49217C7.70954 12.6858 -0.421417 5.36358 3.38271 2.76792C3.51379 2.67854 4.30679 2.7105 4.34417 2.80583L5.16425 4.89558C5.17238 4.91671 5.17779 4.91508 5.16425 4.93133L5.16479 4.93187Z" fill="#0AAA2D"/>
</svg>
